<svg width="33" height="36" viewBox="0 0 33 36" fill="none" xmlns="http://www.w3.org/2000/svg">
<rect y="0.160645" width="32.5526" height="35.6987" rx="12" fill="#9B51E0" fill-opacity="0.1"/>
<path d="M16.2763 9.16064C12.2646 9.16064 9 12.1591 9 15.8456C9 21.0837 15.5923 26.4921 15.8729 26.7193C15.9885 26.8129 16.1324 26.8594 16.2763 26.8594C16.4202 26.8594 16.5641 26.8129 16.6797 26.72C16.9603 26.4921 23.5526 21.0837 23.5526 15.8456C23.5526 12.1591 20.288 9.16064 16.2763 9.16064ZM16.2763 19.4849C14.0473 19.4849 12.2339 17.8308 12.2339 15.7977C12.2339 13.7645 14.0473 12.1104 16.2763 12.1104C18.5053 12.1104 20.3187 13.7645 20.3187 15.7977C20.3187 17.8308 18.5053 19.4849 16.2763 19.4849Z" fill="#9B51E0"/>
</svg>
