<svg width="26" height="26" viewBox="0 0 26 26" fill="none" xmlns="http://www.w3.org/2000/svg">
<g clip-path="url(#clip0_11_2811)">
<path d="M25.3101 5.53176C24.4272 5.92296 23.4789 6.18728 22.4818 6.30675C23.5106 5.69119 24.2802 4.72236 24.6472 3.58105C23.6806 4.15515 22.6228 4.55925 21.5197 4.77579C20.7779 3.98374 19.7953 3.45875 18.7246 3.28234C17.6538 3.10593 16.5548 3.28796 15.5981 3.80018C14.6414 4.3124 13.8805 5.12614 13.4337 6.11507C12.9869 7.104 12.879 8.21279 13.1269 9.26928C11.1685 9.17095 9.2526 8.66192 7.50363 7.77523C5.75465 6.88854 4.21166 5.644 2.9748 4.12239C2.55188 4.85192 2.30871 5.69775 2.30871 6.59856C2.30824 7.4095 2.50794 8.20802 2.89009 8.92327C3.27224 9.63851 3.82503 10.2484 4.49942 10.6987C3.71731 10.6739 2.95246 10.4625 2.26853 10.0823V10.1458C2.26845 11.2832 2.66188 12.3855 3.38205 13.2658C4.10223 14.1462 5.10479 14.7502 6.21963 14.9755C5.4941 15.1718 4.73343 15.2008 3.99509 15.0601C4.30963 16.0387 4.92233 16.8945 5.74741 17.5076C6.57249 18.1207 7.56865 18.4605 8.59642 18.4794C6.85171 19.849 4.69701 20.5919 2.47893 20.5887C2.08602 20.5888 1.69344 20.5658 1.30322 20.5199C3.5547 21.9675 6.17558 22.7358 8.85228 22.7328C17.9133 22.7328 22.8667 15.2282 22.8667 8.71949C22.8667 8.50803 22.8614 8.29446 22.8519 8.083C23.8154 7.38622 24.6471 6.52339 25.308 5.53493L25.3101 5.53176Z" fill="#1D4ED8"/>
</g>
<defs>
<clipPath id="clip0_11_2811">
<rect width="25.375" height="25.375" fill="white" transform="translate(0.3125 0.3125)"/>
</clipPath>
</defs>
</svg>
