<svg width="24" height="25" viewBox="0 0 24 25" fill="none" xmlns="http://www.w3.org/2000/svg">
<path d="M10.1288 9.69559V16.4386C10.1365 16.9316 10.3379 17.4019 10.6893 17.7478C11.0408 18.0937 11.5141 18.2876 12.0073 18.2876C12.5004 18.2876 12.9738 18.0937 13.3252 17.7478C13.6767 17.4019 13.878 16.9316 13.8858 16.4386L13.8919 7.60028C13.897 7.17884 13.8184 6.76057 13.6607 6.36974C13.5029 5.9789 13.2692 5.62326 12.973 5.32343C12.6768 5.0236 12.324 4.78555 11.9351 4.62308C11.5462 4.46061 11.1289 4.37695 10.7074 4.37695C10.286 4.37695 9.86868 4.46061 9.47978 4.62308C9.09089 4.78555 8.73811 5.0236 8.4419 5.32343C8.14568 5.62326 7.91193 5.9789 7.75419 6.36974C7.59645 6.76057 7.51786 7.17884 7.52298 7.60028V16.4981C7.51439 17.0914 7.62383 17.6805 7.84495 18.2312C8.06606 18.7818 8.39444 19.283 8.81098 19.7056C9.22751 20.1282 9.72391 20.4638 10.2713 20.6929C10.8187 20.9219 11.4062 21.0399 11.9995 21.0399C12.5929 21.0399 13.1804 20.9219 13.7278 20.6929C14.2752 20.4638 14.7716 20.1282 15.1881 19.7056C15.6046 19.283 15.933 18.7818 16.1541 18.2312C16.3752 17.6805 16.4847 17.0914 16.4761 16.4981V8.1834" stroke="#226CEB" stroke-width="1.5" stroke-miterlimit="10" stroke-linecap="round"/>
</svg>
