<svg width="20" height="21" viewBox="0 0 20 21" fill="none" xmlns="http://www.w3.org/2000/svg">
<path d="M10 12.8828C11.834 12.8828 13.3203 11.4141 13.3203 9.60156V5.22656C13.3203 3.41406 11.834 1.94531 10 1.94531C8.16602 1.94531 6.67969 3.41406 6.67969 5.22656V9.60156C6.67969 11.4141 8.16602 12.8828 10 12.8828ZM16.4453 9.5625C16.4453 9.47656 16.375 9.40625 16.2891 9.40625H15.1172C15.0312 9.40625 14.9609 9.47656 14.9609 9.5625C14.9609 12.3027 12.7402 14.5234 10 14.5234C7.25977 14.5234 5.03906 12.3027 5.03906 9.5625C5.03906 9.47656 4.96875 9.40625 4.88281 9.40625H3.71094C3.625 9.40625 3.55469 9.47656 3.55469 9.5625C3.55469 12.8574 6.02734 15.5762 9.21875 15.9609V17.9609H6.38086C6.11328 17.9609 5.89844 18.2402 5.89844 18.5859V19.2891C5.89844 19.375 5.95313 19.4453 6.01953 19.4453H13.9805C14.0469 19.4453 14.1016 19.375 14.1016 19.2891V18.5859C14.1016 18.2402 13.8867 17.9609 13.6191 17.9609H10.7031V15.9707C13.9316 15.6191 16.4453 12.8848 16.4453 9.5625Z" fill="#226CEB"/>
</svg>
