<svg width="20" height="21" viewBox="0 0 20 21" fill="none" xmlns="http://www.w3.org/2000/svg">
<path d="M14.1667 9.86246H7.84167L10.5917 7.12079C10.7486 6.96387 10.8367 6.75104 10.8367 6.52913C10.8367 6.30721 10.7486 6.09438 10.5917 5.93746C10.4347 5.78054 10.2219 5.69238 10 5.69238C9.77808 5.69238 9.56526 5.78054 9.40834 5.93746L5.24167 10.1041C5.1658 10.1834 5.10633 10.2768 5.06667 10.3791C4.98332 10.582 4.98332 10.8096 5.06667 11.0125C5.10633 11.1148 5.1658 11.2082 5.24167 11.2875L9.40834 15.4541C9.48581 15.5322 9.57797 15.5942 9.67952 15.6365C9.78107 15.6788 9.88999 15.7006 10 15.7006C10.11 15.7006 10.2189 15.6788 10.3205 15.6365C10.422 15.5942 10.5142 15.5322 10.5917 15.4541C10.6698 15.3767 10.7318 15.2845 10.7741 15.1829C10.8164 15.0814 10.8382 14.9725 10.8382 14.8625C10.8382 14.7524 10.8164 14.6435 10.7741 14.542C10.7318 14.4404 10.6698 14.3483 10.5917 14.2708L7.84167 11.5291H14.1667C14.3877 11.5291 14.5996 11.4413 14.7559 11.285C14.9122 11.1288 15 10.9168 15 10.6958C15 10.4748 14.9122 10.2628 14.7559 10.1065C14.5996 9.95026 14.3877 9.86246 14.1667 9.86246Z" fill="black"/>
</svg>
