<svg width="24" height="25" viewBox="0 0 24 25" fill="none" xmlns="http://www.w3.org/2000/svg">
<g opacity="0.8">
<path d="M20 12.691C20 13.0584 19.7178 13.3621 19.3518 13.4102L19.25 13.4168L4.25 13.4168C3.83579 13.4168 3.5 13.0918 3.5 12.691C3.5 12.3235 3.78215 12.0198 4.14823 11.9717L4.25 11.9651L19.25 11.9651C19.6642 11.9651 20 12.2901 20 12.691Z" fill="#1E252D"/>
<path d="M10.829 18.0071C11.1225 18.29 11.1235 18.7496 10.8313 19.0337C10.5656 19.2919 10.149 19.3162 9.85489 19.106L9.77062 19.0359L3.72062 13.2057C3.45298 12.9478 3.42863 12.5432 3.64759 12.2586L3.72057 12.177L9.77057 6.34594C10.0641 6.06306 10.5389 6.06401 10.8312 6.34806C11.0969 6.60629 11.1203 7.0096 10.9018 7.29332L10.829 7.37459L5.313 12.6917L10.829 18.0071Z" fill="#1E252D"/>
</g>
</svg>
