<svg width="18" height="20" viewBox="0 0 18 20" fill="none" xmlns="http://www.w3.org/2000/svg">
<path d="M8.99996 19.75C8.01196 19.75 7.12395 19.237 6.62195 18.378C6.41395 18.02 6.53396 17.561 6.89196 17.352C7.24796 17.144 7.70796 17.264 7.91796 17.622C8.37696 18.409 9.62296 18.409 10.082 17.622C10.291 17.264 10.751 17.144 11.108 17.352C11.466 17.56 11.587 18.02 11.378 18.378C10.876 19.237 9.98796 19.75 8.99996 19.75ZM17.675 16.325C17.8 16.065 17.765 15.757 17.586 15.532C17.567 15.509 15.745 13.189 15.745 10.5V6.995C15.745 3.276 12.719 0.25 8.99996 0.25C5.28096 0.25 2.25496 3.276 2.25496 6.995V10.5C2.25496 13.189 0.43296 15.509 0.41396 15.532C0.23496 15.757 0.199956 16.066 0.324956 16.325C0.449956 16.584 0.711959 16.75 0.999959 16.75H17C17.288 16.75 17.55 16.584 17.675 16.325ZM3.75496 10.5V6.995C3.75496 4.103 6.10796 1.75 8.99996 1.75C11.892 1.75 14.245 4.103 14.245 6.995V10.5C14.245 12.436 14.995 14.158 15.613 15.25H2.38596C3.00496 14.158 3.75496 12.436 3.75496 10.5Z" fill="#23262F"/>
</svg>
