<svg width="18" height="21" viewBox="0 0 18 21" fill="none" xmlns="http://www.w3.org/2000/svg">
<path fill-rule="evenodd" clip-rule="evenodd" d="M13.4109 1.33503L13.4119 2.08465C16.1665 2.30054 17.9862 4.1776 17.9891 7.05616L18 15.4819C18.0039 18.6204 16.0322 20.5514 12.8718 20.5564L5.15189 20.5664C2.0112 20.5704 0.0148232 18.5934 0.0108739 15.446L1.32771e-05 7.11913C-0.00393603 4.22158 1.75153 2.34952 4.50618 2.09664L4.50519 1.34702C4.5042 0.90724 4.83002 0.576406 5.26445 0.576406C5.69887 0.575406 6.02469 0.905241 6.02568 1.34502L6.02666 2.04467L11.8914 2.03667L11.8904 1.33702C11.8894 0.897245 12.2152 0.56741 12.6497 0.566411C13.0742 0.565411 13.4099 0.895246 13.4109 1.33503ZM1.52149 7.42797L16.4696 7.40798V7.05816C16.4272 4.90924 15.349 3.7818 13.4139 3.61388L13.4148 4.3835C13.4148 4.81328 13.0801 5.15411 12.6556 5.15411C12.2212 5.15511 11.8944 4.81528 11.8944 4.3855L11.8934 3.5759L6.02864 3.5839L6.02962 4.39249C6.02962 4.82328 5.70479 5.16311 5.27037 5.16311C4.83595 5.16411 4.50914 4.82528 4.50914 4.39449L4.50815 3.62488C2.58286 3.81778 1.51754 4.94922 1.5205 7.11713L1.52149 7.42797ZM12.2399 11.9707V11.9817C12.2498 12.4415 12.625 12.7903 13.0801 12.7803C13.5244 12.7693 13.8789 12.3885 13.869 11.9287C13.8483 11.4889 13.4918 11.1301 13.0485 11.1311C12.5944 11.1411 12.2389 11.5109 12.2399 11.9707ZM13.0554 16.4585C12.6013 16.4485 12.235 16.0696 12.234 15.6099C12.2241 15.1501 12.5884 14.7693 13.0426 14.7583H13.0525C13.5165 14.7583 13.8927 15.1371 13.8927 15.6069C13.8937 16.0766 13.5185 16.4575 13.0554 16.4585ZM8.17213 11.9867C8.19187 12.4465 8.56804 12.8053 9.02222 12.7853C9.46651 12.7643 9.82096 12.3845 9.80122 11.9247C9.79036 11.4749 9.42505 11.1251 8.98075 11.1261C8.52658 11.1461 8.17114 11.5269 8.17213 11.9867ZM9.02617 16.4135C8.57199 16.4335 8.19681 16.0746 8.17608 15.6149C8.17608 15.1551 8.53053 14.7753 8.9847 14.7543C9.429 14.7533 9.79529 15.1031 9.80517 15.5519C9.8259 16.0127 9.47046 16.3925 9.02617 16.4135ZM4.10434 12.0217C4.12408 12.4814 4.50025 12.8413 4.95442 12.8203C5.39872 12.8003 5.75317 12.4195 5.73244 11.9597C5.72257 11.5099 5.35725 11.1601 4.91197 11.1611C4.4578 11.1811 4.10335 11.5619 4.10434 12.0217ZM4.95837 16.4185C4.5042 16.4395 4.12902 16.0796 4.10828 15.6199C4.1073 15.1601 4.46274 14.7793 4.91691 14.7593C5.3612 14.7583 5.7275 15.1081 5.73738 15.5579C5.75811 16.0177 5.40366 16.3985 4.95837 16.4185Z" fill="#246BFD"/>
</svg>
