<svg width="68" height="67" viewBox="0 0 68 67" fill="none" xmlns="http://www.w3.org/2000/svg">
<rect x="0.612305" width="66.7206" height="66.7206" rx="33.3603" fill="#F1F1F1"/>
<path d="M45.1221 28.7812V42.8438C45.1221 43.4654 44.8751 44.0615 44.4356 44.501C43.9961 44.9406 43.3999 45.1875 42.7783 45.1875H40.7674V36.75C40.7674 36.0041 40.4711 35.2887 39.9436 34.7613C39.4162 34.2338 38.7008 33.9375 37.9549 33.9375H28.8518C28.1058 33.9375 27.3905 34.2338 26.863 34.7613C26.3356 35.2887 26.0393 36.0041 26.0393 36.75V45.1875H24.0283C23.4067 45.1875 22.8106 44.9406 22.371 44.501C21.9315 44.0615 21.6846 43.4654 21.6846 42.8438V23.1562C21.6846 22.5346 21.9315 21.9385 22.371 21.499C22.8106 21.0594 23.4067 20.8125 24.0283 20.8125H28.2471V26.9062C28.2471 27.1549 28.3458 27.3933 28.5217 27.5692C28.6975 27.745 28.9359 27.8438 29.1846 27.8438H37.6221C37.8707 27.8438 38.1092 27.745 38.285 27.5692C38.4608 27.3933 38.5596 27.1549 38.5596 26.9062V20.8641C39.0705 20.972 39.5308 21.2475 39.8674 21.6469L44.5549 27.2719C44.9165 27.6921 45.1175 28.2269 45.1221 28.7812ZM36.6846 20.8125H30.1221V25.9688H36.6846V20.8125ZM38.8924 36.75V45.1875H27.9143V41.6484H33.1314C33.3801 41.6484 33.6185 41.5497 33.7944 41.3738C33.9702 41.198 34.0689 40.9596 34.0689 40.7109C34.0689 40.4623 33.9702 40.2238 33.7944 40.048C33.6185 39.8722 33.3801 39.7734 33.1314 39.7734H27.9143V36.75C27.9143 36.5014 28.013 36.2629 28.1888 36.0871C28.3647 35.9113 28.6031 35.8125 28.8518 35.8125H37.9549C38.2035 35.8125 38.442 35.9113 38.6178 36.0871C38.7936 36.2629 38.8924 36.5014 38.8924 36.75ZM34.7064 40.7109C34.7064 40.9596 34.8052 41.198 34.981 41.3738C35.1568 41.5497 35.3953 41.6484 35.6439 41.6484H35.8549C36.1035 41.6484 36.342 41.5497 36.5178 41.3738C36.6936 41.198 36.7924 40.9596 36.7924 40.7109C36.7924 40.4623 36.6936 40.2238 36.5178 40.048C36.342 39.8722 36.1035 39.7734 35.8549 39.7734H35.6439C35.3953 39.7734 35.1568 39.8722 34.981 40.048C34.8052 40.2238 34.7064 40.4623 34.7064 40.7109Z" fill="black"/>
</svg>
