<svg width="68" height="67" viewBox="0 0 68 67" fill="none" xmlns="http://www.w3.org/2000/svg">
<g opacity="0.3">
<rect x="0.654297" width="66.7206" height="66.7206" rx="33.3603" fill="#F1F1F1"/>
<path d="M45.1641 28.7812V42.8438C45.1641 43.4654 44.9171 44.0615 44.4776 44.501C44.0381 44.9406 43.4419 45.1875 42.8203 45.1875H40.8094V36.75C40.8094 36.0041 40.5131 35.2887 39.9856 34.7613C39.4582 34.2338 38.7428 33.9375 37.9969 33.9375H28.8938C28.1478 33.9375 27.4325 34.2338 26.905 34.7613C26.3776 35.2887 26.0813 36.0041 26.0813 36.75V45.1875H24.0703C23.4487 45.1875 22.8526 44.9406 22.413 44.501C21.9735 44.0615 21.7266 43.4654 21.7266 42.8438V23.1562C21.7266 22.5346 21.9735 21.9385 22.413 21.499C22.8526 21.0594 23.4487 20.8125 24.0703 20.8125H28.2891V26.9062C28.2891 27.1549 28.3878 27.3933 28.5637 27.5692C28.7395 27.745 28.9779 27.8438 29.2266 27.8438H37.6641C37.9127 27.8438 38.1512 27.745 38.327 27.5692C38.5028 27.3933 38.6016 27.1549 38.6016 26.9062V20.8641C39.1125 20.972 39.5728 21.2475 39.9094 21.6469L44.5969 27.2719C44.9585 27.6921 45.1595 28.2269 45.1641 28.7812ZM36.7266 20.8125H30.1641V25.9688H36.7266V20.8125ZM38.9344 36.75V45.1875H27.9563V41.6484H33.1734C33.4221 41.6484 33.6605 41.5497 33.8363 41.3738C34.0122 41.198 34.1109 40.9596 34.1109 40.7109C34.1109 40.4623 34.0122 40.2238 33.8363 40.048C33.6605 39.8722 33.4221 39.7734 33.1734 39.7734H27.9563V36.75C27.9563 36.5014 28.055 36.2629 28.2308 36.0871C28.4067 35.9113 28.6451 35.8125 28.8938 35.8125H37.9969C38.2455 35.8125 38.484 35.9113 38.6598 36.0871C38.8356 36.2629 38.9344 36.5014 38.9344 36.75ZM34.7484 40.7109C34.7484 40.9596 34.8472 41.198 35.023 41.3738C35.1988 41.5497 35.4373 41.6484 35.6859 41.6484H35.8969C36.1455 41.6484 36.384 41.5497 36.5598 41.3738C36.7356 41.198 36.8344 40.9596 36.8344 40.7109C36.8344 40.4623 36.7356 40.2238 36.5598 40.048C36.384 39.8722 36.1455 39.7734 35.8969 39.7734H35.6859C35.4373 39.7734 35.1988 39.8722 35.023 40.048C34.8472 40.2238 34.7484 40.4623 34.7484 40.7109Z" fill="black"/>
</g>
</svg>
