<svg width="67" height="67" viewBox="0 0 67 67" fill="none" xmlns="http://www.w3.org/2000/svg">
<rect width="66.7206" height="66.7206" rx="33.3603" fill="#F1F1F1"/>
<g opacity="0.7">
<path d="M30.5001 21.8906C30.1539 21.8906 29.8749 22.1693 29.8749 22.5155V24.3905H24.8751C24.7108 24.3902 24.5481 24.4223 24.3963 24.485C24.2445 24.5477 24.1065 24.6397 23.9904 24.7559C23.8742 24.872 23.7821 25.01 23.7194 25.1618C23.6567 25.3137 23.6246 25.4764 23.625 25.6406C23.6247 25.8049 23.6568 25.9676 23.7195 26.1194C23.7822 26.2711 23.8743 26.4091 23.9905 26.5252C24.1066 26.6413 24.2445 26.7333 24.3964 26.796C24.5482 26.8587 24.7109 26.8908 24.8751 26.8904H41.1249C41.2891 26.8908 41.4518 26.8587 41.6036 26.796C41.7555 26.7333 41.8934 26.6413 42.0095 26.5252C42.1257 26.4091 42.2178 26.2711 42.2805 26.1194C42.3432 25.9676 42.3753 25.8049 42.375 25.6406C42.3754 25.4764 42.3433 25.3137 42.2806 25.1618C42.2179 25.01 42.1258 24.872 42.0097 24.7559C41.8935 24.6397 41.7555 24.5477 41.6037 24.485C41.4519 24.4223 41.2892 24.3902 41.1249 24.3905H36.1251V22.5155C36.1251 22.1693 35.8461 21.8906 35.4999 21.8906H30.5001ZM31.125 23.1404H34.875V24.3905H31.125V23.1404ZM24.8751 28.1405C24.1824 28.1405 23.5308 28.7075 23.6445 29.3906L26.1249 44.3906C26.238 45.0737 26.6826 45.6404 27.375 45.6404H38.625C39.3174 45.6404 39.7611 45.0734 39.8751 44.3906L42.3555 29.3906C42.4686 28.7075 41.8176 28.1405 41.1249 28.1405H24.8751Z" fill="#3D4754"/>
</g>
</svg>
