<svg width="27" height="26" viewBox="0 0 27 26" fill="none" xmlns="http://www.w3.org/2000/svg">
<path d="M21.3581 7.38643C20.3042 7.15467 19.3508 6.59498 18.6346 5.78769C17.9185 4.98041 17.4766 3.96701 17.3722 2.89294V2.42773H13.7245V16.8809C13.7252 17.5222 13.5242 18.1475 13.1498 18.6682C12.7754 19.1889 12.2467 19.5786 11.6385 19.7821C11.0304 19.9856 10.3736 19.9926 9.76122 19.8021C9.14885 19.6116 8.61196 19.2332 8.22658 18.7206C7.88132 18.2669 7.6699 17.7256 7.61624 17.1579C7.56257 16.5903 7.6688 16.019 7.9229 15.5085C8.17701 14.9981 8.56886 14.569 9.05414 14.2697C9.53941 13.9704 10.0988 13.8128 10.6689 13.8148C10.9843 13.813 11.298 13.8593 11.5993 13.9522V10.2517C11.2487 10.2083 10.8953 10.1906 10.542 10.1988C9.24085 10.2336 7.97803 10.6471 6.90823 11.3886C5.83842 12.1301 5.00807 13.1675 4.51884 14.3737C4.02962 15.5799 3.90276 16.9026 4.1538 18.1799C4.40485 19.4571 5.02289 20.6334 5.93226 21.5647C6.86425 22.5123 8.05688 23.1614 9.35862 23.4296C10.6604 23.6978 12.0124 23.5729 13.2431 23.0709C14.4737 22.5689 15.5273 21.7124 16.2701 20.6103C17.0128 19.5081 17.4111 18.21 17.4144 16.8809V9.47987C18.8856 10.5308 20.6498 11.0929 22.4577 11.087V7.49216C22.1026 7.49363 21.7483 7.45819 21.4004 7.38643H21.3581Z" fill="#1D4ED8"/>
</svg>
