<svg width="13" height="13" viewBox="0 0 13 13" fill="none" xmlns="http://www.w3.org/2000/svg">
<path d="M6.06493 9.32861H6.93502V10.1986H6.06493V9.32861Z" fill="white"/>
<path d="M9.53251 9.32861H10.4025V10.1986H9.53251V9.32861Z" fill="white"/>
<path d="M2.59743 6.06494H3.46752V6.93498H2.59743V6.06494Z" fill="white"/>
<path d="M2.59743 9.32861H3.46752V10.1986H2.59743V9.32861Z" fill="white"/>
<path d="M11.5992 0.815877H11.3141V2.01264C11.3141 2.22297 11.1435 2.3935 10.9332 2.3935C10.7229 2.3935 10.5523 2.22297 10.5523 2.01264V0.815877V0.380859C10.5523 0.170523 10.3818 0 10.1715 0C9.96115 0 9.79063 0.170523 9.79063 0.380859V0.815877H8.86641V2.01264C8.86641 2.22297 8.69588 2.3935 8.48555 2.3935C8.27521 2.3935 8.10469 2.22297 8.10469 2.01264V0.815877V0.380859C8.10469 0.170523 7.93416 0 7.72383 0C7.51349 0 7.34297 0.170523 7.34297 0.380859V0.815877H6.41875V2.01264C6.41875 2.22297 6.24823 2.3935 6.03789 2.3935C5.82755 2.3935 5.65703 2.22297 5.65703 2.01264V0.815877V0.380859C5.65703 0.170523 5.48651 0 5.27617 0C5.06584 0 4.89531 0.170523 4.89531 0.380859V0.815877H3.97109V2.01264C3.97109 2.22297 3.80057 2.3935 3.59023 2.3935C3.3799 2.3935 3.20938 2.22297 3.20938 2.01264V0.815877V0.380859C3.20938 0.170523 3.03885 0 2.82852 0C2.61818 0 2.44766 0.170523 2.44766 0.380859V0.815877H1.4007C0.628367 0.815877 0 1.44424 0 2.2166V3.26353H13V2.2166C13 1.44424 12.3716 0.815877 11.5992 0.815877Z" fill="white"/>
<path d="M0 11.5992C0 12.3715 0.628367 12.9999 1.4007 12.9999H11.5992C12.3716 12.9999 13 12.3715 13 11.5992V4.02515H0V11.5992ZM7.69674 10.5793C7.69674 10.7896 7.52621 10.9602 7.31588 10.9602H5.68407C5.47374 10.9602 5.30321 10.7896 5.30321 10.5793V8.94755C5.30321 8.73721 5.47374 8.56669 5.68407 8.56669H7.31588C7.52621 8.56669 7.69674 8.73721 7.69674 8.94755V10.5793ZM8.77079 5.68402C8.77079 5.47368 8.94131 5.30316 9.15164 5.30316H10.7834C10.9937 5.30316 11.1643 5.47368 11.1643 5.68402V7.31577C11.1643 7.52611 10.9937 7.69663 10.7834 7.69663H9.15164C8.94131 7.69663 8.77079 7.52611 8.77079 7.31577V5.68402ZM8.77079 8.94755C8.77079 8.73721 8.94131 8.56669 9.15164 8.56669H10.7834C10.9937 8.56669 11.1643 8.73721 11.1643 8.94755V10.5793C11.1643 10.7896 10.9937 10.9602 10.7834 10.9602H9.15164C8.94131 10.9602 8.77079 10.7896 8.77079 10.5793V8.94755ZM5.36534 6.2306C5.51406 6.08189 5.75522 6.08189 5.90395 6.2306L6.21159 6.53821L7.09607 5.6537C7.24481 5.50499 7.48592 5.50494 7.63468 5.6537C7.78342 5.80241 7.78342 6.04355 7.63471 6.19231L6.48093 7.34614C6.40951 7.41756 6.31262 7.4577 6.21161 7.4577C6.11061 7.4577 6.01374 7.41759 5.94232 7.34614L5.36537 6.76919C5.21661 6.62047 5.21661 6.37931 5.36534 6.2306ZM1.83572 5.68402C1.83572 5.47368 2.00624 5.30316 2.21658 5.30316H3.84838C4.05872 5.30316 4.22924 5.47368 4.22924 5.68402V7.31577C4.22924 7.52611 4.05872 7.69663 3.84838 7.69663H2.21658C2.00624 7.69663 1.83572 7.52611 1.83572 7.31577V5.68402ZM1.83572 8.94755C1.83572 8.73721 2.00624 8.56669 2.21658 8.56669H3.84838C4.05872 8.56669 4.22924 8.73721 4.22924 8.94755V10.5793C4.22924 10.7896 4.05872 10.9602 3.84838 10.9602H2.21658C2.00624 10.9602 1.83572 10.7896 1.83572 10.5793V8.94755Z" fill="white"/>
<path d="M9.53251 6.06494H10.4025V6.93498H9.53251V6.06494Z" fill="white"/>
</svg>
