<svg width="42" height="42" viewBox="0 0 42 42" fill="none" xmlns="http://www.w3.org/2000/svg">
<rect width="42" height="42" rx="12" fill="#34A853" fill-opacity="0.1"/>
<path d="M27 12.75H25.75V12C25.75 11.586 25.414 11.25 25 11.25C24.586 11.25 24.25 11.586 24.25 12V12.75H17.75V12C17.75 11.586 17.414 11.25 17 11.25C16.586 11.25 16.25 11.586 16.25 12V12.75H15C12.582 12.75 11.25 14.082 11.25 16.5V27C11.25 29.418 12.582 30.75 15 30.75H27C29.418 30.75 30.75 29.418 30.75 27V16.5C30.75 14.082 29.418 12.75 27 12.75ZM15 14.25H16.25V15C16.25 15.414 16.586 15.75 17 15.75C17.414 15.75 17.75 15.414 17.75 15V14.25H24.25V15C24.25 15.414 24.586 15.75 25 15.75C25.414 15.75 25.75 15.414 25.75 15V14.25H27C28.577 14.25 29.25 14.923 29.25 16.5V17.25H12.75V16.5C12.75 14.923 13.423 14.25 15 14.25ZM27 29.25H15C13.423 29.25 12.75 28.577 12.75 27V18.75H29.25V27C29.25 28.577 28.577 29.25 27 29.25ZM18.02 22C18.02 22.552 17.573 23 17.02 23C16.468 23 16.0149 22.552 16.0149 22C16.0149 21.448 16.458 21 17.01 21H17.02C17.572 21 18.02 21.448 18.02 22ZM22.02 22C22.02 22.552 21.573 23 21.02 23C20.468 23 20.0149 22.552 20.0149 22C20.0149 21.448 20.458 21 21.01 21H21.02C21.572 21 22.02 21.448 22.02 22ZM26.02 22C26.02 22.552 25.573 23 25.02 23C24.468 23 24.0149 22.552 24.0149 22C24.0149 21.448 24.458 21 25.01 21H25.02C25.572 21 26.02 21.448 26.02 22ZM18.02 26C18.02 26.552 17.573 27 17.02 27C16.468 27 16.0149 26.552 16.0149 26C16.0149 25.448 16.458 25 17.01 25H17.02C17.572 25 18.02 25.448 18.02 26ZM22.02 26C22.02 26.552 21.573 27 21.02 27C20.468 27 20.0149 26.552 20.0149 26C20.0149 25.448 20.458 25 21.01 25H21.02C21.572 25 22.02 25.448 22.02 26ZM26.02 26C26.02 26.552 25.573 27 25.02 27C24.468 27 24.0149 26.552 24.0149 26C24.0149 25.448 24.458 25 25.01 25H25.02C25.572 25 26.02 25.448 26.02 26Z" fill="#00C566"/>
</svg>
