<svg width="20" height="20" viewBox="0 0 20 20" fill="none" xmlns="http://www.w3.org/2000/svg">
<rect x="0.5" y="0.5" width="19" height="19" rx="7.5" fill="#2563EB" stroke="white"/>
<path d="M12.5 7.50016C12.2458 7.50016 12.0125 7.35433 11.8958 7.12933L11.5958 6.52516C11.4041 6.146 10.9041 5.8335 10.4791 5.8335H9.52497C9.0958 5.8335 8.5958 6.146 8.40413 6.52516L8.10413 7.12933C7.98747 7.35433 7.75413 7.50016 7.49997 7.50016C6.5958 7.50016 5.87913 8.26266 5.93747 9.16266L6.15413 12.6043C6.20413 13.4627 6.66663 14.1668 7.81663 14.1668H12.1833C13.3333 14.1668 13.7916 13.4627 13.8458 12.6043L14.0625 9.16266C14.1208 8.26266 13.4041 7.50016 12.5 7.50016ZM9.37497 8.021H10.625C10.7958 8.021 10.9375 8.16266 10.9375 8.3335C10.9375 8.50433 10.7958 8.646 10.625 8.646H9.37497C9.20413 8.646 9.06247 8.50433 9.06247 8.3335C9.06247 8.16266 9.20413 8.021 9.37497 8.021ZM9.99997 12.5502C9.22497 12.5502 8.59163 11.921 8.59163 11.1418C8.59163 10.3627 9.2208 9.7335 9.99997 9.7335C10.7791 9.7335 11.4083 10.3627 11.4083 11.1418C11.4083 11.921 10.775 12.5502 9.99997 12.5502Z" fill="white"/>
</svg>
