<svg width="25" height="24" viewBox="0 0 25 24" fill="none" xmlns="http://www.w3.org/2000/svg">
<path d="M19.5 6.50002H18.22L17.9 5.50002C17.6926 4.91325 17.3077 4.40553 16.7989 4.04718C16.2901 3.68884 15.6824 3.49762 15.06 3.50002H9.94C9.31155 3.5012 8.69933 3.69971 8.18977 4.06753C7.6802 4.43535 7.29901 4.95391 7.1 5.55002L6.78 6.55002H5.5C4.70435 6.55002 3.94129 6.86609 3.37868 7.4287C2.81607 7.99131 2.5 8.75437 2.5 9.55002V17.55C2.5 18.3457 2.81607 19.1087 3.37868 19.6713C3.94129 20.234 4.70435 20.55 5.5 20.55H19.5C20.2956 20.55 21.0587 20.234 21.6213 19.6713C22.1839 19.1087 22.5 18.3457 22.5 17.55V9.55002C22.5066 9.15187 22.4339 8.75638 22.2862 8.38661C22.1384 8.01684 21.9184 7.6802 21.6392 7.39631C21.36 7.11241 21.027 6.88695 20.6597 6.73307C20.2924 6.57919 19.8982 6.49997 19.5 6.50002ZM20.5 17.5C20.5 17.7652 20.3946 18.0196 20.2071 18.2071C20.0196 18.3947 19.7652 18.5 19.5 18.5H5.5C5.23478 18.5 4.98043 18.3947 4.79289 18.2071C4.60536 18.0196 4.5 17.7652 4.5 17.5V9.50002C4.5 9.23481 4.60536 8.98045 4.79289 8.79292C4.98043 8.60538 5.23478 8.50002 5.5 8.50002H7.5C7.71807 8.5114 7.93386 8.4511 8.11443 8.32831C8.295 8.20552 8.43042 8.027 8.5 7.82002L9.04 6.18002C9.10709 5.9814 9.2349 5.80889 9.40537 5.68686C9.57584 5.56484 9.78036 5.49948 9.99 5.50002H15.11C15.3196 5.49948 15.5242 5.56484 15.6946 5.68686C15.8651 5.80889 15.9929 5.9814 16.06 6.18002L16.6 7.82002C16.6642 8.01077 16.7844 8.17771 16.945 8.29903C17.1055 8.42035 17.299 8.4904 17.5 8.50002H19.5C19.7652 8.50002 20.0196 8.60538 20.2071 8.79292C20.3946 8.98045 20.5 9.23481 20.5 9.50002V17.5ZM12.5 8.50002C11.7089 8.50002 10.9355 8.73462 10.2777 9.17414C9.61992 9.61367 9.10723 10.2384 8.80448 10.9693C8.50173 11.7002 8.42252 12.5045 8.57686 13.2804C8.7312 14.0563 9.11216 14.769 9.67157 15.3284C10.231 15.8879 10.9437 16.2688 11.7196 16.4232C12.4956 16.5775 13.2998 16.4983 14.0307 16.1955C14.7616 15.8928 15.3864 15.3801 15.8259 14.7223C16.2654 14.0645 16.5 13.2911 16.5 12.5C16.5 11.4392 16.0786 10.4217 15.3284 9.6716C14.5783 8.92145 13.5609 8.50002 12.5 8.50002ZM12.5 14.5C12.1044 14.5 11.7178 14.3827 11.3889 14.163C11.06 13.9432 10.8036 13.6308 10.6522 13.2654C10.5009 12.8999 10.4613 12.4978 10.5384 12.1098C10.6156 11.7219 10.8061 11.3655 11.0858 11.0858C11.3655 10.8061 11.7219 10.6156 12.1098 10.5385C12.4978 10.4613 12.8999 10.5009 13.2654 10.6523C13.6308 10.8036 13.9432 11.06 14.1629 11.3889C14.3827 11.7178 14.5 12.1045 14.5 12.5C14.5 13.0305 14.2893 13.5392 13.9142 13.9142C13.5391 14.2893 13.0304 14.5 12.5 14.5Z" fill="#415942"/>
</svg>
