<svg width="24" height="25" viewBox="0 0 24 25" fill="none" xmlns="http://www.w3.org/2000/svg">
<path d="M19 7.19533H17.72L17.4 6.19533C17.1926 5.60857 16.8077 5.10084 16.2989 4.7425C15.7901 4.38415 15.1824 4.19294 14.56 4.19533H9.44C8.81155 4.19651 8.19933 4.39502 7.68977 4.76284C7.1802 5.13066 6.79901 5.64922 6.6 6.24534L6.28 7.24534H5C4.20435 7.24534 3.44129 7.56141 2.87868 8.12401C2.31607 8.68662 2 9.44969 2 10.2453V18.2453C2 19.041 2.31607 19.804 2.87868 20.3667C3.44129 20.9293 4.20435 21.2453 5 21.2453H19C19.7956 21.2453 20.5587 20.9293 21.1213 20.3667C21.6839 19.804 22 19.041 22 18.2453V10.2453C22.0066 9.84718 21.9339 9.45169 21.7862 9.08192C21.6384 8.71216 21.4184 8.37551 21.1392 8.09162C20.86 7.80772 20.527 7.58226 20.1597 7.42838C19.7924 7.2745 19.3982 7.19528 19 7.19533ZM20 18.1953C20 18.4606 19.8946 18.7149 19.7071 18.9024C19.5196 19.09 19.2652 19.1953 19 19.1953H5C4.73478 19.1953 4.48043 19.09 4.29289 18.9024C4.10536 18.7149 4 18.4606 4 18.1953V10.1953C4 9.93012 4.10536 9.67576 4.29289 9.48823C4.48043 9.30069 4.73478 9.19533 5 9.19533H7C7.21807 9.20672 7.43386 9.14641 7.61443 9.02362C7.795 8.90083 7.93042 8.72232 8 8.51534L8.54 6.87533C8.60709 6.67671 8.7349 6.5042 8.90537 6.38218C9.07584 6.26015 9.28036 6.19479 9.49 6.19533H14.61C14.8196 6.19479 15.0242 6.26015 15.1946 6.38218C15.3651 6.5042 15.4929 6.67671 15.56 6.87533L16.1 8.51534C16.1642 8.70608 16.2844 8.87302 16.445 8.99435C16.6055 9.11567 16.799 9.18571 17 9.19533H19C19.2652 9.19533 19.5196 9.30069 19.7071 9.48823C19.8946 9.67576 20 9.93012 20 10.1953V18.1953ZM12 9.19533C11.2089 9.19533 10.4355 9.42993 9.77772 9.86946C9.11992 10.309 8.60723 10.9337 8.30448 11.6646C8.00173 12.3955 7.92252 13.1998 8.07686 13.9757C8.2312 14.7516 8.61216 15.4644 9.17157 16.0238C9.73098 16.5832 10.4437 16.9641 11.2196 17.1185C11.9956 17.2728 12.7998 17.1936 13.5307 16.8909C14.2616 16.5881 14.8864 16.0754 15.3259 15.4176C15.7654 14.7598 16 13.9865 16 13.1953C16 12.1345 15.5786 11.1171 14.8284 10.3669C14.0783 9.61676 13.0609 9.19533 12 9.19533ZM12 15.1953C11.6044 15.1953 11.2178 15.078 10.8889 14.8583C10.56 14.6385 10.3036 14.3262 10.1522 13.9607C10.0009 13.5952 9.96126 13.1931 10.0384 12.8052C10.1156 12.4172 10.3061 12.0608 10.5858 11.7811C10.8655 11.5014 11.2219 11.3109 11.6098 11.2338C11.9978 11.1566 12.3999 11.1962 12.7654 11.3476C13.1308 11.499 13.4432 11.7553 13.6629 12.0842C13.8827 12.4131 14 12.7998 14 13.1953C14 13.7258 13.7893 14.2345 13.4142 14.6095C13.0391 14.9846 12.5304 15.1953 12 15.1953Z" fill="#226CEB"/>
</svg>
