<svg width="33" height="33" viewBox="0 0 33 33" fill="none" xmlns="http://www.w3.org/2000/svg">
<circle cx="16.6571" cy="16.6573" r="15.3029" fill="#543AF8" stroke="white" stroke-width="2.08"/>
<g clip-path="url(#clip0_269_900)">
<path d="M11.8903 13.2528H12.5712C12.9324 13.2528 13.2788 13.1093 13.5343 12.8539C13.7897 12.5985 13.9331 12.2521 13.9331 11.8909C13.9331 11.7103 14.0049 11.5371 14.1326 11.4094C14.2603 11.2817 14.4335 11.21 14.6141 11.21H18.6998C18.8804 11.21 19.0536 11.2817 19.1813 11.4094C19.309 11.5371 19.3808 11.7103 19.3808 11.8909C19.3808 12.2521 19.5243 12.5985 19.7797 12.8539C20.0351 13.1093 20.3815 13.2528 20.7427 13.2528H21.4236C21.7848 13.2528 22.1312 13.3963 22.3866 13.6517C22.642 13.9071 22.7855 14.2535 22.7855 14.6147V20.7433C22.7855 21.1045 22.642 21.4509 22.3866 21.7063C22.1312 21.9617 21.7848 22.1052 21.4236 22.1052H11.8903C11.5291 22.1052 11.1827 21.9617 10.9273 21.7063C10.6719 21.4509 10.5284 21.1045 10.5284 20.7433V14.6147C10.5284 14.2535 10.6719 13.9071 10.9273 13.6517C11.1827 13.3963 11.5291 13.2528 11.8903 13.2528" stroke="white" stroke-width="1.56" stroke-linecap="round" stroke-linejoin="round"/>
<path d="M16.657 19.3811C17.7852 19.3811 18.6999 18.4665 18.6999 17.3383C18.6999 16.21 17.7852 15.2954 16.657 15.2954C15.5288 15.2954 14.6141 16.21 14.6141 17.3383C14.6141 18.4665 15.5288 19.3811 16.657 19.3811Z" stroke="white" stroke-width="1.56" stroke-linecap="round" stroke-linejoin="round"/>
</g>
<defs>
<clipPath id="clip0_269_900">
<rect width="16.3429" height="16.3429" fill="white" transform="translate(8.48553 8.48584)"/>
</clipPath>
</defs>
</svg>
