<svg width="61" height="60" viewBox="0 0 61 60" fill="none" xmlns="http://www.w3.org/2000/svg">
<rect x="0.5" width="60" height="60" rx="30" fill="#F75555" fill-opacity="0.08"/>
<path fill-rule="evenodd" clip-rule="evenodd" d="M25.448 18.3325H35.563C39.518 18.3325 42.1663 21.1092 42.1663 25.2392V34.772C42.1663 38.8904 39.518 41.6659 35.563 41.6659H25.448C21.493 41.6659 18.833 38.8904 18.833 34.772V25.2392C18.833 21.1092 21.493 18.3325 25.448 18.3325ZM34.0113 33.4992C34.408 33.1037 34.408 32.462 34.0113 32.0654L31.9347 29.9887L34.0113 27.9109C34.408 27.5154 34.408 26.862 34.0113 26.4654C33.6147 26.0675 32.973 26.0675 32.5647 26.4654L30.4997 28.5409L28.423 26.4654C28.0147 26.0675 27.373 26.0675 26.9763 26.4654C26.5797 26.862 26.5797 27.5154 26.9763 27.9109L29.053 29.9887L26.9763 32.0537C26.5797 32.462 26.5797 33.1037 26.9763 33.4992C27.1747 33.6975 27.443 33.8037 27.6997 33.8037C27.968 33.8037 28.2247 33.6975 28.423 33.4992L30.4997 31.4354L32.5763 33.4992C32.7747 33.7104 33.0313 33.8037 33.288 33.8037C33.5563 33.8037 33.813 33.6975 34.0113 33.4992Z" fill="url(#paint0_linear_6_3271)"/>
<defs>
<linearGradient id="paint0_linear_6_3271" x1="42.1663" y1="41.6659" x2="14.4018" y2="33.6158" gradientUnits="userSpaceOnUse">
<stop stop-color="#FF4D67"/>
<stop offset="1" stop-color="#FF8A9B"/>
</linearGradient>
</defs>
</svg>
