<svg width="31" height="31" viewBox="0 0 31 31" fill="none" xmlns="http://www.w3.org/2000/svg">
<g clip-path="url(#clip0_2017_3350)">
<path d="M20.6081 9.93776C26.2685 9.8513 30.8884 14.3064 30.998 19.9664C31.0141 20.7974 30.931 21.6062 30.7599 22.3821C30.4702 23.6957 30.2979 25.0326 30.2979 26.3778V28.9782C30.2979 29.3766 29.975 29.6996 29.5766 29.6996H26.9762C25.6309 29.6996 24.2941 29.8718 22.9804 30.1616C22.2046 30.3327 21.3958 30.4158 20.5648 30.3997C14.9049 30.2901 10.4498 25.6703 10.5361 20.01C10.6203 14.4851 15.0832 10.0222 20.6081 9.93776Z" fill="url(#paint0_linear_2017_3350)"/>
<path d="M20.6081 9.93776C26.2685 9.8513 30.8884 14.3064 30.998 19.9664C31.0141 20.7974 30.931 21.6062 30.7599 22.3821C30.4702 23.6957 30.2979 25.0326 30.2979 26.3778V28.9782C30.2979 29.3766 29.975 29.6996 29.5766 29.6996H26.9762C25.6309 29.6996 24.2941 29.8718 22.9804 30.1616C22.2046 30.3327 21.3958 30.4158 20.5648 30.3997C14.9049 30.2901 10.4498 25.6703 10.5361 20.01C10.6203 14.4851 15.0832 10.0222 20.6081 9.93776Z" fill="url(#paint1_linear_2017_3350)"/>
<path d="M12.6602 0.599897C5.76429 0.494545 0.135919 5.92202 0.00235256 12.8174C-0.017204 13.8297 0.0839696 14.8152 0.292493 15.7604C0.64548 17.3608 0.855335 18.9894 0.855335 20.6283V23.7963C0.855335 24.2816 1.24877 24.6751 1.73417 24.6751H4.9021C6.54098 24.6751 8.16963 24.885 9.77006 25.2379C10.7152 25.4464 11.7007 25.5476 12.7129 25.528C19.6082 25.3945 25.0357 19.7663 24.9306 12.8705C24.8279 6.13974 19.3909 0.702645 12.6602 0.599897Z" fill="url(#paint2_linear_2017_3350)"/>
<path d="M8.00385 12.3963C7.65171 12.0221 7.15329 11.7871 6.5988 11.7871C5.53239 11.7871 4.66791 12.6516 4.66791 13.718C4.66791 14.2724 4.90283 14.7709 5.27707 15.1231L9.44232 19.2883C9.79452 19.6625 10.2929 19.8975 10.8474 19.8975C11.9138 19.8975 12.7783 19.033 12.7783 17.9666C12.7783 17.4121 12.5433 16.9137 12.1691 16.5615L8.00385 12.3963Z" fill="url(#paint3_linear_2017_3350)"/>
<path d="M6.59874 15.6487C7.66515 15.6487 8.52964 14.7842 8.52964 13.7178C8.52964 12.6514 7.66515 11.7869 6.59874 11.7869C5.53234 11.7869 4.66785 12.6514 4.66785 13.7178C4.66785 14.7842 5.53234 15.6487 6.59874 15.6487Z" fill="white"/>
<path d="M13.4646 12.3963C13.1124 12.0221 12.614 11.7871 12.0595 11.7871C10.9931 11.7871 10.1286 12.6516 10.1286 13.718C10.1286 14.2724 10.3636 14.7709 10.7378 15.1231L14.903 19.2883C15.2552 19.6625 15.7537 19.8975 16.3081 19.8975C17.3745 19.8975 18.239 19.033 18.239 17.9666C18.239 17.4121 18.004 16.9137 17.6298 16.5615L13.4646 12.3963Z" fill="url(#paint4_linear_2017_3350)"/>
<path d="M12.0596 15.6487C13.126 15.6487 13.9905 14.7842 13.9905 13.7178C13.9905 12.6514 13.126 11.7869 12.0596 11.7869C10.9932 11.7869 10.1287 12.6514 10.1287 13.7178C10.1287 14.7842 10.9932 15.6487 12.0596 15.6487Z" fill="white"/>
<path d="M18.9252 12.3963C18.5731 12.0221 18.0746 11.7871 17.5202 11.7871C16.4537 11.7871 15.5893 12.6516 15.5893 13.718C15.5893 14.2724 15.8242 14.7709 16.1984 15.1231L20.3637 19.2883C20.7159 19.6625 21.2143 19.8975 21.7687 19.8975C22.8351 19.8975 23.6996 19.033 23.6996 17.9666C23.6996 17.4121 23.4646 16.9137 23.0905 16.5615L18.9252 12.3963Z" fill="url(#paint5_linear_2017_3350)"/>
<path d="M17.5205 15.6487C18.5869 15.6487 19.4514 14.7842 19.4514 13.7178C19.4514 12.6514 18.5869 11.7869 17.5205 11.7869C16.4541 11.7869 15.5896 12.6514 15.5896 13.7178C15.5896 14.7842 16.4541 15.6487 17.5205 15.6487Z" fill="white"/>
</g>
<defs>
<linearGradient id="paint0_linear_2017_3350" x1="18.7019" y1="18.1041" x2="33.725" y2="33.1272" gradientUnits="userSpaceOnUse">
<stop stop-color="#A7F3CE"/>
<stop offset="1" stop-color="#61DB99"/>
</linearGradient>
<linearGradient id="paint1_linear_2017_3350" x1="23.6196" y1="23.0217" x2="17.2386" y2="16.6413" gradientUnits="userSpaceOnUse">
<stop stop-color="#61DB99" stop-opacity="0"/>
<stop offset="1" stop-color="#009E74"/>
</linearGradient>
<linearGradient id="paint2_linear_2017_3350" x1="7.91158" y1="11.049" x2="23.7729" y2="26.9103" gradientUnits="userSpaceOnUse">
<stop stop-color="#62E1FB"/>
<stop offset="1" stop-color="#00A2F3"/>
</linearGradient>
<linearGradient id="paint3_linear_2017_3350" x1="10.8941" y1="18.0137" x2="2.5429" y2="9.66274" gradientUnits="userSpaceOnUse">
<stop stop-color="#00A2F3" stop-opacity="0"/>
<stop offset="1" stop-color="#0075CD"/>
</linearGradient>
<linearGradient id="paint4_linear_2017_3350" x1="16.3545" y1="18.0135" x2="8.00349" y2="9.66253" gradientUnits="userSpaceOnUse">
<stop stop-color="#00A2F3" stop-opacity="0"/>
<stop offset="1" stop-color="#0075CD"/>
</linearGradient>
<linearGradient id="paint5_linear_2017_3350" x1="21.8151" y1="18.0136" x2="13.4641" y2="9.66262" gradientUnits="userSpaceOnUse">
<stop stop-color="#00A2F3" stop-opacity="0"/>
<stop offset="1" stop-color="#0075CD"/>
</linearGradient>
<clipPath id="clip0_2017_3350">
<rect width="31" height="31" fill="white"/>
</clipPath>
</defs>
</svg>
