<svg width="27" height="21" viewBox="0 0 27 21" fill="none" xmlns="http://www.w3.org/2000/svg">
<path d="M9.20463 3.16258C9.21284 3.51728 9.15007 3.87003 9.02001 4.20012C8.88994 4.53021 8.69521 4.83098 8.44726 5.08474C8.1993 5.3385 7.90313 5.54014 7.57614 5.6778C7.24914 5.81547 6.89793 5.88639 6.54314 5.88639C6.18835 5.88639 5.83714 5.81547 5.51015 5.6778C5.18316 5.54014 4.88698 5.3385 4.63902 5.08474C4.39107 4.83098 4.19634 4.53021 4.06628 4.20012C3.93621 3.87003 3.87344 3.51728 3.88165 3.16258C3.89308 2.46416 4.17856 1.79821 4.6765 1.30835C5.17445 0.81848 5.84498 0.543945 6.5435 0.543945C7.24201 0.543945 7.91254 0.81848 8.41049 1.30835C8.90844 1.79821 9.19391 2.46416 9.20534 3.16258H9.20463Z" fill="url(#paint0_linear_92_59)"/>
<path fill-rule="evenodd" clip-rule="evenodd" d="M3.42678 11.9042C3.22635 12.2249 2.90673 12.4528 2.53823 12.5378C2.16974 12.6229 1.78255 12.558 1.46186 12.3576C1.14116 12.1572 0.913225 11.8376 0.828188 11.4691C0.743151 11.1006 0.80798 10.7134 1.00841 10.3927L1.01127 10.3884L1.01626 10.3806L1.03337 10.3535C1.12381 10.2109 1.21674 10.07 1.31214 9.93069C1.54338 9.58963 1.78641 9.25671 2.04078 8.93254C2.32526 8.57321 2.67461 8.16753 3.04392 7.83814C3.22858 7.67345 3.45102 7.49806 3.7027 7.3569C3.9394 7.22428 4.30943 7.0603 4.76216 7.0603H8.32412C8.77685 7.0603 9.14688 7.22428 9.38429 7.3569C9.63526 7.49806 9.85841 7.67345 10.0424 7.83814C10.4117 8.16753 10.7617 8.57321 11.0455 8.93325C11.4045 9.38974 11.7408 9.86372 12.0529 10.3535L12.0707 10.3806L12.0757 10.3877L12.0779 10.392C12.0529 10.3535 12.0779 10.392 12.0779 10.392C12.2728 10.7124 12.3336 11.0968 12.2471 11.4618C12.1606 11.8268 11.9338 12.143 11.6158 12.3419C11.2978 12.5409 10.9142 12.6065 10.5481 12.5245C10.1821 12.4426 9.86307 12.2197 9.66021 11.9042L9.65807 11.9013L9.64666 11.8835C9.61104 11.8273 9.57491 11.7715 9.53829 11.7159V13.4869L10.0538 18.9019C10.0862 19.271 9.97364 19.6382 9.73999 19.9258C9.50634 20.2134 9.16993 20.3987 8.802 20.4425C8.43408 20.4864 8.06354 20.3853 7.76887 20.1606C7.47419 19.936 7.27852 19.6055 7.2233 19.2391L6.49537 14.1486L5.76815 19.2391C5.71608 19.6083 5.52147 19.9424 5.22602 20.1699C4.93057 20.3973 4.55778 20.5 4.18754 20.4559C3.8173 20.4118 3.47906 20.2244 3.24531 19.934C3.01155 19.6435 2.90087 19.273 2.93698 18.9019L3.53587 12.6207H3.5487V11.7152C3.51191 11.771 3.47554 11.8271 3.43962 11.8835L3.42892 11.9013L3.42678 11.9042Z" fill="url(#paint1_linear_92_59)"/>
<path d="M23.4642 3.16184C23.4642 3.86781 23.1837 4.54486 22.6845 5.04405C22.1853 5.54324 21.5083 5.82369 20.8023 5.82369C20.0964 5.82369 19.4193 5.54324 18.9201 5.04405C18.4209 4.54486 18.1405 3.86781 18.1405 3.16184C18.1405 2.45588 18.4209 1.77883 18.9201 1.27964C19.4193 0.780443 20.0964 0.5 20.8023 0.5C21.5083 0.5 22.1853 0.780443 22.6845 1.27964C23.1837 1.77883 23.4642 2.45588 23.4642 3.16184Z" fill="url(#paint2_linear_92_59)"/>
<path fill-rule="evenodd" clip-rule="evenodd" d="M17.6896 11.7544C17.4879 12.0698 17.1702 12.2932 16.8052 12.3764C16.4402 12.4596 16.0571 12.3958 15.7386 12.199C15.4202 12.0021 15.1919 11.6879 15.1032 11.3242C15.0144 10.9605 15.0722 10.5765 15.2641 10.2551L15.2663 10.2508L15.272 10.243L15.2884 10.2159L15.349 10.1203C15.6414 9.66522 15.9537 9.22323 16.2851 8.79565C16.566 8.43631 16.9125 8.02993 17.2775 7.69982C17.4608 7.53513 17.6818 7.35832 17.932 7.21715C18.1673 7.08311 18.538 6.91699 18.9929 6.91699H22.5164C22.9712 6.91699 23.342 7.08311 23.578 7.21644C23.8275 7.35903 24.0485 7.53513 24.2318 7.69982C24.5975 8.02993 24.9433 8.43631 25.2242 8.79565C25.5795 9.25219 25.9122 9.72593 26.2209 10.2152L26.238 10.243L26.2452 10.2551C26.4441 10.5767 26.5071 10.9642 26.4203 11.3323C26.3335 11.7004 26.1041 12.0189 25.7825 12.2179C25.4608 12.4168 25.0733 12.4798 24.7052 12.393C24.3371 12.3062 24.0186 12.0768 23.8197 11.7552L23.8175 11.7516L23.8068 11.7338C23.6996 11.5648 23.589 11.3979 23.4753 11.2333C23.809 12.8945 24.4663 15.1731 24.81 16.3252C24.8386 16.4188 24.8476 16.5173 24.8362 16.6145C24.8249 16.7117 24.7935 16.8054 24.744 16.8899C24.6946 16.9743 24.6281 17.0476 24.5489 17.105C24.4697 17.1624 24.3794 17.2028 24.2838 17.2236C21.7621 17.749 19.9968 17.7355 17.2583 17.2136C17.16 17.1942 17.0669 17.1544 16.9851 17.0966C16.9033 17.0389 16.8346 16.9645 16.7834 16.8784C16.7323 16.7923 16.6999 16.6963 16.6883 16.5968C16.6768 16.4973 16.6864 16.3965 16.7164 16.301C17.0765 15.1431 17.7459 12.8888 18.0632 11.1905C17.9395 11.3692 17.8192 11.5504 17.7025 11.7338L17.6918 11.7516L17.6896 11.7544ZM17.6176 18.4328V19.3938C17.6179 19.653 17.7122 19.9032 17.8831 20.098C18.0541 20.2928 18.2899 20.419 18.5468 20.4529C18.8037 20.4869 19.0642 20.4265 19.2799 20.2828C19.4956 20.1391 19.6518 19.922 19.7194 19.6719L20.001 18.6281C19.204 18.5998 18.4087 18.5346 17.6176 18.4328ZM21.6494 18.6253L21.9325 19.6726C22.0001 19.9228 22.1564 20.14 22.3721 20.2836C22.5879 20.4273 22.8485 20.4877 23.1054 20.4536C23.3624 20.4195 23.5982 20.2933 23.7691 20.0983C23.9399 19.9034 24.0342 19.653 24.0343 19.3938V18.4228C23.2427 18.5254 22.447 18.5927 21.6494 18.6245V18.6253Z" fill="url(#paint3_linear_92_59)"/>
<defs>
<linearGradient id="paint0_linear_92_59" x1="9.20534" y1="5.88639" x2="2.86647" y2="4.0547" gradientUnits="userSpaceOnUse">
<stop stop-color="#246BFD"/>
<stop offset="1" stop-color="#5089FF"/>
</linearGradient>
<linearGradient id="paint1_linear_92_59" x1="12.2856" y1="20.4659" x2="-1.67796" y2="16.9947" gradientUnits="userSpaceOnUse">
<stop stop-color="#246BFD"/>
<stop offset="1" stop-color="#5089FF"/>
</linearGradient>
<linearGradient id="paint2_linear_92_59" x1="23.4642" y1="5.82369" x2="17.1295" y2="3.987" gradientUnits="userSpaceOnUse">
<stop stop-color="#246BFD"/>
<stop offset="1" stop-color="#5089FF"/>
</linearGradient>
<linearGradient id="paint3_linear_92_59" x1="26.4584" y1="20.4629" x2="12.5839" y2="17.0786" gradientUnits="userSpaceOnUse">
<stop stop-color="#246BFD"/>
<stop offset="1" stop-color="#5089FF"/>
</linearGradient>
</defs>
</svg>
