<svg width="17" height="16" viewBox="0 0 17 16" fill="none" xmlns="http://www.w3.org/2000/svg">
<g clip-path="url(#clip0_728_2039)">
<path d="M8.5 0C6.58434 0 5.02634 1.55867 5.02634 3.47467C5.02634 5.39133 6.58467 6.95033 8.5 6.95033C10.4153 6.95033 11.974 5.39133 11.974 3.47467C11.974 1.55867 10.4153 0 8.5 0Z" fill="#2563EB"/>
<path d="M11.1843 7.93079C11.308 8.46579 11.5033 9.43845 11.4383 10.0025C11.9493 10.4555 13.29 11.7908 12.9983 13.1085C12.9963 13.1241 12.8583 13.8818 11.9183 14.2035C11.8827 14.2158 11.846 14.2218 11.8103 14.2218C11.6717 14.2218 11.5427 14.1345 11.4953 13.9958C11.4353 13.8215 11.5287 13.6318 11.703 13.5725C12.2623 13.3811 12.3437 12.9845 12.345 12.9808C12.5443 12.0771 11.5443 10.9801 10.9883 10.4925C10.323 10.8155 9.06501 11.6078 9.01634 12.5151C9.01434 12.5431 8.99367 12.9448 9.47467 13.2721C9.62701 13.3758 9.66667 13.5835 9.56267 13.7358C9.49834 13.8301 9.39334 13.8818 9.28734 13.8818C9.22234 13.8818 9.15701 13.8628 9.09967 13.8238C8.27734 13.2645 8.34834 12.4951 8.35134 12.4625C8.42701 11.0541 10.2677 10.0945 10.7813 9.85312C10.812 9.35312 10.6043 8.32045 10.4513 7.73712C10.4467 7.71879 10.45 7.70112 10.448 7.68279C9.96301 7.55079 9.45467 7.47412 8.92767 7.47412H8.07201C7.48201 7.47412 6.91267 7.56412 6.37567 7.72845C6.37001 7.75212 6.36867 7.77679 6.35701 7.79979C6.34967 7.81479 5.62801 9.31279 5.28301 11.6038C5.86267 11.7638 6.29201 12.2901 6.29201 12.9195C6.29201 13.6748 5.67734 14.2891 4.92234 14.2891C4.16667 14.2891 3.55201 13.6745 3.55201 12.9195C3.55201 12.2718 4.00567 11.7301 4.61134 11.5888C4.84567 9.97479 5.25434 8.74579 5.51567 8.07512C3.59301 9.02312 2.26367 10.9988 2.26367 13.2841V15.6665C2.26367 15.8508 2.41267 15.9998 2.59701 15.9998H14.4043C14.5887 15.9998 14.7377 15.8461 14.7377 15.6618V13.2841C14.737 10.8808 13.2703 8.81345 11.1843 7.93079Z" fill="#2563EB"/>
</g>
<defs>
<clipPath id="clip0_728_2039">
<rect width="16" height="16" fill="white" transform="translate(0.5)"/>
</clipPath>
</defs>
</svg>
