<svg width="24" height="24" viewBox="0 0 24 24" fill="none" xmlns="http://www.w3.org/2000/svg">
<path fill-rule="evenodd" clip-rule="evenodd" d="M2 12.0558C2 17.0279 5.61111 21.162 10.3333 22V14.7777H7.83333V12H10.3333V9.77777C10.3333 7.27777 11.9444 5.88888 14.2222 5.88888C14.9444 5.88888 15.7222 5.99999 16.4444 6.1111V8.66666H15.1667C13.9444 8.66666 13.6667 9.27777 13.6667 10.0555V12H16.3333L15.8889 14.7777H13.6667V22C18.3889 21.162 22 17.0279 22 12.0558C22 6.52514 17.5 2 12 2C6.5 2 2 6.52514 2 12.0558H2Z" fill="#1877F2"/>
</svg>
