<svg width="16" height="14" viewBox="0 0 16 14" fill="none" xmlns="http://www.w3.org/2000/svg">
<path d="M15.9775 7.78338C15.9775 7.7833 15.9775 7.78326 15.9774 7.78318L12.9566 0.198056C12.8925 0.0368913 12.7098 -0.0417867 12.5486 0.0223257C12.5485 0.0223649 12.5484 0.0224042 12.5483 0.0224827L0.29304 4.9024C0.243062 4.924 0.199718 4.95847 0.167407 5.00228C0.0654865 5.05524 0.00109929 5.16007 0 5.27491V13.4411C0 13.6145 0.140631 13.7552 0.314084 13.7552H13.5056C13.6791 13.7552 13.8197 13.6145 13.8197 13.4411V8.9811L15.8022 8.19149C15.9633 8.12722 16.0418 7.9445 15.9775 7.78338ZM13.1915 13.127H0.628168V5.58899H13.1915V13.127ZM5.24049 4.96239L10.4995 2.86683C10.9689 3.36017 11.6192 3.64057 12.3002 3.64324L12.8247 4.96239H5.24049ZM13.8197 8.30644V5.27491C13.8197 5.10145 13.6791 4.96082 13.5056 4.96082H13.5006L12.835 3.28927C12.8277 3.27533 12.8191 3.26206 12.8093 3.24969C12.7756 3.09842 12.6355 2.99521 12.4811 3.00785C11.8475 3.0656 11.2277 2.79871 10.8343 2.29865C10.7364 2.17784 10.5644 2.14781 10.4314 2.22829C10.4164 2.23006 10.4016 2.23281 10.3871 2.23646L3.96656 4.7931C3.88887 4.82357 3.82672 4.88399 3.79413 4.96082H1.8443L12.4892 0.722262L15.278 7.72476L13.8197 8.30644Z" fill="#246BFD"/>
<path d="M1.48059 11.0065C2.09038 11.1868 2.56755 11.6633 2.74855 12.2729C2.78824 12.4059 2.91061 12.4971 3.04944 12.4971C3.06573 12.4961 3.08191 12.4937 3.09781 12.4899C3.1119 12.4939 3.12631 12.4969 3.14084 12.4987H10.6788C10.6918 12.497 10.7046 12.4944 10.7172 12.4909C10.8741 12.529 11.0322 12.4328 11.0704 12.2759C11.0705 12.2753 11.0707 12.2747 11.0708 12.2741C11.2513 11.664 11.7286 11.1867 12.3388 11.0062C12.4868 10.961 12.5787 10.8135 12.5542 10.6607C12.5584 10.6455 12.5615 10.6299 12.5634 10.6142V8.10154C12.5615 8.0858 12.5584 8.07025 12.5539 8.05506C12.5785 7.90222 12.4866 7.75468 12.3385 7.70957C11.7283 7.52909 11.2511 7.05164 11.0711 6.4413C11.0257 6.2923 10.8768 6.20012 10.7231 6.22584C10.7086 6.22179 10.6938 6.21885 10.6788 6.21704H3.14084C3.12501 6.21893 3.10935 6.22207 3.09404 6.22646C2.94127 6.20212 2.79389 6.29403 2.74855 6.44192C2.56791 7.05199 2.0907 7.52909 1.48059 7.70957C1.33262 7.7548 1.24067 7.90226 1.26513 8.05506C1.26104 8.07033 1.2581 8.08584 1.25633 8.10154V10.6142C1.25814 10.629 1.26108 10.6436 1.26513 10.6579C1.23937 10.8117 1.33152 10.9608 1.48059 11.0065ZM1.8845 8.22906C2.51518 7.97575 3.01505 7.47589 3.26835 6.84521H10.551C10.8044 7.47589 11.3044 7.97575 11.9352 8.22906V10.4867C11.3047 10.7403 10.8049 11.2401 10.5513 11.8706H3.26835C3.01477 11.2401 2.51498 10.7403 1.8845 10.4867V8.22906Z" fill="#246BFD"/>
<path d="M6.90984 11.2426C7.95064 11.2426 8.79434 10.3989 8.79434 9.35814C8.79434 8.31734 7.95064 7.47363 6.90984 7.47363C5.86904 7.47363 5.02534 8.31734 5.02534 9.35814C5.02636 10.3985 5.86948 11.2416 6.90984 11.2426ZM6.90984 8.1018C7.60369 8.1018 8.16618 8.66429 8.16618 9.35814C8.16618 10.052 7.60369 10.6145 6.90984 10.6145C6.21599 10.6145 5.6535 10.052 5.6535 9.35814C5.6535 8.66429 6.21599 8.1018 6.90984 8.1018Z" fill="#246BFD"/>
<path d="M3.45492 9.82921C3.7151 9.82921 3.92605 9.61827 3.92605 9.35809C3.92605 9.09791 3.7151 8.88696 3.45492 8.88696C3.19474 8.88696 2.9838 9.09791 2.9838 9.35809C2.9838 9.61831 3.19474 9.82921 3.45492 9.82921ZM3.45492 9.20105C3.54165 9.20105 3.61196 9.27136 3.61196 9.35809C3.61196 9.44482 3.54165 9.51513 3.45492 9.51513C3.36819 9.51513 3.29788 9.44482 3.29788 9.35809C3.29788 9.27136 3.36819 9.20105 3.45492 9.20105Z" fill="#246BFD"/>
<path d="M10.3648 9.82921C10.6249 9.82921 10.8359 9.61827 10.8359 9.35809C10.8359 9.09791 10.6249 8.88696 10.3648 8.88696C10.1046 8.88696 9.89364 9.09791 9.89364 9.35809C9.89364 9.61831 10.1046 9.82921 10.3648 9.82921ZM10.3648 9.20105C10.4515 9.20105 10.5218 9.27136 10.5218 9.35809C10.5218 9.44482 10.4515 9.51513 10.3648 9.51513C10.278 9.51513 10.2077 9.44482 10.2077 9.35809C10.2077 9.27136 10.278 9.20105 10.3648 9.20105Z" fill="#246BFD"/>
</svg>
