<svg width="18" height="20" viewBox="0 0 18 20" fill="none" xmlns="http://www.w3.org/2000/svg">
<g clip-path="url(#clip0_992_2159)">
<path fill-rule="evenodd" clip-rule="evenodd" d="M10.7438 0.105225C11.7563 0.105225 12.7687 0.580225 13.3875 1.47085L16.1438 5.09272C16.5938 5.74585 16.875 6.51772 16.875 7.2896V15.5427C16.875 17.5021 15.3562 19.1052 13.5 19.1052H4.5C2.64375 19.1052 1.125 17.5021 1.125 15.5427V3.66772C1.125 1.70835 2.64375 0.105225 4.5 0.105225H10.7438ZM12.4875 6.8146C11.475 5.74585 9.9 5.6271 8.775 6.5771C8.55 6.75522 8.49375 7.17085 8.6625 7.40835C8.83125 7.64585 9.225 7.70522 9.45 7.5271C10.125 6.99272 11.0813 7.0521 11.6438 7.70522C12.3188 8.41772 12.3188 9.54585 11.6438 10.199L9.675 12.2771L8.71875 13.2865L8.6625 13.3458C7.9875 13.999 6.975 13.9396 6.35625 13.2865C5.7375 12.6334 5.68125 11.5646 6.3 10.8521L6.35625 10.7927L7.65 9.4271L7.70625 9.36772C7.93125 9.1896 8.26875 9.1896 8.4375 9.4271C8.6625 9.6646 8.6625 10.0209 8.4375 10.2583L7.14375 11.624L7.0875 11.6833C6.91875 11.9208 6.91875 12.2771 7.14375 12.4552C7.36875 12.6927 7.70625 12.6927 7.93125 12.4552L9.225 11.0896L9.28125 11.0302C9.84375 10.3177 9.84375 9.24897 9.225 8.59585C8.55 7.88335 7.48125 7.88335 6.8625 8.59585L6.35625 9.13022L6.3 9.1896L5.9625 9.54585L5.56875 9.96147C4.44375 11.149 4.44375 12.9896 5.56875 14.1771C6.69375 15.3646 8.4375 15.3646 9.5625 14.1771L10.8562 12.8115L10.9125 12.7521L12.5437 11.0302L12.6562 10.9115C13.5562 9.78335 13.5563 7.94272 12.4875 6.8146Z" fill="#787C81"/>
</g>
<defs>
<clipPath id="clip0_992_2159">
<rect width="18" height="19" fill="white" transform="translate(0 0.105225)"/>
</clipPath>
</defs>
</svg>
