<svg width="24" height="25" viewBox="0 0 24 25" fill="none" xmlns="http://www.w3.org/2000/svg">
<path d="M20 9.44C19.9896 9.34813 19.9695 9.25763 19.94 9.17V9.08C19.8919 8.97718 19.8278 8.88267 19.75 8.8L13.75 2.8C13.6673 2.72222 13.5728 2.65808 13.47 2.61H13.38L13.06 2.5H7C6.20435 2.5 5.44129 2.81607 4.87868 3.37868C4.31607 3.94129 4 4.70435 4 5.5V19.5C4 20.2956 4.31607 21.0587 4.87868 21.6213C5.44129 22.1839 6.20435 22.5 7 22.5H17C17.7956 22.5 18.5587 22.1839 19.1213 21.6213C19.6839 21.0587 20 20.2956 20 19.5V9.5C20 9.5 20 9.5 20 9.44ZM14 5.91L16.59 8.5H14V5.91ZM18 19.5C18 19.7652 17.8946 20.0196 17.7071 20.2071C17.5196 20.3946 17.2652 20.5 17 20.5H7C6.73478 20.5 6.48043 20.3946 6.29289 20.2071C6.10536 20.0196 6 19.7652 6 19.5V5.5C6 5.23478 6.10536 4.98043 6.29289 4.79289C6.48043 4.60536 6.73478 4.5 7 4.5H12V9.5C12 9.76522 12.1054 10.0196 12.2929 10.2071C12.4804 10.3946 12.7348 10.5 13 10.5H18V19.5Z" fill="url(#paint0_linear_2210_14426)"/>
<defs>
<linearGradient id="paint0_linear_2210_14426" x1="20" y1="22.5486" x2="0.487805" y2="6.93883" gradientUnits="userSpaceOnUse">
<stop stop-color="#69896D"/>
<stop offset="1" stop-color="#425744"/>
</linearGradient>
</defs>
</svg>
