<svg width="48" height="48" viewBox="0 0 48 48" fill="none" xmlns="http://www.w3.org/2000/svg">
<rect width="48" height="48" rx="24" fill="#2563EB"/>
<path d="M18 15.25C15.932 15.25 14.25 16.932 14.25 19C14.25 21.068 15.932 22.75 18 22.75C20.068 22.75 21.75 21.068 21.75 19C21.75 16.932 20.068 15.25 18 15.25ZM18 21.25C16.759 21.25 15.75 20.241 15.75 19C15.75 17.759 16.759 16.75 18 16.75C19.241 16.75 20.25 17.759 20.25 19C20.25 20.241 19.241 21.25 18 21.25ZM30 25.25C27.932 25.25 26.25 26.932 26.25 29C26.25 31.068 27.932 32.75 30 32.75C32.068 32.75 33.75 31.068 33.75 29C33.75 26.932 32.068 25.25 30 25.25ZM30 31.25C28.759 31.25 27.75 30.241 27.75 29C27.75 27.759 28.759 26.75 30 26.75C31.241 26.75 32.25 27.759 32.25 29C32.25 30.241 31.241 31.25 30 31.25ZM27 19.75H33C33.414 19.75 33.75 19.414 33.75 19C33.75 18.586 33.414 18.25 33 18.25H27C26.586 18.25 26.25 18.586 26.25 19C26.25 19.414 26.586 19.75 27 19.75ZM21 28.25H15C14.586 28.25 14.25 28.586 14.25 29C14.25 29.414 14.586 29.75 15 29.75H21C21.414 29.75 21.75 29.414 21.75 29C21.75 28.586 21.414 28.25 21 28.25Z" fill="white"/>
</svg>
