<svg width="18" height="24" viewBox="0 0 18 24" fill="none" xmlns="http://www.w3.org/2000/svg">
<path d="M4.59419 14.0357C5.53149 14.1785 6.67563 13.9598 7.92537 13.8839C8.1586 13.9375 8.39183 13.9732 8.63385 13.9732C8.88028 13.9732 9.12231 13.9375 9.36434 13.8795C12.6163 14.0402 15.151 14.9732 15.151 8.25893C15.151 3.70089 12.2335 0 8.63385 0C5.03424 0 2.1167 3.70089 2.1167 8.25893C2.1167 11.9241 2.80758 13.3482 3.92971 13.8437C4.13653 13.942 4.36096 14 4.59419 14.0357ZM3.55567 5.68303C4.23774 6.64286 6.00675 6.4375 7.53373 5.22321C7.92097 4.91518 8.25981 4.5625 8.53264 4.20536C8.56785 4.20982 8.60305 4.21428 8.63825 4.22321C8.78787 4.25 8.92429 4.30357 9.07831 4.35268C9.21477 4.41964 9.36434 4.47321 9.49635 4.55803C9.63281 4.62946 9.75598 4.72768 9.8792 4.8125C9.98921 4.91071 10.1124 5.00446 10.2048 5.11161C10.3016 5.20982 10.3941 5.31696 10.4644 5.41964C10.5436 5.51786 10.6009 5.62053 10.658 5.70982C10.7152 5.79911 10.7636 5.87946 10.7901 5.95089C10.8561 6.08928 10.8956 6.16964 10.8956 6.16964C10.8956 6.16964 10.8824 6.08482 10.8561 5.92857C10.8473 5.84821 10.8253 5.75893 10.7989 5.65178C10.7724 5.54464 10.7416 5.41964 10.6888 5.29464C10.6448 5.16518 10.5832 5.03125 10.5128 4.88839C10.4468 4.74553 10.35 4.60714 10.2576 4.45536C10.1475 4.31696 10.0463 4.16518 9.91431 4.03125C9.7911 3.88839 9.64148 3.76786 9.49626 3.63839C9.35985 3.54018 9.21468 3.43303 9.06066 3.34821C9.12667 3.20982 9.17943 3.06696 9.22343 2.93303C9.7691 3.18303 10.328 3.5 10.7724 3.95089C12.405 5.60714 11.7625 7.53125 13.0211 6.25893C13.2191 6.05803 13.3819 5.84821 13.5096 5.63839C13.5536 5.63839 13.5976 5.63393 13.6328 5.64286C13.8044 5.6875 13.9144 5.82143 13.976 5.92857C14.1476 6.21875 14.1873 6.63839 14.0816 7.05803C13.9232 7.68303 13.5184 8.05357 13.1927 8.09375L12.9287 8.12946L12.8583 8.39286C12.2335 10.692 10.5481 13.1384 8.64266 13.1384C6.73723 13.1384 5.05624 10.692 4.42697 8.39286L4.35656 8.12946L4.09253 8.09375C3.77129 8.04911 3.36204 7.67857 3.20363 7.05803C3.09801 6.63839 3.13762 6.21875 3.30924 5.92857C3.34884 5.84821 3.43685 5.74553 3.55567 5.68303Z" fill="#C5C6C7"/>
<path d="M13.5316 14.6384C13.0211 15.5223 12.427 16.2679 11.6437 16.6786C10.0244 17.5178 8.81866 18.2053 8.81866 18.2053L8.81422 18.2009V18.1874L8.80102 18.1964L8.78782 18.1874V18.2009L8.78342 18.2053C8.78342 18.2053 7.58208 17.5268 5.95829 16.6786C5.175 16.2679 4.58533 15.5223 4.07047 14.6384C1.67219 15.6295 0 17.8973 0 19.8839C0 21.9732 0 24 0 24H8.78342H8.81862H17.602C17.602 24 17.602 21.9732 17.602 19.8839C17.602 17.9018 15.9254 15.6295 13.5316 14.6384Z" fill="#C5C6C7"/>
</svg>
