<svg width="337" height="180" viewBox="0 0 337 180" fill="none" xmlns="http://www.w3.org/2000/svg">
<g clip-path="url(#clip0_11_2230)">
<path d="M26.4513 122.137C16.8989 109.573 -2.20908 107.57 -13.9072 109.092V188.016H133.489V160.621C123.838 135.835 94.8202 143.01 71.1966 143.01C51.8947 143.01 37.857 137.139 26.4513 122.137Z" stroke="#1A53CA" stroke-width="0.8" stroke-linecap="round" stroke-dasharray="3 3"/>
<path d="M24.6967 128.66C15.1442 116.096 -3.96372 114.093 -15.6618 115.615V194.539H131.734V167.144C122.083 142.358 93.0656 149.532 69.442 149.532C50.1401 149.532 36.1023 143.662 24.6967 128.66Z" fill="#1854D0"/>
<path d="M297.398 52.5449C307.887 62.8249 328.869 64.4635 341.714 63.2183L341.714 -1.35564L179.867 -1.35565L179.867 21.0584C190.464 41.3379 222.327 35.4675 248.266 35.4675C269.461 35.4675 284.875 40.2705 297.398 52.5449Z" stroke="#1A53CA" stroke-width="0.8" stroke-linecap="round" stroke-dasharray="3 3"/>
<path d="M299.325 47.2082C309.814 57.4882 330.795 59.1268 343.64 57.8816L343.64 -6.69231L181.793 -6.69232L181.793 15.7218C192.39 36.0012 224.253 30.1308 250.193 30.1308C271.387 30.1308 286.801 34.9338 299.325 47.2082Z" fill="#1854D0"/>
<rect x="171.093" y="104.923" width="24" height="5.84615" rx="2.92308" fill="#326DEB"/>
<rect x="185.862" y="96" width="24" height="5.84615" rx="2.92308" transform="rotate(90 185.862 96)" fill="#326DEB"/>
<rect x="186.093" y="67.4614" width="12" height="2.92308" rx="1.46154" fill="#326DEB"/>
<rect x="193.477" y="63" width="12" height="2.92308" rx="1.46154" transform="rotate(90 193.477 63)" fill="#326DEB"/>
<rect x="102.093" y="57.4614" width="12" height="2.92308" rx="1.46154" fill="#326DEB"/>
<rect x="109.477" y="53" width="12" height="2.92308" rx="1.46154" transform="rotate(90 109.477 53)" fill="#326DEB"/>
<rect x="146.093" y="85.9744" width="8" height="1.94872" rx="0.974359" fill="#326DEB"/>
<rect x="151.016" y="83" width="8" height="1.94872" rx="0.974359" transform="rotate(90 151.016 83)" fill="#326DEB"/>
<rect x="96.0928" y="14" width="78" height="19" rx="9.5" fill="#326DEB"/>
<rect x="144.093" y="-15" width="78" height="19" rx="9.5" transform="rotate(90 144.093 -15)" fill="#326DEB"/>
</g>
<defs>
<clipPath id="clip0_11_2230">
<rect x="0.092804" width="336" height="180" rx="12" fill="white"/>
</clipPath>
</defs>
</svg>
