<svg width="40" height="40" viewBox="0 0 40 40" fill="none" xmlns="http://www.w3.org/2000/svg">
<rect width="40" height="40" rx="20" fill="#DBEAFE"/>
<path d="M20 11.6665C15.3975 11.6665 11.6667 15.3973 11.6667 19.9998C11.6667 24.6023 15.3975 28.3332 20 28.3332C24.6025 28.3332 28.3333 24.6023 28.3333 19.9998C28.3333 15.3973 24.6025 11.6665 20 11.6665ZM20.0167 24.5832C19.5567 24.5832 19.1791 24.2098 19.1791 23.7498C19.1791 23.2898 19.5483 22.9165 20.0083 22.9165H20.0167C20.4775 22.9165 20.85 23.2898 20.85 23.7498C20.85 24.2098 20.4767 24.5832 20.0167 24.5832ZM21.3359 20.4399C20.7267 20.8482 20.6133 21.0757 20.5924 21.1357C20.5049 21.3965 20.2617 21.5615 20 21.5615C19.9342 21.5615 19.8675 21.5515 19.8016 21.529C19.4741 21.419 19.2984 21.0648 19.4075 20.7373C19.5584 20.2873 19.9492 19.8632 20.6392 19.4007C21.4901 18.8307 21.3808 18.2057 21.345 18.0007C21.2508 17.4557 20.7916 16.9914 20.2525 16.8964C19.8425 16.8214 19.4417 16.9289 19.1284 17.1914C18.8134 17.4556 18.6324 17.8448 18.6324 18.2581C18.6324 18.6031 18.3524 18.8831 18.0074 18.8831C17.6624 18.8831 17.3824 18.6031 17.3824 18.2581C17.3824 17.4739 17.7258 16.7365 18.325 16.234C18.9183 15.7373 19.6991 15.5299 20.47 15.6665C21.5258 15.8532 22.3917 16.7256 22.5759 17.7873C22.7592 18.839 22.3184 19.7816 21.3359 20.4399Z" fill="#2563EB"/>
</svg>
