<svg width="21" height="23" viewBox="0 0 21 23" fill="none" xmlns="http://www.w3.org/2000/svg">
<path d="M7.65722 20.3378V17.2711C7.6572 16.491 8.29312 15.8572 9.08101 15.852H11.9671C12.7587 15.852 13.4005 16.4873 13.4005 17.2711V17.2711V20.3473C13.4003 21.0096 13.9343 21.5509 14.603 21.5664H16.5271C18.4451 21.5664 20 20.0271 20 18.1282V18.1282V9.40424C19.9898 8.65723 19.6355 7.95576 19.038 7.49944L12.4577 2.25171C11.3049 1.33797 9.6662 1.33797 8.51342 2.25171L1.96203 7.50896C1.36226 7.96343 1.00739 8.66607 1 9.41377V18.1282C1 20.0271 2.55488 21.5664 4.47291 21.5664H6.39696C7.08235 21.5664 7.63797 21.0163 7.63797 20.3378V20.3378" stroke="#9E9E9E" stroke-width="1.5" stroke-linecap="round" stroke-linejoin="round"/>
</svg>
