<svg width="22" height="22" viewBox="0 0 22 22" fill="none" xmlns="http://www.w3.org/2000/svg">
<g clip-path="url(#clip0_991_2157)">
<path d="M19.267 2.73022H3.07964C1.75224 2.73022 0.67334 3.80913 0.67334 5.13653V16.0739C0.67334 17.4013 1.75224 18.4802 3.07964 18.4802H19.267C20.5944 18.4802 21.6733 17.4013 21.6733 16.0739V5.13653C21.6733 3.80913 20.5944 2.73022 19.267 2.73022ZM7.23584 6.23017C8.44164 6.23017 9.42329 7.21198 9.42329 8.41778C9.42329 9.62341 8.44164 10.6052 7.23584 10.6052C6.03004 10.6052 5.04839 9.62341 5.04839 8.41778C5.04839 7.21198 6.03004 6.23017 7.23584 6.23017ZM11.1733 14.324C11.1733 14.6863 10.8793 14.9803 10.5171 14.9803H3.95459C3.59234 14.9803 3.29834 14.6863 3.29834 14.324V13.8865C3.29834 12.5591 4.37724 11.4802 5.70464 11.4802H8.76704C10.0944 11.4802 11.1733 12.5591 11.1733 13.8865V14.324ZM18.3921 14.9803H13.5796C13.2174 14.9803 12.9234 14.6863 12.9234 14.324C12.9234 13.9618 13.2174 13.6678 13.5796 13.6678H18.3921C18.7543 13.6678 19.0483 13.9618 19.0483 14.324C19.0483 14.6863 18.7543 14.9803 18.3921 14.9803ZM18.3921 11.4802H13.5796C13.2174 11.4802 12.9234 11.1862 12.9234 10.8239C12.9234 10.4617 13.2174 10.1677 13.5796 10.1677H18.3921C18.7543 10.1677 19.0483 10.4617 19.0483 10.8239C19.0483 11.1862 18.7543 11.4802 18.3921 11.4802ZM18.3921 7.98022H13.5796C13.2174 7.98022 12.9234 7.68623 12.9234 7.32397C12.9234 6.96172 13.2174 6.66772 13.5796 6.66772H18.3921C18.7543 6.66772 19.0483 6.96172 19.0483 7.32397C19.0483 7.68623 18.7543 7.98022 18.3921 7.98022Z" fill="#2563EB"/>
</g>
<defs>
<clipPath id="clip0_991_2157">
<rect width="21" height="21" fill="white" transform="translate(0.67334 0.105225)"/>
</clipPath>
</defs>
</svg>
