<svg width="24" height="24" viewBox="0 0 24 24" fill="none" xmlns="http://www.w3.org/2000/svg">
<path fill-rule="evenodd" clip-rule="evenodd" d="M7.20502 0.438922C8.44522 0.381828 8.84065 0.369141 11.9998 0.369141C15.159 0.369141 15.5545 0.382885 16.7936 0.438922C18.0327 0.494958 18.8786 0.692672 19.6187 0.979198C20.3937 1.27207 21.0968 1.72988 21.6783 2.32196C22.2704 2.90241 22.7271 3.60445 23.0189 4.38051C23.3065 5.12061 23.5032 5.96644 23.5603 7.20348C23.6174 8.44579 23.6301 8.84122 23.6301 11.9994C23.6301 15.1585 23.6163 15.554 23.5603 16.7942C23.5042 18.0312 23.3065 18.877 23.0189 19.6171C22.7271 20.3933 22.2696 21.0965 21.6783 21.6778C21.0968 22.2699 20.3937 22.7266 19.6187 23.0184C18.8786 23.306 18.0327 23.5027 16.7957 23.5598C15.5545 23.6169 15.159 23.6296 11.9998 23.6296C8.84065 23.6296 8.44522 23.6158 7.20502 23.5598C5.96799 23.5037 5.12216 23.306 4.38205 23.0184C3.60592 22.7266 2.90271 22.2691 2.32139 21.6778C1.72971 21.097 1.27183 20.3941 0.979686 19.6182C0.69316 18.8781 0.496504 18.0323 0.43941 16.7952C0.382316 15.5529 0.369629 15.1575 0.369629 11.9994C0.369629 8.84016 0.383374 8.44474 0.43941 7.20559C0.495447 5.96644 0.69316 5.12061 0.979686 4.38051C1.27226 3.60454 1.73049 2.90169 2.32245 2.3209C2.90294 1.72935 3.60544 1.27148 4.38099 0.979198C5.1211 0.692672 5.96693 0.496016 7.20396 0.438922H7.20502ZM16.6995 2.53236C15.473 2.47632 15.1051 2.46469 11.9998 2.46469C8.89457 2.46469 8.52664 2.47632 7.30018 2.53236C6.1657 2.58417 5.55036 2.77342 5.14013 2.93307C4.59774 3.14453 4.20971 3.39511 3.80266 3.80217C3.41679 4.17756 3.11984 4.63455 2.93356 5.13964C2.77391 5.54987 2.58466 6.16521 2.53285 7.29969C2.47681 8.52615 2.46518 8.89408 2.46518 11.9994C2.46518 15.1046 2.47681 15.4726 2.53285 16.699C2.58466 17.8335 2.77391 18.4488 2.93356 18.8591C3.11964 19.3634 3.41674 19.8212 3.80266 20.1965C4.17799 20.5824 4.6358 20.8795 5.14013 21.0656C5.55036 21.2253 6.1657 21.4145 7.30018 21.4663C8.52664 21.5224 8.89352 21.534 11.9998 21.534C15.1062 21.534 15.473 21.5224 16.6995 21.4663C17.834 21.4145 18.4493 21.2253 18.8596 21.0656C19.4019 20.8542 19.79 20.6036 20.197 20.1965C20.5829 19.8212 20.88 19.3634 21.0661 18.8591C21.2258 18.4488 21.415 17.8335 21.4668 16.699C21.5229 15.4726 21.5345 15.1046 21.5345 11.9994C21.5345 8.89408 21.5229 8.52615 21.4668 7.29969C21.415 6.16521 21.2258 5.54987 21.0661 5.13964C20.8547 4.59725 20.6041 4.20922 20.197 3.80217C19.8216 3.41633 19.3646 3.11938 18.8596 2.93307C18.4493 2.77342 17.834 2.58417 16.6995 2.53236ZM10.5143 15.5846C11.344 15.93 12.2677 15.9766 13.1279 15.7165C13.9881 15.4564 14.7312 14.9058 15.2305 14.1586C15.7298 13.4114 15.9542 12.5141 15.8653 11.6199C15.7765 10.7257 15.38 9.89003 14.7435 9.25568C14.3378 8.85018 13.8472 8.53969 13.307 8.34656C12.7669 8.15343 12.1906 8.08247 11.6197 8.13877C11.0489 8.19508 10.4976 8.37726 10.0056 8.67219C9.51357 8.96713 9.09307 9.36748 8.77436 9.84443C8.45565 10.3214 8.24665 10.8631 8.16242 11.4305C8.07818 11.9979 8.1208 12.5769 8.2872 13.1259C8.45361 13.6749 8.73966 14.1801 9.12477 14.6053C9.50988 15.0304 9.98446 15.3649 10.5143 15.5846ZM7.77279 7.7723C8.32789 7.21719 8.9869 6.77686 9.71217 6.47644C10.4375 6.17602 11.2148 6.0214 11.9998 6.0214C12.7849 6.0214 13.5622 6.17602 14.2875 6.47644C15.0128 6.77686 15.6718 7.21719 16.2269 7.7723C16.782 8.3274 17.2223 8.98641 17.5228 9.71169C17.8232 10.437 17.9778 11.2143 17.9778 11.9994C17.9778 12.7844 17.8232 13.5617 17.5228 14.287C17.2223 15.0123 16.782 15.6713 16.2269 16.2264C15.1058 17.3475 13.5853 17.9773 11.9998 17.9773C10.4144 17.9773 8.89387 17.3475 7.77279 16.2264C6.6517 15.1053 6.02188 13.5848 6.02188 11.9994C6.02188 10.4139 6.6517 8.89338 7.77279 7.7723ZM19.3036 6.91166C19.4412 6.7819 19.5513 6.62586 19.6275 6.45277C19.7036 6.27968 19.7443 6.09307 19.7471 5.90399C19.7498 5.7149 19.7146 5.52719 19.6435 5.35196C19.5724 5.17672 19.4669 5.01754 19.3332 4.88382C19.1995 4.7501 19.0403 4.64457 18.865 4.57348C18.6898 4.50239 18.5021 4.46718 18.313 4.46993C18.1239 4.47269 17.9373 4.51336 17.7642 4.58953C17.5911 4.6657 17.4351 4.77582 17.3053 4.91338C17.053 5.18091 16.9148 5.53625 16.9202 5.90399C16.9255 6.27172 17.074 6.62289 17.334 6.88295C17.5941 7.14301 17.9453 7.29147 18.313 7.29683C18.6807 7.30219 19.0361 7.16403 19.3036 6.91166Z" fill="#1D4ED8"/>
</svg>
