<svg width="25" height="26" viewBox="0 0 25 26" fill="none" xmlns="http://www.w3.org/2000/svg">
<path d="M12.3922 24.4539L12.0286 24.2886C8.81853 22.8295 6.06551 20.6659 3.8465 17.8572C3.0899 16.8999 2.67334 15.696 2.67334 14.4672V1.01636L3.94764 1.5631C5.50117 2.22972 6.75902 2.54014 7.90558 2.54014C9.91287 2.54014 11.9039 1.31963 11.9237 1.30732L12.3922 1.01693L12.869 1.29473C12.8886 1.30604 14.9539 2.49522 16.9536 2.49522C18.3987 2.49522 19.7838 1.99511 20.8291 1.55938L22.0947 1.03209V14.5963C22.0947 15.7562 21.7365 16.8653 21.059 17.8046C18.9898 20.6714 16.1977 22.8567 12.7606 24.2992L12.3922 24.4539ZM4.5011 3.73934V14.4672C4.5011 15.2864 4.77791 16.0879 5.28073 16.7241C7.23324 19.1952 9.63421 21.1215 12.4216 22.4549C15.3753 21.1457 17.7811 19.2226 19.5767 16.7347C20.028 16.1091 20.2668 15.3695 20.2668 14.5963V3.72732C19.2887 4.05605 18.1588 4.32298 16.9536 4.32298C15.077 4.32298 13.257 3.54121 12.4198 3.12436C11.5956 3.55866 9.80487 4.36805 7.90558 4.36805C6.66447 4.36819 5.48387 4.07694 4.5011 3.73934ZM18.0568 9.44693L16.7643 8.15447L11.3902 13.5289L8.41484 10.5536L7.12223 11.846L11.3902 16.1138L18.0568 9.44693Z" fill="#2563EB"/>
</svg>
