<svg width="16" height="16" viewBox="0 0 16 16" fill="none" xmlns="http://www.w3.org/2000/svg">
<g clip-path="url(#clip0_1233_2171)">
<path d="M4.33469 4.28125H4.13406L3.75916 6.15625H4.70959L4.33469 4.28125Z" fill="#2563EB"/>
<path d="M11.9179 8.03125C12.1203 8.57497 12.3896 9.01509 12.6875 9.38959C12.9854 9.01509 13.2859 8.57494 13.4883 8.03125H11.9179Z" fill="#2563EB"/>
<path d="M14.5938 2.84375H8.77241L9.98622 12.5837C10.0077 12.9821 9.89878 13.3572 9.63878 13.6508L7.58322 16H14.5938C15.3692 16 16 15.3692 16 14.5938V4.28125C16 3.50581 15.3692 2.84375 14.5938 2.84375ZM14.5938 8.03125H14.4686C14.2018 8.88697 13.7789 9.55656 13.3393 10.0844C13.6837 10.3992 14.0519 10.6575 14.418 10.9467C14.6198 11.1083 14.6528 11.4031 14.4908 11.6055C14.3294 11.8075 14.0335 11.8403 13.832 11.6783C13.4343 11.3643 13.0609 11.1015 12.6875 10.7588C12.3141 11.1015 11.972 11.3643 11.5742 11.6783C11.3728 11.8403 11.0768 11.8075 10.9155 11.6055C10.7534 11.4031 10.7864 11.1083 10.9883 10.9467C11.3544 10.6575 11.6913 10.3992 12.0357 10.0844C11.5961 9.55659 11.2044 8.887 10.9377 8.03125H10.8125C10.5534 8.03125 10.3438 7.82159 10.3438 7.5625C10.3438 7.30341 10.5534 7.09375 10.8125 7.09375H12.2188V6.625C12.2188 6.36591 12.4284 6.15625 12.6875 6.15625C12.9466 6.15625 13.1563 6.36591 13.1563 6.625V7.09375H14.5938C14.8528 7.09375 15.0625 7.30341 15.0625 7.5625C15.0625 7.82159 14.8528 8.03125 14.5938 8.03125Z" fill="#2563EB"/>
<path d="M7.63013 1.23184C7.54269 0.529625 6.94256 0 6.23488 0H1.40625C0.630813 0 0 0.630813 0 1.40625V11.7812C0 12.5567 0.630813 13.1875 1.40625 13.1875C4.20844 13.1875 6.22428 13.1875 8.79847 13.1875C8.93522 13.0312 9.04984 12.9333 9.05469 12.7293C9.05587 12.6781 7.63647 1.28259 7.63013 1.23184ZM5.74825 8.95959C5.49969 9.01075 5.24791 8.84938 5.19666 8.592L4.89706 7.09375H3.57172L3.27213 8.592C3.22178 8.84559 2.97731 9.01222 2.72053 8.95959C2.46694 8.90878 2.30212 8.66206 2.35294 8.408L3.29041 3.7205C3.33434 3.50169 3.52663 3.34375 3.75 3.34375H4.71875C4.94212 3.34375 5.13441 3.50169 5.17834 3.7205L6.11584 8.408C6.16666 8.66206 6.00188 8.90878 5.74825 8.95959Z" fill="#2563EB"/>
<path d="M5.47691 14.125L5.55734 14.7682C5.61097 15.1989 5.89716 15.6381 6.36791 15.8574C7.25628 14.8795 6.71881 15.4711 7.94162 14.125H5.47691Z" fill="#2563EB"/>
</g>
<defs>
<clipPath id="clip0_1233_2171">
<rect width="16" height="16" fill="white"/>
</clipPath>
</defs>
</svg>
