<svg width="104" height="104" viewBox="0 0 104 104" fill="none" xmlns="http://www.w3.org/2000/svg">
<circle cx="52.4899" cy="51.9379" r="51.5101" fill="#F5F8FF"/>
<path d="M35.1323 35.2418H49.5072C50.8249 35.2418 51.903 34.1637 51.903 32.846C51.903 31.5283 50.8249 30.4502 49.5072 30.4502H35.1323C32.4969 30.4502 30.3406 32.6064 30.3406 35.2418V68.7833C30.3406 71.4187 32.4969 73.575 35.1323 73.575H49.5072C50.8249 73.575 51.903 72.4968 51.903 71.1791C51.903 69.8614 50.8249 68.7833 49.5072 68.7833H35.1323V35.2418Z" fill="#2563EB"/>
<path d="M72.6269 51.1734L65.9425 44.489C65.7759 44.3179 65.562 44.2003 65.3282 44.1514C65.0943 44.1025 64.8512 44.1245 64.63 44.2145C64.4087 44.3046 64.2194 44.4586 64.0861 44.6569C63.9529 44.8552 63.8819 45.0887 63.8821 45.3276V49.6161H47.1114C45.7937 49.6161 44.7156 50.6942 44.7156 52.0119C44.7156 53.3296 45.7937 54.4077 47.1114 54.4077H63.8821V58.6963C63.8821 59.7744 65.1759 60.3015 65.9186 59.5348L72.6029 52.8505C73.0821 52.3953 73.0821 51.6286 72.6269 51.1734Z" fill="#2563EB"/>
</svg>
