<svg width="15" height="18" viewBox="0 0 15 18" fill="none" xmlns="http://www.w3.org/2000/svg">
<path d="M7.53314 0.174805C3.82567 0.174805 0.808594 3.17326 0.808594 6.85976C0.808594 12.0978 6.90103 17.5063 7.1603 17.7334C7.26715 17.8271 7.40015 17.8735 7.53314 17.8735C7.66614 17.8735 7.79914 17.8271 7.90598 17.7342C8.16525 17.5063 14.2577 12.0978 14.2577 6.85976C14.2577 3.17326 11.2406 0.174805 7.53314 0.174805ZM7.53314 10.4991C5.47319 10.4991 3.79728 8.84497 3.79728 6.81183C3.79728 4.77869 5.47319 3.12459 7.53314 3.12459C9.5931 3.12459 11.269 4.77869 11.269 6.81183C11.269 8.84497 9.5931 10.4991 7.53314 10.4991Z" fill="#9B51E0"/>
</svg>
