<svg width="32" height="32" viewBox="0 0 32 32" fill="none" xmlns="http://www.w3.org/2000/svg">
<rect y="0.160645" width="31.0269" height="31.0269" rx="10" fill="#D9D9D9"/>
<g clip-path="url(#clip0_1139_2290)">
<path d="M20.7783 5.9541C18.5203 5.9541 16.6834 7.86159 16.6834 10.2065C16.6834 12.3885 19.9687 16.2533 20.3431 16.6871C20.4542 16.8146 20.6121 16.8888 20.7783 16.8888C20.9444 16.8888 21.1024 16.8146 21.2135 16.6871C21.5879 16.2533 24.8731 12.3885 24.8731 10.2065C24.8731 7.86159 23.0363 5.9541 20.7783 5.9541ZM20.7783 12.0289C19.8096 12.0289 19.0233 11.2125 19.0233 10.2065C19.0233 9.20048 19.8096 8.38402 20.7783 8.38402C21.747 8.38402 22.5332 9.20048 22.5332 10.2065C22.5332 11.2125 21.747 12.0289 20.7783 12.0289Z" fill="#6A6666"/>
<path d="M6.52112 13.0908C6.29999 13.1831 6.15375 13.4067 6.15375 13.6558V24.786C6.15375 24.9877 6.25085 25.176 6.41114 25.289C6.50942 25.357 6.6229 25.3935 6.73873 25.3935C6.81244 25.3935 6.88614 25.3789 6.95634 25.3498L12.0036 23.2527V10.814L6.52112 13.0908Z" fill="#6A6666"/>
<path d="M22.0839 17.4985C21.7517 17.8825 21.2755 18.1036 20.7783 18.1036C20.281 18.1036 19.8049 17.8825 19.4726 17.4985C19.3532 17.3612 19.2 17.1802 19.0233 16.9652V25.3933L24.5058 23.1165C24.7281 23.0254 24.8731 22.8006 24.8731 22.5528V13.6216C23.9149 15.3067 22.6338 16.8619 22.0839 17.4985Z" fill="#6A6666"/>
<path d="M15.882 11.939L13.1735 10.814V23.2527L17.8534 25.1967V15.4405C17.1058 14.3945 16.3254 13.1345 15.882 11.939Z" fill="#6A6666"/>
</g>
<defs>
<clipPath id="clip0_1139_2290">
<rect width="18.7194" height="19.4394" fill="white" transform="translate(6.15375 5.9541)"/>
</clipPath>
</defs>
</svg>
