<svg width="18" height="20" viewBox="0 0 18 20" fill="none" xmlns="http://www.w3.org/2000/svg">
<ellipse cx="8.14439" cy="2.73864" rx="1.6345" ry="1.5819" fill="white"/>
<path d="M6.55442 18.9275C5.12706 18.1925 0.192795 12.3658 16.7383 2.92697C17.4413 2.52596 17.1341 1.68551 16.3769 1.97101C12.3749 3.47979 8.76104 5.75121 7.09967 6.99233C5.55309 8.10012 -1.97165 14.8062 6.55442 18.9275Z" fill="white"/>
<path d="M10.3423 8.11587L9.51653 8.85137C9.22532 9.11073 9.20588 9.56187 9.45877 9.85872C11.5934 12.3643 12.5647 14.4837 12.7943 16.2535C12.9061 17.1145 14.8642 18.939 15.1137 18.1074C16.1293 14.7214 13.6531 10.691 11.2998 8.15214C11.0458 7.8781 10.6214 7.86735 10.3423 8.11587Z" fill="white"/>
<path d="M1.4142 3.2784L0.996724 3.70327C0.637881 4.06848 0.777035 4.68356 1.25232 4.87394C3.18831 5.64942 4.55671 6.40548 5.30307 6.88731C5.5888 7.07177 5.96875 7.05894 6.22311 6.83317L6.75906 6.35747C7.10368 6.05159 7.0651 5.50482 6.66646 5.2737C5.21873 4.43435 3.31902 3.59053 2.17156 3.11974C1.91038 3.01257 1.61206 3.07703 1.4142 3.2784Z" fill="#42CFF7"/>
</svg>
