<svg width="186" height="40" viewBox="0 0 186 40" fill="none" xmlns="http://www.w3.org/2000/svg">
<rect width="40" height="40" rx="10" fill="white"/>
<circle cx="18.4884" cy="9.95994" r="2.13646" fill="#226CEB"/>
<path d="M16.4099 31.8241C14.539 30.8287 8.0587 22.9182 29.9027 10.1078C30.8116 9.57475 30.3964 8.48153 29.4129 8.85979C24.1169 10.8968 19.3169 14.0112 17.1226 15.7049C15.1011 17.2011 5.26551 26.2581 16.4099 31.8241Z" fill="#226CEB"/>
<path d="M21.3495 17.2333L20.25 18.2451C19.8835 18.5824 19.8592 19.1564 20.1766 19.5403C23.2045 23.2024 24.4531 26.2548 24.6188 28.76C24.6936 29.89 27.0789 32.2074 27.4605 31.1411C29.1255 26.4889 25.7908 20.8178 22.6217 17.2815C22.288 16.9091 21.7174 16.8947 21.3495 17.2333Z" fill="#226CEB"/>
<path d="M9.68575 10.6951L9.10021 11.3108C8.64641 11.788 8.82704 12.5748 9.43579 12.826C11.9775 13.8747 13.7762 14.8991 14.7605 15.554C15.1399 15.8065 15.6516 15.7887 15.9874 15.4807L16.7185 14.8102C17.1536 14.4112 17.1044 13.7137 16.5986 13.4093C14.7071 12.271 12.208 11.1228 10.6955 10.481C10.3473 10.3333 9.94642 10.421 9.68575 10.6951Z" fill="#42CFF7"/>
<path d="M68.45 30L67.19 26.22H58.82L57.56 30H53.09L60.44 9H65.57L72.95 30H68.45ZM60.14 22.35H65.9L63.02 13.77L60.14 22.35ZM77.6326 19.26C77.6326 19.66 77.8926 19.99 78.4126 20.25C78.9526 20.49 79.6026 20.71 80.3626 20.91C81.1226 21.09 81.8826 21.33 82.6426 21.63C83.4026 21.91 84.0426 22.39 84.5626 23.07C85.1026 23.75 85.3726 24.6 85.3726 25.62C85.3726 27.16 84.7926 28.35 83.6326 29.19C82.4926 30.01 81.0626 30.42 79.3426 30.42C76.2626 30.42 74.1626 29.23 73.0426 26.85L76.4026 24.96C76.8426 26.26 77.8226 26.91 79.3426 26.91C80.7226 26.91 81.4126 26.48 81.4126 25.62C81.4126 25.22 81.1426 24.9 80.6026 24.66C80.0826 24.4 79.4426 24.17 78.6826 23.97C77.9226 23.77 77.1626 23.52 76.4026 23.22C75.6426 22.92 74.9926 22.45 74.4526 21.81C73.9326 21.15 73.6726 20.33 73.6726 19.35C73.6726 17.87 74.2126 16.71 75.2926 15.87C76.3926 15.01 77.7526 14.58 79.3726 14.58C80.5926 14.58 81.7026 14.86 82.7026 15.42C83.7026 15.96 84.4926 16.74 85.0726 17.76L81.7726 19.56C81.2926 18.54 80.4926 18.03 79.3726 18.03C78.8726 18.03 78.4526 18.14 78.1126 18.36C77.7926 18.58 77.6326 18.88 77.6326 19.26ZM95.402 18.72H92.012V24.96C92.012 25.48 92.142 25.86 92.402 26.1C92.662 26.34 93.042 26.48 93.542 26.52C94.042 26.54 94.662 26.53 95.402 26.49V30C92.742 30.3 90.862 30.05 89.762 29.25C88.682 28.45 88.142 27.02 88.142 24.96V18.72H85.532V15H88.142V11.97L92.012 10.8V15H95.402V18.72ZM100.332 24.09C100.852 25.97 102.262 26.91 104.562 26.91C106.042 26.91 107.162 26.41 107.922 25.41L111.042 27.21C109.562 29.35 107.382 30.42 104.502 30.42C102.022 30.42 100.032 29.67 98.5318 28.17C97.0318 26.67 96.2818 24.78 96.2818 22.5C96.2818 20.24 97.0218 18.36 98.5018 16.86C99.9818 15.34 101.882 14.58 104.202 14.58C106.402 14.58 108.212 15.34 109.632 16.86C111.072 18.38 111.792 20.26 111.792 22.5C111.792 23 111.742 23.53 111.642 24.09H100.332ZM100.272 21.09H107.922C107.702 20.07 107.242 19.31 106.542 18.81C105.862 18.31 105.082 18.06 104.202 18.06C103.162 18.06 102.302 18.33 101.622 18.87C100.942 19.39 100.492 20.13 100.272 21.09ZM116.877 19.26C116.877 19.66 117.137 19.99 117.657 20.25C118.197 20.49 118.847 20.71 119.607 20.91C120.367 21.09 121.127 21.33 121.887 21.63C122.647 21.91 123.287 22.39 123.807 23.07C124.347 23.75 124.617 24.6 124.617 25.62C124.617 27.16 124.037 28.35 122.877 29.19C121.737 30.01 120.307 30.42 118.587 30.42C115.507 30.42 113.407 29.23 112.287 26.85L115.647 24.96C116.087 26.26 117.067 26.91 118.587 26.91C119.967 26.91 120.657 26.48 120.657 25.62C120.657 25.22 120.387 24.9 119.847 24.66C119.327 24.4 118.687 24.17 117.927 23.97C117.167 23.77 116.407 23.52 115.647 23.22C114.887 22.92 114.237 22.45 113.697 21.81C113.177 21.15 112.917 20.33 112.917 19.35C112.917 17.87 113.457 16.71 114.537 15.87C115.637 15.01 116.997 14.58 118.617 14.58C119.837 14.58 120.947 14.86 121.947 15.42C122.947 15.96 123.737 16.74 124.317 17.76L121.017 19.56C120.537 18.54 119.737 18.03 118.617 18.03C118.117 18.03 117.697 18.14 117.357 18.36C117.037 18.58 116.877 18.88 116.877 19.26ZM134.846 14.58C136.486 14.58 137.836 15.13 138.896 16.23C139.976 17.33 140.516 18.85 140.516 20.79V30H136.646V21.27C136.646 20.27 136.376 19.51 135.836 18.99C135.296 18.45 134.576 18.18 133.676 18.18C132.676 18.18 131.876 18.49 131.276 19.11C130.676 19.73 130.376 20.66 130.376 21.9V30H126.506V9H130.376V16.68C131.316 15.28 132.806 14.58 134.846 14.58ZM154.621 15H158.491V30H154.621V28.23C153.461 29.69 151.831 30.42 149.731 30.42C147.731 30.42 146.011 29.66 144.571 28.14C143.151 26.6 142.441 24.72 142.441 22.5C142.441 20.28 143.151 18.41 144.571 16.89C146.011 15.35 147.731 14.58 149.731 14.58C151.831 14.58 153.461 15.31 154.621 16.77V15ZM147.481 25.56C148.261 26.34 149.251 26.73 150.451 26.73C151.651 26.73 152.641 26.34 153.421 25.56C154.221 24.76 154.621 23.74 154.621 22.5C154.621 21.26 154.221 20.25 153.421 19.47C152.641 18.67 151.651 18.27 150.451 18.27C149.251 18.27 148.261 18.67 147.481 19.47C146.701 20.25 146.311 21.26 146.311 22.5C146.311 23.74 146.701 24.76 147.481 25.56ZM165.27 17.58C165.63 16.62 166.22 15.9 167.04 15.42C167.88 14.94 168.81 14.7 169.83 14.7V19.02C168.65 18.88 167.59 19.12 166.65 19.74C165.73 20.36 165.27 21.39 165.27 22.83V30H161.4V15H165.27V17.58ZM181.596 15H185.736L180.276 30C179.496 32.16 178.456 33.72 177.156 34.68C175.876 35.66 174.276 36.1 172.356 36V32.4C173.396 32.42 174.216 32.2 174.816 31.74C175.436 31.28 175.926 30.54 176.286 29.52L170.136 15H174.366L178.266 25.08L181.596 15Z" fill="white"/>
</svg>
