<svg width="158" height="33" viewBox="0 0 158 33" fill="none" xmlns="http://www.w3.org/2000/svg">
<rect y="1.36353" width="30.6021" height="29.6173" rx="7.65052" fill="#226CEB"/>
<ellipse cx="14.1444" cy="8.73864" rx="1.6345" ry="1.5819" fill="white"/>
<path d="M12.5544 24.9275C11.1271 24.1925 6.1928 18.3658 22.7383 8.92697C23.4413 8.52596 23.1341 7.68551 22.3769 7.97101C18.3749 9.47979 14.761 11.7512 13.0997 12.9923C11.5531 14.1001 4.02835 20.8062 12.5544 24.9275Z" fill="white"/>
<path d="M16.3423 14.1159L15.5165 14.8514C15.2253 15.1107 15.2059 15.5619 15.4588 15.8587C17.5934 18.3643 18.5647 20.4837 18.7943 22.2535C18.9061 23.1145 20.8642 24.939 21.1137 24.1074C22.1293 20.7214 19.6531 16.691 17.2998 14.1521C17.0458 13.8781 16.6214 13.8673 16.3423 14.1159Z" fill="white"/>
<path d="M7.4142 9.2784L6.99672 9.70327C6.63788 10.0685 6.77703 10.6836 7.25232 10.8739C9.18831 11.6494 10.5567 12.4055 11.3031 12.8873C11.5888 13.0718 11.9687 13.0589 12.2231 12.8332L12.7591 12.3575C13.1037 12.0516 13.0651 11.5048 12.6665 11.2737C11.2187 10.4343 9.31902 9.59053 8.17156 9.11974C7.91038 9.01257 7.61206 9.07703 7.4142 9.2784Z" fill="#42CFF7"/>
<path d="M53.1727 23.3958L52.0807 20.1198H44.8267L43.7347 23.3958H39.8607L46.2307 5.19575H50.6767L57.0727 23.3958H53.1727ZM45.9707 16.7658H50.9627L48.4667 9.32975L45.9707 16.7658ZM61.1309 14.0878C61.1309 14.4344 61.3563 14.7204 61.8069 14.9458C62.2749 15.1538 62.8383 15.3444 63.4969 15.5178C64.1556 15.6738 64.8143 15.8818 65.4729 16.1418C66.1316 16.3844 66.6863 16.8004 67.1369 17.3898C67.6049 17.9791 67.8389 18.7158 67.8389 19.5998C67.8389 20.9344 67.3363 21.9658 66.3309 22.6938C65.3429 23.4044 64.1036 23.7598 62.6129 23.7598C59.9436 23.7598 58.1236 22.7284 57.1529 20.6658L60.0649 19.0278C60.4463 20.1544 61.2956 20.7178 62.6129 20.7178C63.8089 20.7178 64.4069 20.3451 64.4069 19.5998C64.4069 19.2531 64.1729 18.9758 63.7049 18.7678C63.2543 18.5424 62.6996 18.3431 62.0409 18.1698C61.3823 17.9964 60.7236 17.7798 60.0649 17.5198C59.4063 17.2598 58.8429 16.8524 58.3749 16.2978C57.9243 15.7258 57.6989 15.0151 57.6989 14.1658C57.6989 12.8831 58.1669 11.8778 59.1029 11.1498C60.0563 10.4044 61.2349 10.0318 62.6389 10.0318C63.6963 10.0318 64.6583 10.2744 65.5249 10.7598C66.3916 11.2278 67.0763 11.9038 67.5789 12.7878L64.7189 14.3478C64.3029 13.4638 63.6096 13.0218 62.6389 13.0218C62.2056 13.0218 61.8416 13.1171 61.5469 13.3078C61.2696 13.4984 61.1309 13.7584 61.1309 14.0878ZM76.5311 13.6198H73.5931V19.0278C73.5931 19.4784 73.7057 19.8078 73.9311 20.0158C74.1564 20.2238 74.4857 20.3451 74.9191 20.3798C75.3524 20.3971 75.8897 20.3884 76.5311 20.3538V23.3958C74.2257 23.6558 72.5964 23.4391 71.6431 22.7458C70.7071 22.0524 70.2391 20.8131 70.2391 19.0278V13.6198H67.9771V10.3958H70.2391V7.76975L73.5931 6.75575V10.3958H76.5311V13.6198ZM80.8036 18.2738C81.2543 19.9031 82.4763 20.7178 84.4696 20.7178C85.7523 20.7178 86.7229 20.2844 87.3816 19.4178L90.0856 20.9778C88.8029 22.8324 86.9136 23.7598 84.4176 23.7598C82.2683 23.7598 80.5436 23.1098 79.2436 21.8098C77.9436 20.5098 77.2936 18.8718 77.2936 16.8958C77.2936 14.9371 77.9349 13.3078 79.2176 12.0078C80.5003 10.6904 82.1469 10.0318 84.1576 10.0318C86.0643 10.0318 87.6329 10.6904 88.8636 12.0078C90.1116 13.3251 90.7356 14.9544 90.7356 16.8958C90.7356 17.3291 90.6923 17.7884 90.6056 18.2738H80.8036ZM80.7516 15.6738H87.3816C87.1909 14.7898 86.7923 14.1311 86.1856 13.6978C85.5963 13.2644 84.9203 13.0478 84.1576 13.0478C83.2563 13.0478 82.5109 13.2818 81.9216 13.7498C81.3323 14.2004 80.9423 14.8418 80.7516 15.6738ZM95.1432 14.0878C95.1432 14.4344 95.3685 14.7204 95.8192 14.9458C96.2872 15.1538 96.8505 15.3444 97.5092 15.5178C98.1679 15.6738 98.8265 15.8818 99.4852 16.1418C100.144 16.3844 100.699 16.8004 101.149 17.3898C101.617 17.9791 101.851 18.7158 101.851 19.5998C101.851 20.9344 101.349 21.9658 100.343 22.6938C99.3552 23.4044 98.1159 23.7598 96.6252 23.7598C93.9559 23.7598 92.1359 22.7284 91.1652 20.6658L94.0772 19.0278C94.4585 20.1544 95.3079 20.7178 96.6252 20.7178C97.8212 20.7178 98.4192 20.3451 98.4192 19.5998C98.4192 19.2531 98.1852 18.9758 97.7172 18.7678C97.2665 18.5424 96.7119 18.3431 96.0532 18.1698C95.3945 17.9964 94.7359 17.7798 94.0772 17.5198C93.4185 17.2598 92.8552 16.8524 92.3872 16.2978C91.9365 15.7258 91.7112 15.0151 91.7112 14.1658C91.7112 12.8831 92.1792 11.8778 93.1152 11.1498C94.0685 10.4044 95.2472 10.0318 96.6512 10.0318C97.7085 10.0318 98.6705 10.2744 99.5372 10.7598C100.404 11.2278 101.089 11.9038 101.591 12.7878L98.7312 14.3478C98.3152 13.4638 97.6219 13.0218 96.6512 13.0218C96.2179 13.0218 95.8539 13.1171 95.5592 13.3078C95.2819 13.4984 95.1432 13.7584 95.1432 14.0878ZM110.716 10.0318C112.138 10.0318 113.308 10.5084 114.226 11.4618C115.162 12.4151 115.63 13.7324 115.63 15.4138V23.3958H112.276V15.8298C112.276 14.9631 112.042 14.3044 111.574 13.8538C111.106 13.3858 110.482 13.1518 109.702 13.1518C108.836 13.1518 108.142 13.4204 107.622 13.9578C107.102 14.4951 106.842 15.3011 106.842 16.3758V23.3958H103.488V5.19575H106.842V11.8518C107.657 10.6384 108.948 10.0318 110.716 10.0318ZM127.854 10.3958H131.208V23.3958H127.854V21.8618C126.849 23.1271 125.436 23.7598 123.616 23.7598C121.883 23.7598 120.392 23.1011 119.144 21.7838C117.913 20.4491 117.298 18.8198 117.298 16.8958C117.298 14.9718 117.913 13.3511 119.144 12.0338C120.392 10.6991 121.883 10.0318 123.616 10.0318C125.436 10.0318 126.849 10.6644 127.854 11.9298V10.3958ZM121.666 19.5478C122.342 20.2238 123.2 20.5618 124.24 20.5618C125.28 20.5618 126.138 20.2238 126.814 19.5478C127.507 18.8544 127.854 17.9704 127.854 16.8958C127.854 15.8211 127.507 14.9458 126.814 14.2698C126.138 13.5764 125.28 13.2298 124.24 13.2298C123.2 13.2298 122.342 13.5764 121.666 14.2698C120.99 14.9458 120.652 15.8211 120.652 16.8958C120.652 17.9704 120.99 18.8544 121.666 19.5478ZM137.083 12.6318C137.395 11.7998 137.907 11.1758 138.617 10.7598C139.345 10.3438 140.151 10.1358 141.035 10.1358V13.8798C140.013 13.7584 139.094 13.9664 138.279 14.5038C137.482 15.0411 137.083 15.9338 137.083 17.1818V23.3958H133.729V10.3958H137.083V12.6318ZM151.232 10.3958H154.82L150.088 23.3958C149.412 25.2678 148.511 26.6198 147.384 27.4518C146.275 28.3011 144.888 28.6824 143.224 28.5958V25.4758C144.126 25.4931 144.836 25.3024 145.356 24.9038C145.894 24.5051 146.318 23.8638 146.63 22.9798L141.3 10.3958H144.966L148.346 19.1318L151.232 10.3958Z" fill="#1E252D"/>
</svg>
