<svg width="24" height="26" viewBox="0 0 24 26" fill="none" xmlns="http://www.w3.org/2000/svg">
<circle cx="10.4884" cy="2.95994" r="2.13646" fill="#226CEB"/>
<path d="M8.40994 24.8241C6.53904 23.8287 0.0587032 15.9182 21.9027 3.10778C22.8116 2.57475 22.3964 1.48153 21.4129 1.85979C16.1169 3.89677 11.3169 7.0112 9.12264 8.70493C7.1011 10.2011 -2.73449 19.2581 8.40994 24.8241Z" fill="#226CEB"/>
<path d="M13.3495 10.2333L12.25 11.2451C11.8835 11.5824 11.8592 12.1564 12.1766 12.5403C15.2045 16.2024 16.4531 19.2548 16.6188 21.76C16.6936 22.89 19.0789 25.2074 19.4605 24.1411C21.1255 19.4889 17.7908 13.8178 14.6217 10.2815C14.288 9.90914 13.7174 9.89468 13.3495 10.2333Z" fill="#226CEB"/>
<path d="M1.68575 3.69509L1.10021 4.31084C0.646408 4.78804 0.827038 5.57482 1.43579 5.82599C3.97751 6.87468 5.77622 7.89911 6.76051 8.55403C7.13995 8.8065 7.65156 8.7887 7.98745 8.48065L8.71853 7.81018C9.15362 7.41116 9.10445 6.71371 8.59862 6.4093C6.70711 5.27098 4.20796 4.12276 2.6955 3.48101C2.34728 3.33326 1.94642 3.42098 1.68575 3.69509Z" fill="#42CFF7"/>
</svg>
