<svg width="20" height="20" viewBox="0 0 20 20" fill="none" xmlns="http://www.w3.org/2000/svg">
<path d="M16.1017 8.86124L14.2821 10.6149C14.0323 10.8553 13.8626 11.3361 13.9144 11.6802L14.1973 13.7356C14.3811 15.0508 13.5656 15.6212 12.3871 15.0084L10.3883 13.9618C10.0536 13.7874 9.50679 13.7968 9.18152 13.9901L7.43261 15.0131C6.05139 15.8192 5.22644 15.2111 5.59413 13.6554L6.10796 11.4822C6.20224 11.0863 6.02783 10.5441 5.73084 10.2754L4.07621 8.7811C2.89299 7.71101 3.22297 6.73991 4.81632 6.61735L6.83393 6.4665C7.21105 6.43822 7.66831 6.14123 7.84273 5.80653L8.88925 3.79835C9.50679 2.62455 10.5015 2.62927 11.1001 3.81249L12.0335 5.6604C12.1938 5.97153 12.5992 6.27322 12.9433 6.32508L15.4418 6.73049C16.79 6.95676 17.087 7.91371 16.1017 8.86124Z" fill="#FACC15"/>
</svg>
