<svg width="19" height="24" viewBox="0 0 19 24" fill="none" xmlns="http://www.w3.org/2000/svg">
<path d="M15.985 13.895C13.2624 12.9916 12.1307 11.8682 12.1307 11.8682L12.0395 11.9564C11.231 12.7295 10.3368 13.184 9.52216 13.184H9.44528C8.6307 13.184 7.73647 12.7295 6.92795 11.9564L6.83677 11.8682C6.83677 11.8682 5.70513 12.9915 2.98248 13.895C-1.03661 15.4202 0.170174 21.6273 0.169011 21.6753C0.295595 22.3666 0.369375 22.6042 0.43366 22.6309C4.46971 24.4563 14.4978 24.4563 18.5339 22.6309C18.5982 22.6042 18.672 22.3666 18.7986 21.6753C18.7974 21.6273 20.0203 15.4449 15.985 13.895Z" fill="white"/>
<path d="M13.7046 5.97644L13.6709 5.93928C13.4447 5.72895 13.4624 5.741 13.4624 5.741C13.4624 5.741 13.8568 3.7192 13.5405 2.76309C13.044 1.23616 10.078 0.212783 9.48312 0.0938357C9.48322 0.0927038 9.1213 0.0191307 9.09819 0.018983C9.09819 0.018983 8.63027 -0.0771296 8.08794 0.163177C7.73474 0.301218 5.8882 1.15186 5.36409 2.76309C5.04785 3.7192 5.44228 5.741 5.44228 5.741C5.44228 5.741 5.45996 5.72895 5.23377 5.93928L5.20011 5.97644C5.04712 6.15292 5.08491 6.70508 5.25213 7.27955C5.40367 7.85509 5.60117 8.00976 5.6485 8.14456C6.12824 10.4328 7.79641 12.3866 9.49635 12.3866C11.1963 12.3866 12.7763 10.4328 13.2561 8.14456C13.3035 8.00981 13.501 7.85509 13.6525 7.27955C13.8197 6.70504 13.8619 6.11497 13.7046 5.97644Z" fill="white"/>
</svg>
