<svg width="19" height="20" viewBox="0 0 19 20" fill="none" xmlns="http://www.w3.org/2000/svg">
<path d="M14.6245 0.434082C12.3665 0.434082 10.5297 2.34157 10.5297 4.68645C10.5297 6.86852 13.8149 10.7333 14.1893 11.167C14.3005 11.2946 14.4584 11.3687 14.6245 11.3687C14.7907 11.3687 14.9486 11.2946 15.0598 11.167C15.4341 10.7333 18.7194 6.86852 18.7194 4.68645C18.7194 2.34157 16.8826 0.434082 14.6245 0.434082ZM14.6245 6.50889C13.6558 6.50889 12.8696 5.69243 12.8696 4.68645C12.8696 3.68046 13.6558 2.864 14.6245 2.864C15.5933 2.864 16.3795 3.68046 16.3795 4.68645C16.3795 5.69243 15.5933 6.50889 14.6245 6.50889Z" fill="#6A6666"/>
<path d="M0.367368 7.57078C0.146245 7.66312 0 7.88667 0 8.13574V19.266C0 19.4677 0.0971069 19.656 0.257392 19.769C0.355669 19.837 0.469155 19.8735 0.584981 19.8735C0.658689 19.8735 0.732396 19.8589 0.802594 19.8297L5.84981 17.7327V5.29395L0.367368 7.57078Z" fill="#6A6666"/>
<path d="M15.9303 11.9785C15.598 12.3624 15.1218 12.5836 14.6246 12.5836C14.1273 12.5836 13.6512 12.3624 13.3189 11.9785C13.1996 11.8412 13.0463 11.6602 12.8696 11.4451V19.8733L18.3521 17.5965C18.5744 17.5054 18.7194 17.2806 18.7194 17.0327V8.10156C17.7612 9.78671 16.4801 11.3419 15.9303 11.9785Z" fill="#6A6666"/>
<path d="M9.72824 6.419L7.01978 5.29395V17.7327L11.6996 19.6767V9.92052C10.952 8.87444 10.1717 7.61452 9.72824 6.419Z" fill="#6A6666"/>
</svg>
