<svg width="12" height="12" viewBox="0 0 12 12" fill="none" xmlns="http://www.w3.org/2000/svg">
<path d="M5.86774 0.640625C4.80775 0.640625 3.77157 0.954947 2.89023 1.54384C2.00889 2.13274 1.32196 2.96976 0.916322 3.94906C0.510684 4.92835 0.40455 6.00594 0.611343 7.04556C0.818136 8.08518 1.32857 9.04013 2.07809 9.78965C2.82761 10.5392 3.78256 11.0496 4.82218 11.2564C5.86179 11.4632 6.93938 11.3571 7.91868 10.9514C8.89798 10.5458 9.735 9.85885 10.3239 8.97751C10.9128 8.09616 11.2271 7.05998 11.2271 6C11.2256 4.57908 10.6604 3.21681 9.65566 2.21208C8.65092 1.20734 7.28865 0.642188 5.86774 0.640625ZM5.01002 2.71569C5.04928 2.54001 5.1532 2.38553 5.30113 2.28295C5.44906 2.18037 5.63016 2.13721 5.80846 2.16203C5.97888 2.19096 6.13571 2.27329 6.2563 2.39714C6.37689 2.52099 6.455 2.67996 6.47936 2.85109C6.48636 2.89484 6.48965 2.94122 6.49358 2.99941L6.5008 3.09653C6.50177 3.10812 6.50088 3.11979 6.49818 3.13109C6.49293 3.15166 6.48877 3.17616 6.48374 3.20241C6.47073 3.29194 6.4467 3.37952 6.41221 3.46316C6.36274 3.60571 6.27002 3.72928 6.14696 3.81661C6.02391 3.90394 5.87666 3.95068 5.72577 3.95031H5.71702C5.56147 3.95617 5.40857 3.90888 5.28348 3.81624C5.15839 3.7236 5.06858 3.59112 5.02883 3.44062C4.96155 3.20443 4.95508 2.95506 5.01002 2.71569ZM7.13868 8.72891C6.5404 9.16466 5.86249 9.65859 5.02883 9.83009C4.98803 9.83745 4.94669 9.8414 4.90524 9.84191L4.8628 9.84344H4.84246C4.74739 9.84846 4.65248 9.83095 4.56546 9.79232C4.47845 9.7537 4.40179 9.69506 4.34174 9.62119C4.28098 9.52973 4.24297 9.42507 4.23087 9.31594C4.21877 9.2068 4.23293 9.09636 4.27218 8.99381C4.41553 8.52525 4.5594 8.05691 4.70377 7.58878C4.9024 6.94303 5.10036 6.29699 5.29768 5.65066C5.31234 5.60432 5.31972 5.55598 5.31955 5.50737C5.27351 5.49888 5.22608 5.50197 5.18152 5.51634C5.1104 5.54377 5.04119 5.57592 4.97436 5.61259C4.8902 5.65975 4.80198 5.69928 4.71077 5.73072C4.65055 5.74093 4.58888 5.73884 4.52948 5.72459C4.47009 5.71035 4.41419 5.68423 4.36515 5.64781C4.34725 5.63464 4.33276 5.61738 4.32287 5.59749C4.31298 5.57759 4.30798 5.55562 4.30827 5.53341C4.30289 5.4375 4.33524 5.34329 4.3984 5.27091C5.07346 4.69187 5.66474 4.39394 6.31596 4.30534C6.38552 4.29551 6.4557 4.29061 6.52596 4.29069C6.62047 4.2792 6.71636 4.29022 6.80581 4.32284C6.89526 4.35545 6.97574 4.40875 7.04068 4.47837C7.08797 4.55951 7.11536 4.6507 7.12061 4.74446C7.12586 4.83823 7.10881 4.93191 7.07086 5.01781L6.87399 5.68806C6.60522 6.61119 6.33776 7.5346 6.07161 8.45831C6.06409 8.49956 6.0635 8.54177 6.06986 8.58322C6.10226 8.58755 6.13518 8.58546 6.16677 8.57709C6.27177 8.52941 6.37349 8.47472 6.47543 8.41981C6.57736 8.36491 6.67471 8.31219 6.7773 8.26494C6.82997 8.23898 6.88854 8.22734 6.94714 8.23118C7.00573 8.23502 7.06228 8.2542 7.11111 8.28681C7.1507 8.31946 7.18288 8.36017 7.20551 8.40622C7.22814 8.45227 7.2407 8.50262 7.24236 8.55391C7.23916 8.58894 7.22819 8.62283 7.21026 8.6531C7.19232 8.68337 7.16787 8.70927 7.13868 8.72891Z" fill="#7B7D82"/>
</svg>
