<svg width="24" height="24" viewBox="0 0 24 24" fill="none" xmlns="http://www.w3.org/2000/svg">
<path fill-rule="evenodd" clip-rule="evenodd" d="M0.45845 11.9999C0.45845 5.55992 5.67345 0.333252 12.1251 0.333252C18.5651 0.333252 23.7918 5.55992 23.7918 11.9999C23.7918 18.4399 18.5651 23.6666 12.1251 23.6666C5.67345 23.6666 0.45845 18.4399 0.45845 11.9999ZM6.89845 13.3999C6.12845 13.3999 5.49845 12.7699 5.49845 11.9999C5.49845 11.2299 6.12845 10.6011 6.89845 10.6011C7.66845 10.6011 8.28678 11.2299 8.28678 11.9999C8.28678 12.7699 7.66845 13.3999 6.89845 13.3999ZM10.7251 11.9999C10.7251 12.7699 11.3551 13.3999 12.1251 13.3999C12.8951 13.3999 13.5135 12.7699 13.5135 11.9999C13.5135 11.2299 12.8951 10.6011 12.1251 10.6011C11.3551 10.6011 10.7251 11.2299 10.7251 11.9999ZM15.9518 11.9999C15.9518 12.7699 16.5701 13.3999 17.3518 13.3999C18.1218 13.3999 18.7401 12.7699 18.7401 11.9999C18.7401 11.2299 18.1218 10.6011 17.3518 10.6011C16.5701 10.6011 15.9518 11.2299 15.9518 11.9999Z" fill="#246BFD"/>
</svg>
