<svg width="48" height="49" viewBox="0 0 48 49" fill="none" xmlns="http://www.w3.org/2000/svg">
<rect y="0.5" width="48" height="48" rx="24" fill="#E9E9EA" fill-opacity="0.5"/>
<path d="M24 34.25C23.012 34.25 22.124 33.737 21.622 32.878C21.414 32.52 21.534 32.061 21.892 31.852C22.248 31.644 22.708 31.764 22.918 32.122C23.377 32.909 24.623 32.909 25.082 32.122C25.291 31.764 25.751 31.644 26.108 31.852C26.466 32.06 26.587 32.52 26.378 32.878C25.876 33.737 24.988 34.25 24 34.25ZM32.675 30.825C32.8 30.565 32.765 30.257 32.586 30.032C32.567 30.009 30.745 27.689 30.745 25V21.495C30.745 17.776 27.719 14.75 24 14.75C20.281 14.75 17.255 17.776 17.255 21.495V25C17.255 27.689 15.433 30.009 15.414 30.032C15.235 30.257 15.2 30.566 15.325 30.825C15.45 31.084 15.712 31.25 16 31.25H32C32.288 31.25 32.55 31.084 32.675 30.825ZM18.755 25V21.495C18.755 18.603 21.108 16.25 24 16.25C26.892 16.25 29.245 18.603 29.245 21.495V25C29.245 26.936 29.995 28.658 30.613 29.75H17.386C18.005 28.658 18.755 26.936 18.755 25Z" fill="#23262F"/>
<circle cx="31" cy="17.5" r="4" fill="#E53935"/>
</svg>
