<svg width="226" height="226" viewBox="0 0 226 226" fill="none" xmlns="http://www.w3.org/2000/svg">
<path d="M45.3757 19.0341C45.2602 16.523 47.3243 14.2028 49.8053 13.9366C51.1211 13.8412 52.442 13.8914 53.7578 13.8763C54.5513 13.9366 55.6009 13.6302 55.9625 14.6096C53.7729 14.7904 51.5631 14.5192 49.3784 14.7904C47.4398 15.2172 46.0587 17.1408 46.0939 19.0994C46.0738 30.8163 46.0939 42.5331 46.0838 54.2449C45.893 56.7812 48.1781 59.1466 50.7394 58.9357C62.9485 58.9256 75.1575 58.9407 87.3665 58.9256C88.4362 58.7549 89.2046 59.5986 90.0082 60.1511C92.3335 61.8787 94.6085 63.6767 97.0192 65.2888C97.0192 49.8856 97.0293 34.4825 97.0142 19.0793C97.0795 16.8344 95.1961 14.6748 92.901 14.6949C82.7009 14.6598 72.4957 14.6799 62.2956 14.6899C61.5573 14.5392 60.3168 15.0867 60.141 13.9416C70.8886 13.8311 81.6361 13.9316 92.3787 13.8864C95.2213 13.6754 97.9182 16.2016 97.7474 19.0793C97.6872 34.9596 97.873 50.8449 97.652 66.7201C94.3825 64.435 91.2386 61.9792 88.0093 59.6388C75.5793 59.6689 63.1493 59.6438 50.7143 59.6539C47.9772 59.91 45.3757 57.5144 45.3857 54.7723C45.3556 42.8596 45.3757 30.9468 45.3757 19.0341Z" fill="#FF4848"/>
<path d="M61.3013 29.4602C61.3766 25.0457 64.4703 20.8421 68.7743 19.7071C73.5404 18.2155 79.0599 20.9124 80.9432 25.5027C82.7562 29.6209 81.4655 34.9093 77.8143 37.5912C76.6391 38.4852 75.1174 38.9924 74.2737 40.2681C73.1638 41.7044 73.5103 43.6279 73.44 45.3204C72.1744 45.3154 70.9088 45.3154 69.6432 45.3154C69.4172 42.0309 70.1354 38.3144 72.9629 36.2653C74.7257 35.1152 76.835 34.0957 77.5733 31.9513C79.2155 28.3754 76.6492 23.8956 72.8674 23.1674C69.0003 22.183 65.0679 25.5881 65.0026 29.4853C63.7672 29.4602 62.5367 29.4602 61.3013 29.4602Z" fill="#FF4848"/>
<path d="M144.69 23.5743C144.931 22.8963 145.519 23.6245 145.644 23.9509C148.16 28.3705 150.802 32.7248 153.213 37.1996C147.769 37.4004 142.305 37.3 136.855 37.2548C139.331 32.6193 142.033 28.1043 144.69 23.5743ZM138.171 36.4563C142.752 36.4563 147.327 36.4713 151.907 36.4512C149.582 32.5339 147.327 28.5714 145.062 24.6239C142.716 28.5412 140.512 32.5389 138.171 36.4563Z" fill="#48C5E9"/>
<path d="M70.0048 49.9207C71.6571 48.5647 74.5147 50.0865 74.2485 52.231C74.4494 54.1796 71.9986 55.6712 70.3413 54.6768C68.5081 53.8833 68.3223 50.9654 70.0048 49.9207Z" fill="#FF4848"/>
<path d="M177.882 60.8289C178.339 60.1861 178.63 59.1314 179.635 59.3424C176.652 64.4449 173.473 69.432 170.434 74.4994C170.022 74.9514 169.766 76.1266 168.998 75.5189C171.825 70.5469 174.969 65.7507 177.882 60.8289Z" fill="#FFBB23"/>
<path d="M111.483 70.773C116.48 68.8696 121.93 68.3121 127.233 68.8244C129.357 69.0303 131.467 69.3668 133.546 69.8389C135.801 70.3361 138.026 70.9639 140.205 71.7323C142.214 72.4404 144.193 73.254 146.096 74.2132C152.058 77.1563 157.291 81.7164 160.606 87.5171C163.951 93.2676 165.447 99.9019 165.959 106.486C166.577 115.19 165.764 123.923 164.483 132.531C164.272 134.204 163.75 135.886 164.056 137.584C168.114 133.912 171.765 129.799 175.783 126.088L176.19 126.113C177.998 127.584 179.504 129.392 181.207 130.989C177.782 134.269 174.507 137.704 171.107 141.004C170.605 141.511 170.068 141.998 169.721 142.626C173.493 146.528 177.385 150.315 181.217 154.162C179.419 155.854 177.757 157.688 175.908 159.325C172.087 155.433 168.224 151.581 164.337 147.749C163.368 148.979 161.515 149.868 161.66 151.671C161.399 159.737 163.549 167.632 166.331 175.13C168.676 181.684 171.333 188.755 169.465 195.776C168.912 198.674 166.221 200.472 163.599 201.341C158.968 202.888 154.012 203.033 149.175 202.978C138.126 202.591 127.168 200.778 116.415 198.267C118.047 197.127 119.514 195.741 120.754 194.179C129.945 196.223 139.236 197.951 148.638 198.634C152.796 198.84 157.05 199.081 161.128 198.061C162.484 197.659 164.176 196.941 164.362 195.344C164.352 193.752 163.182 192.502 162.127 191.447C158.898 188.489 155.006 186.395 151.159 184.371C141.712 179.595 131.773 175.873 121.749 172.518C113.944 169.927 106.029 167.667 98.0489 165.673C86.769 162.936 75.3484 160.565 63.7571 159.676C59.5736 159.44 55.2947 159.214 51.1815 160.214C49.7451 160.616 47.8116 161.419 47.8618 163.197C48.0828 165.181 49.7502 166.572 51.1564 167.812C55.3851 171.192 60.2767 173.603 65.1332 175.928C72.32 179.273 79.7379 182.091 87.226 184.697C87.4871 186.661 87.9894 188.599 88.7879 190.422C84.524 189.187 80.3958 187.545 76.2675 185.938C68.8346 182.944 61.4971 179.62 54.677 175.381C51.066 173.071 47.4801 170.544 44.8183 167.139C43.3468 165.206 42.1415 162.685 42.8798 160.224C43.8039 156.799 45.7575 153.725 48.1682 151.159C51.749 147.322 56.0882 144.328 60.0859 140.954C65.309 136.65 70.0299 131.612 73.3044 125.651C75.5895 121.663 77.0058 117.279 78.7836 113.06C82.6407 103.729 86.8594 94.4377 92.7755 86.2013C97.5366 79.582 103.734 73.6558 111.483 70.773Z" fill="#226CEB"/>
<path d="M194.561 75.5793C194.732 75.6647 195.078 75.8405 195.254 75.9259C190.915 78.658 186.274 80.8728 181.814 83.404C180.509 84.0468 179.293 85.0613 177.787 85.1165C178.329 84.549 178.957 84.0769 179.645 83.7053C184.627 81.0134 189.609 78.3265 194.561 75.5793Z" fill="#FFBB23"/>
<path d="M178.987 97.1198C186.073 97.0695 193.155 97.5015 200.241 97.5868C200.246 97.7676 200.251 98.1393 200.256 98.3201C193.245 98.2096 186.239 97.9635 179.233 97.8028C179.173 97.632 179.047 97.2905 178.987 97.1198Z" fill="#FFBB23"/>
<path d="M201.12 174.572C205.083 173.422 209.477 176.697 209.562 180.805C209.869 184.516 206.599 187.997 202.888 187.962C199.468 188.102 196.279 185.24 196.017 181.835C195.611 178.58 197.951 175.321 201.12 174.572ZM201.467 175.376C199.628 175.778 198.031 177.119 197.313 178.856C195.842 182.03 197.881 186.139 201.291 186.912C204.806 187.967 208.724 185.009 208.714 181.347C208.96 177.621 205.098 174.412 201.467 175.376Z" fill="#48C5E9"/>
<path d="M53.4866 200.09C55.6462 201.733 57.3939 203.832 59.3375 205.705C61.4217 203.957 62.9384 201.406 65.4295 200.231C64.2091 202.702 61.6929 204.224 59.9402 206.303C61.8185 208.236 63.8726 210.009 65.56 212.119C64.641 212.51 64.1287 211.621 63.5511 211.144C62.155 209.733 60.7538 208.327 59.3626 206.911C57.5044 208.608 55.8722 210.547 53.9587 212.169C53.351 212.591 53.2405 211.692 53.6624 211.42C55.3047 209.673 57.0574 208.03 58.7449 206.318C57.0373 204.5 55.0887 202.888 53.5268 200.939L53.4866 200.09Z" fill="#226CEB"/>
<path d="M128.92 60.0959C131.306 56.505 135.921 54.5262 140.165 55.3951C144.56 56.1434 148.261 59.8096 149.054 64.194C149.843 67.7799 148.537 71.5516 146.096 74.2134C144.193 73.2541 142.214 72.4405 140.205 71.7324C141.571 70.8736 142.988 69.839 143.475 68.2118C144.655 65.2035 142.631 61.5373 139.497 60.8492C136.479 59.9955 133.109 62.1851 132.587 65.2537C132.15 66.8608 132.883 68.4177 133.546 69.839C131.467 69.3669 129.357 69.0304 127.233 68.8245C126.65 65.8363 127.168 62.6171 128.92 60.0959Z" fill="url(#paint0_linear_6_3807)"/>
<path d="M16.4226 97.8982C28.2248 94.0712 40.0522 90.3297 51.8594 86.5178C54.6015 94.7794 57.1579 103.096 59.8749 111.368C59.91 111.795 60.5127 112.689 59.7493 112.789C48.1028 116.536 36.4563 120.297 24.7896 123.974C23.5491 119.931 21.9671 115.973 21.0782 111.835C21.6608 112.031 22.0174 112.422 22.1479 113.01C23.1524 116.079 24.0966 119.167 25.1161 122.231C27.5217 117.259 29.8269 112.242 32.1371 107.229C27.3108 104.512 22.4844 101.775 17.6581 99.0533C18.5822 102.107 19.7925 105.08 20.4404 108.209C19.5464 108.078 19.4108 107.169 19.1547 106.506C18.2557 103.634 17.3266 100.771 16.4226 97.8982ZM18.0347 98.2548C23.9559 101.68 29.9374 105 35.8938 108.37C38.0182 109.68 41.1068 108.761 42.0862 106.441C44.994 100.234 47.917 94.0311 50.7696 87.7935C39.8463 91.2387 28.9531 94.7844 18.0347 98.2548ZM44.5069 103.287C49.3383 106.004 54.1646 108.731 58.9859 111.458C56.51 103.739 54.0491 96.0098 51.5531 88.2957C49.1323 93.2526 46.8673 98.2949 44.5069 103.287ZM44.1453 104.05C43.171 106.185 42.2921 108.857 39.7609 109.575C37.2699 110.509 34.9546 108.872 32.9206 107.641C30.525 112.684 28.2248 117.766 25.8091 122.798C36.7475 119.238 47.7261 115.797 58.6645 112.237C53.8131 109.525 48.9817 106.782 44.1453 104.05Z" fill="#48C5E9"/>
<path d="M87.226 184.697C86.332 176.868 90.9073 168.943 98.0489 165.673C106.029 167.667 113.944 169.927 121.749 172.518C123.813 176.265 125.114 180.569 124.516 184.878C124.134 188.243 122.803 191.487 120.754 194.179C119.514 195.741 118.047 197.127 116.415 198.267C112.337 200.999 107.174 202.139 102.348 201.145C96.4367 200.055 91.2136 195.922 88.7879 190.423C87.9894 188.6 87.4871 186.661 87.226 184.697Z" fill="url(#paint1_linear_6_3807)"/>
<path d="M51.1815 160.214C55.2947 159.214 59.5736 159.44 63.7571 159.676C75.3484 160.565 86.7689 162.936 98.0489 165.673C90.9073 168.942 86.332 176.867 87.226 184.697C79.7378 182.091 72.32 179.273 65.1332 175.928C60.2767 173.603 55.3851 171.192 51.1564 167.812C49.7502 166.572 48.0828 165.181 47.8618 163.197C47.8116 161.419 49.7451 160.616 51.1815 160.214Z" fill="#0C419D"/>
<path d="M121.749 172.518C131.773 175.873 141.712 179.595 151.159 184.371C155.006 186.395 158.898 188.489 162.127 191.447C163.182 192.502 164.352 193.752 164.362 195.344C164.177 196.941 162.484 197.66 161.128 198.061C157.05 199.081 152.796 198.84 148.638 198.634C139.236 197.951 129.945 196.223 120.754 194.179C122.803 191.487 124.134 188.243 124.516 184.878C125.114 180.569 123.813 176.265 121.749 172.518Z" fill="#0C419D"/>
<defs>
<linearGradient id="paint0_linear_6_3807" x1="135.994" y1="53.1536" x2="138.911" y2="74.973" gradientUnits="userSpaceOnUse">
<stop stop-color="#FFB26B"/>
<stop offset="1" stop-color="#F28826"/>
</linearGradient>
<linearGradient id="paint1_linear_6_3807" x1="102.265" y1="161.835" x2="108.379" y2="202.752" gradientUnits="userSpaceOnUse">
<stop stop-color="#FFB26B"/>
<stop offset="1" stop-color="#F28826"/>
</linearGradient>
</defs>
</svg>
