<svg width="24" height="24" viewBox="0 0 24 24" fill="none" xmlns="http://www.w3.org/2000/svg">
<path fill-rule="evenodd" clip-rule="evenodd" d="M15.4948 11.2866C16.2376 11.2892 16.9667 11.0862 17.6013 10.7C18.2452 11.0854 18.9835 11.284 19.7338 11.2737L22.145 10.4823C22.8236 9.97668 23.2903 9.27536 23.4653 8.49692C23.6401 7.71476 23.5123 6.89542 23.1075 6.2037C22.7011 5.49914 22.038 4.94172 21.2311 4.62541C21.0463 3.8716 20.5822 3.19685 19.9146 2.71397L17.5618 1.97117H17.296C16.773 1.28152 15.9874 0.789562 15.0884 0.589278L10.0437 0.333252C9.20497 0.396124 8.4142 0.711781 7.79909 1.22967C7.50714 1.16754 7.20959 1.13539 6.9111 1.13374C6.19527 1.133 5.49206 1.32222 4.87327 1.68209C4.26723 2.03858 3.78759 2.54609 3.49397 3.14306L1.57669 4.36809C1.10586 4.93433 0.84689 5.64684 0.844261 6.38324C0.839724 6.68659 0.884447 6.98863 0.976487 7.28031C0.474157 7.86949 0.203224 8.59284 0.208409 9.33694C0.207113 10.199 0.572031 11.0293 1.22862 11.6567C1.28113 12.2738 1.5203 12.8669 1.91957 13.3705C2.33326 13.8848 2.87646 14.2797 3.49332 14.5145C4.20609 14.9133 4.82099 15.466 5.29328 16.1323C5.74664 16.7735 6.03797 17.515 6.14238 18.2933H7.90539V13.2739L6.19229 11.752L5.03401 12.9109C4.91239 13.0325 4.74747 13.1007 4.57553 13.1007C4.40359 13.1006 4.23872 13.0322 4.11718 12.9106C3.99564 12.789 3.9274 12.6241 3.92746 12.4521C3.92752 12.2802 3.99588 12.1153 4.1175 11.9938L5.46828 10.6436L5.0567 8.3796L3.22498 7.46374C3.07121 7.38681 2.9543 7.25195 2.89996 7.08882C2.84563 6.9257 2.85832 6.74767 2.93525 6.5939C3.01217 6.44013 3.14704 6.32322 3.31016 6.26888C3.47329 6.21455 3.65132 6.22724 3.80509 6.30417L5.59857 7.20123L7.84187 5.77332L7.15093 3.92993C7.09422 3.76988 7.10259 3.59397 7.17423 3.44002C7.24587 3.28607 7.37505 3.16638 7.53401 3.10669C7.69297 3.04699 7.86901 3.05206 8.02427 3.1208C8.17954 3.18954 8.30163 3.31646 8.3643 3.47427L9.10191 5.44081H10.0087L10.43 4.59949L9.8136 3.16185C9.74873 3.00439 9.74844 2.82772 9.81279 2.67004C9.87714 2.51236 10.001 2.38634 10.1575 2.31924C10.314 2.25213 10.4907 2.24932 10.6493 2.31142C10.8078 2.37352 10.9356 2.49554 11.0049 2.6511L11.5403 3.90012L13.6793 4.28902C13.6912 4.27773 13.7035 4.26692 13.7162 4.25661L15.0424 3.19621C15.1768 3.0916 15.347 3.04412 15.5162 3.06403C15.6853 3.08394 15.8399 3.16965 15.9463 3.30261C16.0528 3.43557 16.1027 3.6051 16.0851 3.77453C16.0676 3.94396 15.984 4.09968 15.8526 4.20799L14.8985 4.97154L16.0191 6.41241L16.4586 5.5335C16.5124 5.42585 16.5951 5.3353 16.6974 5.27199C16.7998 5.20869 16.9177 5.17512 17.0381 5.17506H18.6293C18.8012 5.17506 18.9661 5.24335 19.0876 5.3649C19.2092 5.48646 19.2775 5.65132 19.2775 5.82323C19.2775 5.99513 19.2092 6.16 19.0876 6.28155C18.9661 6.40311 18.8012 6.47139 18.6293 6.47139H17.4386L17.1671 7.01521L18.5049 7.31207C18.5567 7.32373 18.6066 7.34188 18.6539 7.36522L19.7143 7.89542C19.7905 7.93347 19.8585 7.98615 19.9143 8.05045C19.9701 8.11476 20.0127 8.18943 20.0397 8.2702C20.0667 8.35097 20.0774 8.43626 20.0714 8.5212C20.0654 8.60615 20.0428 8.68908 20.0047 8.76526C19.9667 8.84144 19.914 8.90938 19.8497 8.9652C19.7854 9.02102 19.7107 9.06363 19.6299 9.0906C19.4668 9.14505 19.2887 9.13248 19.1349 9.05564L18.1458 8.56044L15.837 8.04774C15.6898 8.01483 15.5587 7.93163 15.4663 7.81245L13.7616 5.62165L11.6466 5.23728C11.606 5.27515 11.5607 5.30761 11.5118 5.33386L11.0574 6.24194V6.76631H11.9999C12.1006 6.76612 12.2001 6.78942 12.2902 6.83437L14.4117 7.89542C14.4878 7.93351 14.5557 7.98622 14.6115 8.05055C14.6673 8.11488 14.7098 8.18956 14.7367 8.27033C14.7636 8.3511 14.7743 8.43638 14.7683 8.5213C14.7622 8.60622 14.7395 8.68912 14.7014 8.76526C14.6633 8.8414 14.6106 8.90929 14.5463 8.96505C14.482 9.02082 14.4073 9.06337 14.3265 9.09027C14.2457 9.11718 14.1605 9.12791 14.0755 9.12185C13.9906 9.1158 13.9077 9.09308 13.8316 9.05499L11.8469 8.06264H11.0574V9.27083C11.0574 9.44273 10.9891 9.6076 10.8676 9.72915C10.746 9.85071 10.5812 9.91899 10.4093 9.91899C10.2374 9.91899 10.0725 9.85071 9.95094 9.72915C9.82938 9.6076 9.7611 9.44273 9.7611 9.27083V6.73714H8.74218L6.35174 8.25774L6.76462 10.5263L8.98394 12.4987C9.05225 12.5595 9.1069 12.6341 9.14433 12.7176C9.18175 12.801 9.20109 12.8914 9.20108 12.9829V18.2933H11.0924V14.7057C11.0939 14.0613 11.292 13.4327 11.6602 12.9038C12.0472 12.3504 12.5794 11.9146 13.1983 11.6444C13.5548 11.5213 13.6417 11.356 13.7493 11.1531C13.8206 11.0183 13.9009 10.8666 14.0753 10.6994C14.2263 10.7934 14.3436 10.8757 14.4454 10.9476C14.7611 11.17 14.927 11.2873 15.4954 11.2873L15.4948 11.2866ZM11.2272 21.0934H6.04191V19.7971H11.2272V21.0934ZM11.2272 23.6861H6.04191V22.3897H11.2272V23.6861Z" fill="url(#paint0_linear_92_494)"/>
<defs>
<linearGradient id="paint0_linear_92_494" x1="23.5417" y1="23.6861" x2="-4.22649" y2="15.6417" gradientUnits="userSpaceOnUse">
<stop stop-color="#246BFD"/>
<stop offset="1" stop-color="#5089FF"/>
</linearGradient>
</defs>
</svg>
