<svg width="40" height="40" viewBox="0 0 40 40" fill="none" xmlns="http://www.w3.org/2000/svg">
<rect width="40" height="40" rx="20" fill="#DBEAFE"/>
<path d="M27.5 16.6665V17.7082H12.5V16.6665C12.5 14.9998 13.3333 14.1665 15 14.1665H25C26.6667 14.1665 27.5 14.9998 27.5 16.6665ZM27.5 18.9582V23.3332C27.5 24.9998 26.6667 25.8332 25 25.8332H15C13.3333 25.8332 12.5 24.9998 12.5 23.3332V18.9582H27.5ZM18.9583 22.4998C18.9583 22.1548 18.6783 21.8748 18.3333 21.8748H15.8333C15.4883 21.8748 15.2083 22.1548 15.2083 22.4998C15.2083 22.8448 15.4883 23.1248 15.8333 23.1248H18.3333C18.6783 23.1248 18.9583 22.8448 18.9583 22.4998Z" fill="#2563EB"/>
</svg>
