<svg width="24" height="24" viewBox="0 0 24 24" fill="none" xmlns="http://www.w3.org/2000/svg">
<path d="M17.6252 14.174L20.2682 15.75C20.8142 16.076 21.0961 16.71 20.9711 17.334C20.4601 19.893 17.8902 21.533 15.3732 20.842C9.4342 19.212 4.79509 14.587 3.15909 8.635C2.46709 6.117 4.10519 3.54498 6.66519 3.03298L6.68204 3.02999C7.30704 2.90499 7.94419 3.18799 8.26919 3.73699L9.83218 6.376C10.3882 7.314 10.112 8.52398 9.20303 9.12798L7.54214 10.233C8.71414 13.04 10.9541 15.289 13.7531 16.459L14.8681 14.794C15.4771 13.887 16.6872 13.615 17.6252 14.174ZM17.7502 9.99999C17.7502 7.93199 16.0672 6.24999 14.0002 6.24999C13.5862 6.24999 13.2502 6.58599 13.2502 6.99999C13.2502 7.41399 13.5862 7.74999 14.0002 7.74999C15.2402 7.74999 16.2502 8.75899 16.2502 9.99999C16.2502 10.414 16.5862 10.75 17.0002 10.75C17.4142 10.75 17.7502 10.414 17.7502 9.99999ZM20.0002 10.75C19.5862 10.75 19.2502 10.414 19.2502 9.99999C19.2502 7.10499 16.8952 4.74999 14.0002 4.74999C13.5862 4.74999 13.2502 4.41399 13.2502 3.99999C13.2502 3.58599 13.5862 3.24999 14.0002 3.24999C17.7222 3.24999 20.7502 6.27799 20.7502 9.99999C20.7502 10.414 20.4142 10.75 20.0002 10.75Z" fill="#2563EB"/>
</svg>
