<svg width="18" height="18" viewBox="0 0 18 18" fill="none" xmlns="http://www.w3.org/2000/svg">
<path d="M14.6252 11.1742L17.2682 12.7502C17.8142 13.0762 18.0961 13.7102 17.9711 14.3342C17.4601 16.8932 14.8902 18.5332 12.3732 17.8422C6.4342 16.2122 1.79509 11.5872 0.159086 5.63524C-0.532914 3.11724 1.10519 0.545222 3.66519 0.0332217L3.68204 0.030231C4.30704 -0.094769 4.94419 0.188232 5.26919 0.737232L6.83218 3.37624C7.38818 4.31424 7.11203 5.52422 6.20303 6.12822L4.54214 7.23323C5.71414 10.0402 7.95408 12.2892 10.7531 13.4592L11.8681 11.7942C12.4771 10.8872 13.6872 10.6152 14.6252 11.1742ZM14.7502 7.00023C14.7502 4.93223 13.0672 3.25023 11.0002 3.25023C10.5862 3.25023 10.2502 3.58623 10.2502 4.00023C10.2502 4.41423 10.5862 4.75023 11.0002 4.75023C12.2402 4.75023 13.2502 5.75923 13.2502 7.00023C13.2502 7.41423 13.5862 7.75023 14.0002 7.75023C14.4142 7.75023 14.7502 7.41423 14.7502 7.00023ZM17.0002 7.75023C16.5862 7.75023 16.2502 7.41423 16.2502 7.00023C16.2502 4.10523 13.8952 1.75023 11.0002 1.75023C10.5862 1.75023 10.2502 1.41423 10.2502 1.00023C10.2502 0.586232 10.5862 0.250232 11.0002 0.250232C14.7222 0.250232 17.7502 3.27823 17.7502 7.00023C17.7502 7.41423 17.4142 7.75023 17.0002 7.75023Z" fill="#2563EB"/>
</svg>
