<svg width="37" height="37" viewBox="0 0 37 37" fill="none" xmlns="http://www.w3.org/2000/svg">
<rect y="0.160645" width="37" height="36" rx="12" fill="#246BFD" fill-opacity="0.1"/>
<g clip-path="url(#clip0_1139_2249)">
<path d="M23.4451 21.0679C22.8244 20.4873 22.0494 20.4873 21.4327 21.0679C20.9622 21.5099 20.4917 21.9519 20.0291 22.4013C19.9026 22.5249 19.7958 22.5512 19.6416 22.4688C19.3372 22.3114 19.013 22.1841 18.7204 22.0118C17.3564 21.199 16.2137 20.154 15.2016 18.9778C14.6995 18.3935 14.2527 17.768 13.9403 17.0638C13.8771 16.9215 13.889 16.8278 14.0115 16.7117C14.482 16.281 14.9406 15.839 15.4032 15.397C16.0477 14.7827 16.0477 14.0636 15.3993 13.4455C15.0316 13.0934 14.6639 12.7488 14.2962 12.3968C13.9166 12.0372 13.541 11.6739 13.1575 11.318C12.5368 10.7449 11.7618 10.7449 11.1451 11.3218C10.6706 11.7637 10.2159 12.217 9.73359 12.6515C9.28682 13.0522 9.06146 13.5429 9.01401 14.116C8.93889 15.0487 9.18007 15.9289 9.52009 16.7866C10.2159 18.5621 11.2755 20.139 12.5605 21.5848C14.2962 23.54 16.3679 25.087 18.7916 26.2031C19.8828 26.7051 21.0136 27.0909 22.2432 27.1545C23.0893 27.1995 23.8247 26.9972 24.4138 26.3717C24.817 25.9447 25.2717 25.5552 25.6987 25.1469C26.3313 24.5401 26.3353 23.8059 25.7066 23.2066C24.9554 22.4912 24.2003 21.7796 23.4451 21.0679Z" fill="#246BFD"/>
<path d="M22.6899 18.0826L24.1489 17.8467C23.9196 16.5769 23.287 15.427 22.3262 14.513C21.3101 13.5504 20.0251 12.9436 18.6097 12.7563L18.4041 14.146C19.4993 14.2921 20.4956 14.7603 21.2824 15.5056C22.0257 16.2098 22.512 17.1013 22.6899 18.0826Z" fill="#246BFD"/>
<path d="M24.9712 12.0747C23.287 10.4791 21.1559 9.47153 18.8034 9.16064L18.5978 10.5503C20.6301 10.82 22.4725 11.6927 23.9275 13.0673C25.3073 14.3746 26.2127 16.0264 26.5409 17.843L27.9998 17.607C27.6163 15.502 26.5685 13.5917 24.9712 12.0747Z" fill="#246BFD"/>
</g>
<defs>
<clipPath id="clip0_1139_2249">
<rect width="19" height="18" fill="white" transform="translate(9 9.16064)"/>
</clipPath>
</defs>
</svg>
