<svg width="40" height="40" viewBox="0 0 40 40" fill="none" xmlns="http://www.w3.org/2000/svg">
<rect width="40" height="40" rx="20" fill="#DBEAFE"/>
<path d="M19.9996 28.3335C20.9163 28.3335 21.6663 27.5835 21.6663 26.6668H18.333C18.333 27.1089 18.5086 27.5328 18.8211 27.8453C19.1337 28.1579 19.5576 28.3335 19.9996 28.3335ZM24.9996 23.3335V19.1668C24.9996 16.6085 23.633 14.4668 21.2496 13.9002V13.3335C21.2496 12.6418 20.6913 12.0835 19.9996 12.0835C19.308 12.0835 18.7496 12.6418 18.7496 13.3335V13.9002C16.358 14.4668 14.9996 16.6002 14.9996 19.1668V23.3335L13.9246 24.4085C13.3996 24.9335 13.7663 25.8335 14.508 25.8335H25.483C26.2246 25.8335 26.5996 24.9335 26.0746 24.4085L24.9996 23.3335Z" fill="#2563EB"/>
</svg>
