<svg width="20" height="20" viewBox="0 0 20 20" fill="none" xmlns="http://www.w3.org/2000/svg">
<g opacity="0.6">
<path fill-rule="evenodd" clip-rule="evenodd" d="M9.90743 10.5155H9.9341C12.3741 10.5155 14.3583 8.53138 14.3583 6.09138C14.3583 3.65138 12.3741 1.66638 9.9341 1.66638C7.49327 1.66638 5.50827 3.65138 5.50827 6.08888C5.49993 8.52222 7.47243 10.508 9.90743 10.5155ZM6.69827 6.09138C6.69827 4.30722 8.14993 2.85638 9.9341 2.85638C11.7174 2.85638 13.1683 4.30722 13.1683 6.09138C13.1683 7.87472 11.7174 9.32638 9.9341 9.32638H9.90993C8.13327 9.31972 6.69243 7.86972 6.69827 6.09138Z" fill="#1E252D"/>
<path fill-rule="evenodd" clip-rule="evenodd" d="M3.33325 15.1442C3.33325 18.225 8.30159 18.225 9.93409 18.225C12.7666 18.225 16.5333 17.9075 16.5333 15.1608C16.5333 12.08 11.5666 12.08 9.93409 12.08C7.10075 12.08 3.33325 12.3975 3.33325 15.1442ZM4.58325 15.1442C4.58325 13.94 6.38325 13.33 9.93409 13.33C13.4841 13.33 15.2833 13.9458 15.2833 15.1608C15.2833 16.365 13.4841 16.975 9.93409 16.975C6.38325 16.975 4.58325 16.3592 4.58325 15.1442Z" fill="#1E252D"/>
</g>
</svg>
