<svg width="18" height="21" viewBox="0 0 18 21" fill="none" xmlns="http://www.w3.org/2000/svg">
<path d="M11.8016 9.53623C13.1176 8.57648 13.9745 7.02324 13.9745 5.27342C13.9745 2.36565 11.6089 0 8.70113 0C5.79336 0 3.42771 2.36565 3.42771 5.27342C3.42771 7.02324 4.28463 8.57648 5.60063 9.53623C2.3293 10.7881 0 13.9598 0 17.666C0 19.2652 1.3011 20.5663 2.90038 20.5663H14.5019C16.1011 20.5663 17.4022 19.2652 17.4022 17.666C17.4022 13.9598 15.073 10.7881 11.8016 9.53623ZM5.00975 5.27342C5.00975 3.23799 6.6657 1.58204 8.70113 1.58204C10.7365 1.58204 12.3925 3.23799 12.3925 5.27342C12.3925 7.30884 10.7365 8.96483 8.70113 8.96483C6.6657 8.96483 5.00975 7.30884 5.00975 5.27342ZM14.5019 18.9843H2.90038C2.17344 18.9843 1.58204 18.3929 1.58204 17.6659C1.58204 13.7404 4.77561 10.5468 8.70117 10.5468C12.6267 10.5468 15.8203 13.7404 15.8203 17.6659C15.8202 18.3929 15.2288 18.9843 14.5019 18.9843Z" fill="#9E9E9E"/>
</svg>
