<svg width="40" height="40" viewBox="0 0 40 40" fill="none" xmlns="http://www.w3.org/2000/svg">
<rect width="40" height="40" rx="20" fill="#DBEAFE"/>
<path d="M15.0075 15.4168C15.0075 13.5785 16.5025 12.0835 18.3409 12.0835C20.1792 12.0835 21.6742 13.5785 21.6742 15.4168C21.6742 17.2552 20.1792 18.7502 18.3409 18.7502C16.5025 18.7502 15.0075 17.2552 15.0075 15.4168ZM23.3808 21.8169C23.3808 21.7235 23.2975 21.6409 23.275 21.6168C22.55 20.9001 21.4917 20.4168 20 20.4168H16.6667C13.2833 20.4168 12.0833 22.8918 12.0833 25.0168C12.0833 26.9168 13.0917 27.9168 15 27.9168H19.3333C19.4 27.9168 19.4667 27.8919 19.5084 27.8419C19.55 27.8002 19.5833 27.7293 19.5833 27.6626V26.2502C19.5833 25.9168 19.7166 25.6001 19.95 25.3668L23.3083 21.9918C23.35 21.9502 23.3808 21.8835 23.3808 21.8169ZM20.8333 26.251V28.3335H22.9159L26.6983 24.5676L24.5992 22.4685L20.8333 26.251ZM28.09 22.0102L27.1567 21.0768C26.8317 20.7518 26.3067 20.7518 25.9817 21.0768L25.1817 21.8851L27.2809 23.9843L28.0892 23.1844C28.4142 22.8602 28.4142 22.3352 28.09 22.0102Z" fill="#2563EB"/>
</svg>
