<svg width="25" height="21" viewBox="0 0 25 21" fill="none" xmlns="http://www.w3.org/2000/svg">
<path d="M24.6652 11.8928C24.6651 11.8926 24.6651 11.8926 24.6651 11.8925L20.1476 0.549592C20.0518 0.308586 19.7786 0.19093 19.5376 0.286804C19.5374 0.286863 19.5372 0.286921 19.537 0.287039L1.21043 7.58452C1.13569 7.61681 1.07088 7.66836 1.02256 7.73388C0.870146 7.81308 0.773861 7.96984 0.772217 8.14157V20.3534C0.772217 20.6127 0.982518 20.823 1.2419 20.823H20.9686C21.228 20.823 21.4383 20.6127 21.4383 20.3534V13.6838L24.403 12.5031C24.6439 12.4069 24.7613 12.1337 24.6652 11.8928ZM20.499 19.8837H1.71159V8.61125H20.499V19.8837ZM8.6089 7.67423L16.4733 4.5405C17.1752 5.27826 18.1477 5.69757 19.166 5.70156L19.9504 7.67423H8.6089ZM21.4383 12.675V8.14157C21.4383 7.88219 21.228 7.67189 20.9686 7.67189H20.9611L19.9659 5.17222C19.9548 5.15138 19.942 5.13154 19.9273 5.11304C19.877 4.88683 19.6675 4.73248 19.4365 4.75139C18.4891 4.83775 17.5622 4.43864 16.974 3.69084C16.8276 3.51019 16.5703 3.46527 16.3714 3.58563C16.3491 3.58827 16.3269 3.59238 16.3051 3.59784L6.70386 7.42107C6.58767 7.46663 6.49473 7.55699 6.446 7.67189H3.5302L19.4487 1.3335L23.6191 11.8051L21.4383 12.675Z" fill="#FF6B6B"/>
</svg>
