<svg width="29" height="28" viewBox="0 0 29 28" fill="none" xmlns="http://www.w3.org/2000/svg">
<path d="M6.20833 25.6666C5.56667 25.6666 5.01717 25.4383 4.55983 24.9818C4.10328 24.5244 3.875 23.9749 3.875 23.3333V6.99992C3.875 6.35825 4.10328 5.80914 4.55983 5.35259C5.01717 4.89525 5.56667 4.66659 6.20833 4.66659H6.375C6.92728 4.66659 7.375 4.21887 7.375 3.66659V3.33325C7.375 2.78097 7.82272 2.33325 8.375 2.33325H8.70833C9.26062 2.33325 9.70833 2.78097 9.70833 3.33325V3.66659C9.70833 4.21887 10.156 4.66659 10.7083 4.66659H18.0417C18.594 4.66659 19.0417 4.21887 19.0417 3.66659V3.33325C19.0417 2.78097 19.4894 2.33325 20.0417 2.33325H20.375C20.9273 2.33325 21.375 2.78097 21.375 3.33325V3.66659C21.375 4.21887 21.8227 4.66659 22.375 4.66659H22.5417C23.1833 4.66659 23.7328 4.89525 24.1902 5.35259C24.6467 5.80914 24.875 6.35825 24.875 6.99992V23.3333C24.875 23.9749 24.6467 24.5244 24.1902 24.9818C23.7328 25.4383 23.1833 25.6666 22.5417 25.6666H6.20833ZM10.875 22.4583C10.875 22.9415 11.2668 23.3333 11.75 23.3333C12.2332 23.3333 12.625 22.9415 12.625 22.4583V20.9124C12.625 20.8107 12.5733 20.6573 12.4699 20.4522C12.4382 20.3893 12.3978 20.3312 12.3521 20.2775L10.0875 17.6166C9.95139 17.461 9.85417 17.2958 9.79583 17.1208C9.71667 16.8833 9.96847 16.7118 10.2079 16.7849C10.2597 16.8007 10.3117 16.8154 10.364 16.8291C10.588 16.8874 10.8167 16.9166 11.05 16.9166C11.4389 16.9166 11.8227 16.8338 12.2015 16.6681C12.5811 16.5032 12.9167 16.2652 13.2083 15.9541C13.3639 15.7985 13.5439 15.6819 13.7485 15.6041C13.9523 15.5263 14.1611 15.4874 14.375 15.4874C14.6083 15.4874 14.8269 15.5263 15.0307 15.6041C15.2352 15.6819 15.4056 15.7985 15.5417 15.9541C15.8333 16.2652 16.1736 16.5032 16.5625 16.6681C16.9514 16.8338 17.3403 16.9166 17.7292 16.9166C17.9625 16.9166 18.1861 16.8874 18.4 16.8291C18.4476 16.8161 18.4953 16.8021 18.5429 16.7872C18.7818 16.7124 19.0333 16.8833 18.9542 17.1208C18.8958 17.2958 18.7986 17.461 18.6625 17.6166L16.3827 20.2954C16.3471 20.3372 16.3146 20.3817 16.2876 20.4296C16.2474 20.501 16.2126 20.5698 16.1833 20.6359C16.1444 20.723 16.125 20.8152 16.125 20.9124V22.4583C16.125 22.9415 16.5168 23.3333 17 23.3333C17.4832 23.3333 17.875 22.9415 17.875 22.4583V21.6032C17.875 21.3645 17.9604 21.1336 18.1157 20.9524L19.975 18.7833C20.1889 18.5694 20.3787 18.2777 20.5443 17.9083C20.7092 17.5388 20.7917 17.111 20.7917 16.6249C20.7917 16.3721 20.7625 16.124 20.7042 15.8806C20.682 15.7886 20.6557 15.6972 20.6252 15.6065C20.529 15.3205 20.5199 15.0088 20.6157 14.7226C20.6422 14.6436 20.667 14.563 20.6902 14.4806C20.7578 14.2379 20.7917 13.9902 20.7917 13.7374C20.7917 13.3485 20.7283 12.974 20.6015 12.6139C20.4755 12.2546 20.2764 11.9194 20.0042 11.6083L18.1126 9.37986C17.9592 9.19913 17.875 8.96978 17.875 8.73272V7.87492C17.875 7.39167 17.4832 6.99992 17 6.99992C16.5168 6.99992 16.125 7.39167 16.125 7.87492V9.42075C16.125 9.51797 16.1398 9.6152 16.1693 9.71242C16.1981 9.80964 16.2514 9.89714 16.3292 9.97492L18.6625 12.7458C18.7792 12.9013 18.8717 13.0615 18.9402 13.2264C19.0078 13.3921 19.0417 13.5624 19.0417 13.7374C19.0417 14.1069 18.9203 14.4328 18.6777 14.7151C18.4342 14.9966 18.1181 15.1374 17.7292 15.1374C17.5736 15.1374 17.4134 15.1083 17.2485 15.0499C17.0828 14.9916 16.9319 14.8944 16.7958 14.7583C16.4653 14.4277 16.0912 14.1749 15.6735 13.9999C15.2551 13.8249 14.8222 13.7374 14.375 13.7374C13.9278 13.7374 13.4953 13.8249 13.0777 13.9999C12.6592 14.1749 12.2847 14.4277 11.9542 14.7583C11.8375 14.8944 11.7014 14.9916 11.5458 15.0499C11.3903 15.1083 11.225 15.1374 11.05 15.1374C10.6611 15.1374 10.3403 14.9966 10.0875 14.7151C9.83472 14.4328 9.70833 14.0971 9.70833 13.7083C9.70833 13.5333 9.7375 13.3629 9.79583 13.1973C9.85417 13.0324 9.95139 12.8721 10.0875 12.7166L12.3673 10.0378C12.4029 9.99594 12.4354 9.95144 12.4624 9.90359C12.5026 9.83217 12.5374 9.76339 12.5667 9.69725C12.6056 9.61014 12.625 9.51797 12.625 9.42075V7.87492C12.625 7.39167 12.2332 6.99992 11.75 6.99992C11.2668 6.99992 10.875 7.39167 10.875 7.87492V8.72999C10.875 8.96871 10.7896 9.19954 10.6343 9.38079L8.775 11.5499C8.56111 11.7638 8.37172 12.0555 8.20683 12.4249C8.04117 12.7944 7.95833 13.2221 7.95833 13.7083C7.95833 13.9805 7.9875 14.2379 8.04583 14.4806C8.06539 14.5622 8.08714 14.6422 8.11107 14.7205C8.19926 15.0091 8.19017 15.3202 8.10044 15.6084C8.07238 15.6984 8.04912 15.7892 8.03067 15.8806C7.98244 16.124 7.95833 16.3721 7.95833 16.6249C7.95833 17.111 8.04117 17.5388 8.20683 17.9083C8.37172 18.2777 8.56111 18.5694 8.775 18.7833L10.6343 20.9524C10.7896 21.1336 10.875 21.3645 10.875 21.6032V22.4583Z" fill="url(#paint0_linear_92_538)"/>
<defs>
<linearGradient id="paint0_linear_92_538" x1="24.875" y1="25.6666" x2="-0.486792" y2="19.0485" gradientUnits="userSpaceOnUse">
<stop stop-color="#246BFD"/>
<stop offset="1" stop-color="#5089FF"/>
</linearGradient>
</defs>
</svg>
