<svg width="21" height="20" viewBox="0 0 21 20" fill="none" xmlns="http://www.w3.org/2000/svg">
<path d="M11.5841 6.75697L12.6841 8.95697C12.8341 9.25697 13.2341 9.55697 13.5675 9.60697L15.5591 9.9403C16.8341 10.157 17.1341 11.0736 16.2175 11.9903L14.6675 13.5486C14.4091 13.807 14.2591 14.3153 14.3425 14.682L14.7841 16.607C15.1341 18.1236 14.3258 18.7153 12.9841 17.9236L11.1175 16.8153C10.7758 16.6153 10.2258 16.6153 9.88413 16.8153L8.00913 17.9153C6.66746 18.707 5.85913 18.1153 6.20913 16.5986L6.65079 14.6736C6.73413 14.3153 6.58413 13.807 6.32579 13.5403L4.78412 11.9986C3.86746 11.082 4.16746 10.157 5.44246 9.94864L7.43413 9.6153C7.76746 9.55697 8.16746 9.2653 8.31746 8.9653L9.41746 6.7653C10.0091 5.5653 10.9925 5.5653 11.5841 6.75697Z" fill="#2563EB"/>
<path d="M5.5 8.12337C5.15833 8.12337 4.875 7.84004 4.875 7.49837V1.66504C4.875 1.32337 5.15833 1.04004 5.5 1.04004C5.84167 1.04004 6.125 1.32337 6.125 1.66504V7.49837C6.125 7.84004 5.84167 8.12337 5.5 8.12337Z" fill="#2563EB"/>
<path d="M15.5 8.12337C15.1583 8.12337 14.875 7.84004 14.875 7.49837V1.66504C14.875 1.32337 15.1583 1.04004 15.5 1.04004C15.8417 1.04004 16.125 1.32337 16.125 1.66504V7.49837C16.125 7.84004 15.8417 8.12337 15.5 8.12337Z" fill="#2563EB"/>
<path d="M10.5 3.95671C10.1583 3.95671 9.875 3.67337 9.875 3.33171V1.66504C9.875 1.32337 10.1583 1.04004 10.5 1.04004C10.8417 1.04004 11.125 1.32337 11.125 1.66504V3.33171C11.125 3.67337 10.8417 3.95671 10.5 3.95671Z" fill="#2563EB"/>
</svg>
