<svg width="16" height="16" viewBox="0 0 16 16" fill="none" xmlns="http://www.w3.org/2000/svg">
<g clip-path="url(#clip0_845_2054)">
<path d="M14.7345 7.04139L1.83559 0.749232C1.72465 0.695119 1.60284 0.666992 1.47941 0.666992C1.03073 0.666992 0.666992 1.03073 0.666992 1.47941V1.50285C0.666992 1.61187 0.680359 1.72047 0.706799 1.82623L1.94411 6.77546C1.97791 6.91066 2.09221 7.01053 2.23069 7.02593L7.66906 7.63019C7.85766 7.65113 8.00033 7.81053 8.00033 8.00033C8.00033 8.19013 7.85766 8.34953 7.66906 8.37046L2.23069 8.97473C2.09221 8.99013 1.97791 9.08999 1.94411 9.22519L0.706799 14.1744C0.680359 14.2802 0.666992 14.3888 0.666992 14.4978V14.5213C0.666992 14.9699 1.03073 15.3337 1.47941 15.3337C1.60284 15.3337 1.72465 15.3055 1.83559 15.2514L14.7345 8.95926C15.1011 8.78046 15.3337 8.40826 15.3337 8.00033C15.3337 7.59239 15.1011 7.22019 14.7345 7.04139Z" fill="#7EAE85"/>
</g>
<defs>
<clipPath id="clip0_845_2054">
<rect width="16" height="16" fill="white"/>
</clipPath>
</defs>
</svg>
