<svg width="68" height="50" viewBox="0 0 68 50" fill="none" xmlns="http://www.w3.org/2000/svg">
<g clip-path="url(#clip0_391_2397)">
<path d="M68 43.9399H0V43.9735H68V43.9399Z" fill="#EBEBEB"/>
<path d="M61.1864 46.0991H56.6821V46.1327H61.1864V46.0991Z" fill="#EBEBEB"/>
<path d="M45.0459 46.4641H43.8641V46.4977H45.0459V46.4641Z" fill="#EBEBEB"/>
<path d="M56.5461 44.8538H53.9362V44.8873H56.5461V44.8538Z" fill="#EBEBEB"/>
<path d="M13.0084 45.0793H7.13456V45.1129H13.0084V45.0793Z" fill="#EBEBEB"/>
<path d="M15.081 45.0793H14.2202V45.1129H15.081V45.0793Z" fill="#EBEBEB"/>
<path d="M30.6204 45.6455H17.8799V45.6791H30.6204V45.6455Z" fill="#EBEBEB"/>
<path d="M32.2334 37.9552H5.97312C5.54472 37.9552 5.19656 37.6117 5.19656 37.189V0.766217C5.19656 0.343523 5.54472 0 5.97312 0H32.2347C32.6631 0 33.0113 0.343523 33.0113 0.766217V37.189C33.0099 37.6117 32.6618 37.9552 32.2334 37.9552ZM5.97312 0.0335471C5.56376 0.0335471 5.23056 0.362309 5.23056 0.766217V37.189C5.23056 37.5929 5.56376 37.9217 5.97312 37.9217H32.2347C32.6441 37.9217 32.9773 37.5929 32.9773 37.189V0.766217C32.9773 0.362309 32.6441 0.0335471 32.2347 0.0335471H5.97312Z" fill="#EBEBEB"/>
<path d="M61.6502 37.9552H35.3886C34.9602 37.9552 34.612 37.6117 34.612 37.189V0.766217C34.612 0.343523 34.9602 0 35.3886 0H61.6502C62.0786 0 62.4267 0.343523 62.4267 0.766217V37.189C62.4267 37.6117 62.0786 37.9552 61.6502 37.9552ZM35.3886 0.0335471C34.9792 0.0335471 34.646 0.362309 34.646 0.766217V37.189C34.646 37.5929 34.9792 37.9217 35.3886 37.9217H61.6502C62.0595 37.9217 62.3927 37.5929 62.3927 37.189V0.766217C62.3927 0.362309 62.0595 0.0335471 61.6502 0.0335471H35.3886Z" fill="#EBEBEB"/>
<path d="M14.6676 9.05926L19.6724 6.18628H23.5266L28.6144 8.92238V27.5384H14.6676V9.05926Z" fill="#E0E0E0"/>
<path d="M28.7572 27.5382H14.6676V9.05914L14.8118 8.9236C16.6722 7.15903 19.123 6.1875 21.7124 6.1875C24.3018 6.1875 26.7526 7.15903 28.613 8.9236L28.7572 9.05914V27.5382ZM15.6033 26.615H27.8229V9.45499C26.1555 7.94134 23.9931 7.10938 21.7124 7.10938C19.4317 7.10938 17.2693 7.94134 15.6019 9.45499V26.615H15.6033Z" fill="#FAFAFA"/>
<path d="M21.3629 26.7264H22.0633V20.5484H27.9997V19.8573H22.0633V13.5384H27.9997V12.8473H22.0633V6.98999H21.3629V12.8473H15.4265V13.5384H21.3629V19.8573H15.4265V20.5484H21.3629V26.7264Z" fill="#F0F0F0"/>
<path d="M29.225 27.9985H14.2011V8.87127L14.3385 8.73574C18.4049 4.7235 25.0226 4.7235 29.089 8.73574L29.2264 8.87127V27.9985H29.225ZM15.1354 27.0766H28.2907V9.25505C24.6242 5.77823 18.802 5.77823 15.1354 9.25505V27.0766Z" fill="#F0F0F0"/>
<path d="M47.6366 16.0476V20.0303H53.3486V16.0476H47.6366Z" fill="#E0E0E0"/>
<path d="M47.9059 16.3066V19.77H53.0807V16.3066H47.9059Z" fill="#EBEBEB"/>
<path d="M45.6558 11.0429V15.0256H51.3678V11.0429H45.6558Z" fill="#E0E0E0"/>
<path d="M45.925 11.3032V14.7666H51.0998V11.3032H45.925Z" fill="#EBEBEB"/>
<path d="M42.9179 21.1223H46.5531V16.0473H42.9179V21.1223Z" fill="#E0E0E0"/>
<path d="M43.1559 20.8835H46.3165V16.2862H43.1559V20.8835Z" fill="#EBEBEB"/>
<path d="M40.8515 15.0264H44.888V9.39045H40.8515V15.0264Z" fill="#E0E0E0"/>
<path d="M41.114 14.7605H44.6241V9.65462H41.114V14.7605Z" fill="#EBEBEB"/>
<path d="M41.6845 19.1657V16.0471H37.2114V19.1657H41.6845Z" fill="#E0E0E0"/>
<path d="M41.4737 18.9617V16.2498H37.4209V18.9617H41.4737Z" fill="#EBEBEB"/>
<path d="M34 49.9999C48.5632 49.9999 60.369 49.3199 60.369 48.4809C60.369 47.642 48.5632 46.9619 34 46.9619C19.4368 46.9619 7.63096 47.642 7.63096 48.4809C7.63096 49.3199 19.4368 49.9999 34 49.9999Z" fill="#F5F5F5"/>
<path d="M10.9303 29.3311H11.4267L12.8071 37.3274H12.3107L10.9303 29.3311Z" fill="#263238"/>
<path d="M12.7718 29.3311H13.2668L14.6486 37.3274H14.1522L12.7718 29.3311Z" fill="#263238"/>
<path d="M14.6118 29.3311H15.1082L16.4886 37.3274H15.9936L14.6118 29.3311Z" fill="#263238"/>
<path opacity="0.4" d="M10.9303 29.3311H11.4267L12.8071 37.3274H12.3107L10.9303 29.3311Z" fill="white"/>
<path opacity="0.4" d="M12.7718 29.3311H13.2668L14.6486 37.3274H14.1522L12.7718 29.3311Z" fill="white"/>
<path opacity="0.4" d="M14.6118 29.3311H15.1082L16.4886 37.3274H15.9936L14.6118 29.3311Z" fill="white"/>
<path d="M15.1681 37.5339L15.2102 39.3012L15.3993 48.371H16.0208L16.2085 39.3012L16.2506 37.5339H15.1681Z" fill="#263238"/>
<path opacity="0.4" d="M15.1681 37.5339L15.2102 39.3012L15.3993 48.371H16.0208L16.2085 39.3012L16.2506 37.5339H15.1681Z" fill="white"/>
<path opacity="0.2" d="M15.1681 37.5339L15.2102 39.3495H16.2085L16.2506 37.5339H15.1681Z" fill="black"/>
<path d="M11.7885 48.3433L12.3638 37.6592H13.3035L12.4984 48.3433H11.7885Z" fill="#263238"/>
<path opacity="0.4" d="M12.4997 48.3429H11.7898L12.3107 38.5216L12.3623 37.6467H13.3035L13.23 38.5216L12.4997 48.3429Z" fill="white"/>
<path opacity="0.2" d="M13.3035 37.6467L13.2301 38.5552H12.3107L12.3624 37.6467H13.3035Z" fill="black"/>
<path d="M18.9217 48.3433L18.1166 37.6592H19.0563L19.6316 48.3433H18.9217Z" fill="#263238"/>
<path opacity="0.4" d="M18.919 48.3429L18.1886 38.5216L18.1166 37.6467H19.0563L19.108 38.5216L19.6302 48.3429H18.919Z" fill="white"/>
<path opacity="0.2" d="M18.1166 37.6467L18.1886 38.5552H19.108L19.0563 37.6467H18.1166Z" fill="black"/>
<path d="M12.4345 36.6631H18.9842C19.3025 36.6631 19.5595 36.9167 19.5595 37.2307V37.9902H11.8592V37.2307C11.8592 36.918 12.1176 36.6631 12.4345 36.6631Z" fill="#263238"/>
<path d="M11.7218 37.3271H19.6969C19.8247 37.3271 19.9281 37.4291 19.9281 37.5553V37.7619C19.9281 37.8881 19.8247 37.99 19.6969 37.99H11.7218C11.594 37.99 11.4906 37.8881 11.4906 37.7619V37.5553C11.4906 37.4291 11.594 37.3271 11.7218 37.3271Z" fill="#263238"/>
<path opacity="0.6" d="M11.7218 37.3271H19.6969C19.8247 37.3271 19.9281 37.4291 19.9281 37.5553V37.7619C19.9281 37.8881 19.8247 37.99 19.6969 37.99H11.7218C11.594 37.99 11.4906 37.8881 11.4906 37.7619V37.5553C11.4906 37.4291 11.594 37.3271 11.7218 37.3271Z" fill="white"/>
<path d="M11.7871 30.2542C12.5854 29.7778 13.6938 29.7778 14.7533 30.2542C15.2891 30.4863 15.9215 30.5521 16.203 30.2179C16.6804 29.7268 15.8426 28.2722 14.2338 27.8119C13.0832 27.4859 11.9435 27.4859 10.9698 27.8119C9.61384 28.2722 9.57168 29.7268 10.3183 30.2179C10.7821 30.5521 11.3778 30.4863 11.7871 30.2542Z" fill="#263238"/>
<path opacity="0.6" d="M20.74 25.1363C21.1698 24.4519 21.1086 23.0644 21.1072 23.0483C21.1058 23.0335 21.1181 23.0201 21.1344 23.0201C21.1494 23.0188 21.163 23.0309 21.163 23.047C21.1657 23.1167 21.2323 24.625 20.7101 25.2745L20.74 25.1363Z" fill="white"/>
<path d="M18.4008 23.5742C18.4008 23.5742 17.952 22.6349 17.9003 21.6594C17.8486 20.6838 18.6891 19.6935 19.5323 19.8881C19.5323 19.8881 20.5374 19.4426 21.1657 19.9578C21.794 20.4718 22.4128 22.0579 21.3506 24.0519C21.3506 24.0519 19.4018 23.4561 18.4008 23.5742Z" fill="#263238"/>
<path d="M24.5602 30.1118C24.5602 30.1118 23.0724 33.9791 24.3372 35.2298" stroke="#263238" stroke-width="0.4261" stroke-miterlimit="10" stroke-linecap="round" stroke-linejoin="round"/>
<path d="M24.2026 28.2399L24.6527 27.832L25.3042 27.3918L26.3663 28.1218L25.8822 28.3593C25.8822 28.3593 25.5326 28.6908 25.0145 28.5579L24.6514 28.7042L24.2026 28.2399Z" fill="#FFA89C"/>
<path d="M22.1272 25.7522C22.6005 26.2245 22.9187 29.1727 22.9187 29.1727L24.2869 27.9757L25.0145 28.7875C25.0145 28.7875 23.2818 31.2673 22.5461 31.0728C21.8103 30.8782 21.2541 28.9445 21.2541 28.9445L22.1272 25.7522Z" fill="#407BFF"/>
<path opacity="0.6" d="M25.0158 28.7875C25.0158 28.7875 23.2832 31.2673 22.5474 31.0728C22.406 31.0352 22.27 30.9319 22.1435 30.791C21.6186 30.2019 21.2568 28.9445 21.2568 28.9445L21.4581 28.2092L22.1286 25.7522C22.6018 26.2232 22.9201 29.1727 22.9201 29.1727L24.2869 27.9757L25.0158 28.7875Z" fill="white"/>
<path opacity="0.1" d="M22.1435 30.7909C21.6186 30.2018 21.2568 28.9444 21.2568 28.9444L21.4581 28.2091L22.047 27.2644C22.047 27.2644 22.5107 29.3806 22.1435 30.7909Z" fill="black"/>
<path d="M18.3641 24.2681L20.2014 24.621C20.2014 24.621 21.0773 25.0678 21.2568 26.7331C21.4363 28.3997 21.012 31.9691 20.5156 33.0601C20.0192 34.1511 15.5312 33.3097 15.5312 33.3097L16.9347 28.4252L16.7375 25.1967L18.3641 24.2681Z" fill="#407BFF"/>
<path opacity="0.6" d="M18.3641 24.2681L20.2014 24.621C20.2014 24.621 21.0773 25.0678 21.2568 26.7331C21.4363 28.3997 21.012 31.9691 20.5156 33.0601C20.0192 34.1511 15.5312 33.3097 15.5312 33.3097L16.9347 28.4252L16.7375 25.1967L18.3641 24.2681Z" fill="white"/>
<path opacity="0.2" d="M18.3641 24.2681L20.2014 24.621C20.2014 24.621 21.0773 25.0678 21.2568 26.7331C21.4363 28.3997 21.012 31.9691 20.5156 33.0601C20.0192 34.1511 15.5312 33.3097 15.5312 33.3097L16.9347 28.4252L16.7375 25.1967L18.3641 24.2681Z" fill="black"/>
<path d="M21.8389 27.1985C21.7546 27.6025 21.7314 27.9205 21.4418 28.8652C21.2133 29.669 20.963 30.4526 20.5224 31.7542L16.3241 30.9679C16.6858 29.838 16.9293 28.3056 16.8137 25.5427C16.7865 24.9026 17.3101 24.4168 17.9384 24.5C18.1057 24.5228 18.2838 24.5497 18.4634 24.5832C19.1651 24.7134 19.739 24.8261 20.3415 25.026C20.5414 25.0931 20.7468 25.1683 20.9426 25.2434C21.6498 25.5158 21.9912 26.4739 21.8389 27.1985Z" fill="#407BFF"/>
<path d="M19.1026 22.5261C19.1216 23.1608 19.0577 24.3014 18.5681 24.606C18.5681 24.606 19.161 24.657 20.1974 25.6849C20.6706 25.2703 20.4476 25.0489 20.4476 25.0489C19.8002 24.7282 19.8995 24.2303 20.094 23.7862L19.1026 22.5261Z" fill="#FFA89C"/>
<path opacity="0.2" d="M19.5065 23.0415L20.0926 23.7876C20.0464 23.8923 20.0056 24.001 19.9798 24.1083C19.7282 24.0103 19.4208 23.6427 19.4385 23.3649C19.4466 23.2267 19.4738 23.0992 19.5065 23.0415Z" fill="black"/>
<path d="M20.9358 25.0557C20.9358 25.0557 21.8049 28.0239 20.3796 33.4237C20.3796 33.4237 22.2442 28.6479 22.1286 25.7521L20.9358 25.0557Z" fill="#407BFF"/>
<path opacity="0.6" d="M20.9358 25.0557C20.9358 25.0557 21.8049 28.0239 20.3796 33.4237C20.3796 33.4237 22.2442 28.6479 22.1286 25.7521L20.9358 25.0557Z" fill="white"/>
<path d="M20.2001 24.6208L21.6702 25.3482L21.2514 25.5293L21.7382 25.9815L21.133 29.1712C21.133 29.1725 21.2065 25.6742 20.2001 24.6208Z" fill="#407BFF"/>
<path opacity="0.7" d="M20.2001 24.6208L21.6702 25.3482L21.2514 25.5293L21.7382 25.9815L21.133 29.1712C21.133 29.1725 21.2065 25.6742 20.2001 24.6208Z" fill="white"/>
<path d="M18.8659 21.5855C18.9285 22.5906 18.9339 23.0173 19.4426 23.5581C20.2082 24.3726 21.4295 24.1418 21.6689 23.1542C21.8838 22.2645 21.745 20.7697 20.759 20.3188C19.7894 19.8746 18.8034 20.5791 18.8659 21.5855Z" fill="#FFA89C"/>
<path d="M20.2265 22.062C20.2805 22.0586 20.3198 21.9874 20.3143 21.9031C20.3087 21.8188 20.2605 21.7533 20.2065 21.7567C20.1526 21.7601 20.1133 21.8313 20.1188 21.9156C20.1243 21.9999 20.1726 22.0655 20.2265 22.062Z" fill="#263238"/>
<path d="M21.1793 21.9264C21.1806 22.0109 21.2269 22.082 21.2813 22.0847C21.3357 22.0874 21.3792 22.0216 21.3765 21.9358C21.3751 21.8512 21.3289 21.7801 21.2745 21.7774C21.2201 21.7747 21.1779 21.8418 21.1793 21.9264Z" fill="#263238"/>
<path d="M21.2514 21.7815L21.4499 21.7332C21.4499 21.7318 21.3506 21.8861 21.2514 21.7815Z" fill="#263238"/>
<path d="M20.8583 22.0955C20.8583 22.0955 21.0066 22.4672 21.1657 22.651C21.0582 22.7503 20.8692 22.6926 20.8692 22.6926L20.8583 22.0955Z" fill="#FF715E"/>
<path d="M20.3973 22.9812C20.4408 22.9906 20.487 22.9973 20.5374 22.9999C20.551 23.0013 20.5618 22.9906 20.5618 22.9758C20.5618 22.9624 20.551 22.9503 20.5374 22.9503C20.1715 22.9329 19.9961 22.6645 19.9947 22.6618C19.9866 22.6497 19.9716 22.6457 19.9607 22.6524C19.9498 22.6591 19.9471 22.6752 19.9539 22.6859C19.9594 22.698 20.1008 22.9141 20.3973 22.9812Z" fill="#263238"/>
<path d="M19.9512 21.3667C19.9634 21.3681 19.977 21.3654 19.9879 21.356C20.1484 21.2178 20.3238 21.2728 20.3252 21.2741C20.351 21.2822 20.3782 21.2688 20.385 21.2419C20.3918 21.2164 20.3755 21.1883 20.3497 21.1789C20.3402 21.1762 20.1212 21.1064 19.9213 21.2782C19.9009 21.2956 19.8995 21.3265 19.9186 21.3479C19.9267 21.3587 19.939 21.3654 19.9512 21.3667Z" fill="#263238"/>
<path d="M21.6036 21.391C21.6158 21.3937 21.6281 21.3937 21.639 21.387C21.6621 21.3736 21.6689 21.344 21.6539 21.3199C21.5084 21.0783 21.2826 21.0569 21.2731 21.0569C21.2459 21.0542 21.2242 21.0757 21.2242 21.1025C21.2242 21.1293 21.2459 21.1535 21.2718 21.1562C21.2813 21.1575 21.4554 21.1763 21.571 21.3682C21.5791 21.3789 21.5914 21.387 21.6036 21.391Z" fill="#263238"/>
<path d="M20.1892 21.76L20.3878 21.7117C20.3878 21.7117 20.2885 21.866 20.1892 21.76Z" fill="#263238"/>
<path d="M19.7907 20.6556C19.7907 20.6556 20.9535 21.4299 21.5954 21.081C21.5954 21.081 21.7478 20.0424 20.1729 19.9605C18.598 19.8787 17.0626 22.0123 19.1896 23.2334L19.1842 22.0566C19.1842 22.0579 19.7567 21.4393 19.7907 20.6556Z" fill="#263238"/>
<path d="M18.5341 22.3933C18.6483 22.6026 18.8387 22.7368 19.0169 22.7865C19.2834 22.8603 19.4058 22.6026 19.3215 22.3329C19.2467 22.0914 19.0155 21.7613 18.753 21.8055C18.4933 21.8498 18.4035 22.1544 18.5341 22.3933Z" fill="#FFA89C"/>
<path d="M20.2055 22.2872C20.1919 22.4496 20.3157 22.5932 20.4802 22.6066C20.6448 22.62 20.7903 22.4979 20.8039 22.3355C20.8175 22.1731 20.6951 22.0296 20.5292 22.0161C20.3646 22.0027 20.2191 22.1248 20.2055 22.2872Z" stroke="#263238" stroke-width="0.4261" stroke-miterlimit="10" stroke-linecap="round" stroke-linejoin="round"/>
<path d="M21.1439 22.2872C21.1303 22.4496 21.2541 22.5932 21.4186 22.6066C21.5832 22.62 21.7287 22.4979 21.7423 22.3355C21.7559 22.1731 21.6322 22.0296 21.4676 22.0161C21.3017 22.0027 21.1575 22.1248 21.1439 22.2872Z" stroke="#263238" stroke-width="0.4261" stroke-miterlimit="10" stroke-linecap="round" stroke-linejoin="round"/>
<path d="M21.1439 22.2873C21.1439 22.2873 20.9698 22.1344 20.8066 22.3034" stroke="#263238" stroke-width="0.4261" stroke-miterlimit="10" stroke-linecap="round" stroke-linejoin="round"/>
<path d="M20.2055 22.2873L19.1923 21.9612" stroke="#263238" stroke-width="0.4261" stroke-miterlimit="10" stroke-linecap="round" stroke-linejoin="round"/>
<path d="M22.1476 48.4138C21.2486 48.4138 21.1303 48.4004 20.6258 48.383C20.1933 48.3682 20.0899 48.4206 19.7431 48.4138C19.4534 48.4071 19.4643 48.1334 19.5527 47.818C19.5976 47.6597 19.667 47.3242 19.7282 47.0693L21.0446 46.9753C21.2296 47.3242 21.6485 47.8221 22.1544 47.8892C22.6372 47.9522 22.5066 48.4138 22.1476 48.4138Z" fill="#263238"/>
<path d="M16.7185 30.968C16.7185 30.968 14.5262 33.9899 15.5774 35.8458C16.6287 37.7016 22.4713 37.8452 22.4713 37.8452C22.4713 37.8452 20.9549 40.1264 19.8342 47.0129L21.1181 47.1847C21.1181 47.1847 26.3718 37.8532 25.9461 36.1772C25.5204 34.5012 20.4843 33.4129 20.4843 33.4129L20.521 31.753L16.7185 30.968Z" fill="#407BFF"/>
<path opacity="0.2" d="M21.1194 47.1847L19.8356 47.0129C20.9562 40.1264 22.4726 37.8452 22.4726 37.8452C22.4726 37.8452 19.516 37.7727 17.4311 37.0615C16.5852 36.7744 15.8821 36.3812 15.5788 35.8458C14.5275 33.9899 16.7198 30.968 16.7198 30.968L20.5238 31.7544L20.487 33.4143C20.487 33.4143 25.0172 34.3925 25.8482 35.9236C25.8944 36.0068 25.9284 36.0913 25.9502 36.1786C26.3745 37.8546 21.1194 47.1847 21.1194 47.1847Z" fill="black"/>
<path opacity="0.2" d="M21.1194 47.1847L19.8356 47.013C20.9562 40.1264 22.4726 37.8452 22.4726 37.8452C22.4726 37.8452 19.516 37.7728 17.4311 37.0616L19.5337 33.4143C19.5337 33.4143 23.747 34.0678 25.8468 35.9236C25.893 36.0068 25.927 36.0914 25.9488 36.1786C26.3745 37.8546 21.1194 47.1847 21.1194 47.1847Z" fill="black"/>
<path d="M19.8342 48.4138C18.9353 48.4138 18.817 48.4004 18.3124 48.383C17.8799 48.3682 17.7766 48.4206 17.4298 48.4138C17.1401 48.4071 17.151 48.1334 17.2394 47.818C17.2842 47.6597 17.3536 47.3242 17.4148 47.0693L18.7313 46.9753C18.9162 47.3242 19.3351 47.8221 19.841 47.8892C20.3238 47.9522 20.1933 48.4138 19.8342 48.4138Z" fill="#263238"/>
<path d="M16.3853 30.7776C16.3853 30.7776 13.5742 33.9901 14.6254 35.8459C15.6767 37.7017 21.5193 37.8453 21.5193 37.8453C21.5193 37.8453 18.6687 40.827 17.5209 47.0131L18.8047 47.1848C18.8047 47.1848 25.4198 37.8534 24.9941 36.1773C24.5684 34.5013 19.5323 33.4131 19.5323 33.4131V31.521L16.3853 30.7776Z" fill="#407BFF"/>
<path opacity="0.2" d="M16.3853 30.7776C16.3853 30.7776 13.5742 33.9901 14.6254 35.8459C15.6767 37.7017 21.5193 37.8453 21.5193 37.8453C21.5193 37.8453 18.6687 40.827 17.5209 47.0131L18.8047 47.1848C18.8047 47.1848 25.4198 37.8534 24.9941 36.1773C24.5684 34.5013 19.5323 33.4131 19.5323 33.4131V31.521L16.3853 30.7776Z" fill="black"/>
<path d="M15.0348 34.964C15.6468 33.661 16.2778 32.4023 16.8422 31.4402C18.7857 28.1177 18.3641 24.2678 18.3641 24.2678C18.3641 24.2678 16.8259 24.5255 16.6532 24.5791C16.4818 24.6328 16.0684 30.2486 16.0684 30.2486C15.2524 31.3597 14.3738 33.1538 13.5918 34.964H15.0348Z" fill="#407BFF"/>
<path opacity="0.6" d="M15.0347 34.9641C15.6467 33.6625 16.2778 32.4038 16.8408 31.4403C17.1264 30.9519 17.3617 30.4514 17.5535 29.9549C17.6269 29.7656 17.6935 29.5778 17.7547 29.3913C18.6306 26.7142 18.3627 24.2666 18.3627 24.2666C18.3627 24.2666 16.8245 24.5242 16.6531 24.5779C16.596 24.5967 16.5103 25.2435 16.4247 26.0943C16.4124 26.2097 16.4015 26.3291 16.3893 26.4512C16.3539 26.8095 16.3186 27.1906 16.2859 27.5676C16.2696 27.7488 16.2547 27.93 16.2397 28.1071C16.1418 29.2598 16.0697 30.2487 16.0697 30.2487C15.2537 31.3598 14.3738 33.1539 13.5931 34.9641H15.0347Z" fill="white"/>
<path d="M18.3641 24.2681L17.2054 24.8867L18.0186 25.4771L17.5794 26.0071L17.816 29.1995C17.816 29.1995 19.1134 26.1172 18.3641 24.2681Z" fill="#407BFF"/>
<path opacity="0.7" d="M18.3641 24.2681L17.2054 24.8867L18.0186 25.4771L17.5794 26.0071L17.816 29.1995C17.816 29.1995 19.1134 26.1172 18.3641 24.2681Z" fill="white"/>
<path opacity="0.1" d="M17.5535 29.9562C17.0898 29.7401 16.5866 28.8424 16.2398 28.1084C16.2547 27.9313 16.2697 27.7501 16.286 27.5689C16.3186 27.1919 16.354 26.8108 16.3894 26.4525C16.4016 26.3304 16.4125 26.211 16.4247 26.0956L16.679 25.6863C16.679 25.6863 17.5998 28.2171 17.7548 29.3926C17.8092 29.8086 17.767 30.0555 17.5535 29.9562Z" fill="black"/>
<path d="M22.9527 29.6825C22.9527 29.6825 23.2941 28.8626 23.7238 28.4225C24.1536 27.9823 25.8944 28.2359 25.9474 28.303C26.0018 28.3701 26.1093 29.0719 26.0018 29.3846C25.8944 29.6973 24.6745 30.3347 24.6745 30.3347H23.0778C23.0778 30.336 22.8317 29.9442 22.9527 29.6825Z" fill="#263238"/>
<path opacity="0.3" d="M26.0426 29.1631C26.0358 29.2476 26.0222 29.3241 26.0018 29.3858C25.8944 29.6985 24.6745 30.3359 24.6745 30.3359H23.0778C23.0778 30.3359 22.8317 29.9454 22.9527 29.6824C22.9527 29.6824 23.2927 28.8638 23.7238 28.4224C24.1536 27.9822 25.8944 28.2358 25.9474 28.3043C25.991 28.3579 26.0685 28.8209 26.0426 29.1631Z" fill="white"/>
<path opacity="0.1" d="M26.0426 29.1631C26.0358 29.2477 26.0222 29.3242 26.0018 29.3859C25.8944 29.6985 24.6745 30.3359 24.6745 30.3359H23.0778C23.0778 30.3359 24.121 29.1296 24.2162 29.0907C24.3018 29.0544 25.6632 29.0558 26.0426 29.1631Z" fill="black"/>
<path d="M20.9957 29.045L22.8439 28.9041L23.9469 28.7874L24.8431 29.1698L24.3182 29.9561L23.8299 29.8166C23.8299 29.8166 23.3539 29.8958 22.9405 29.6475L21.3139 29.7817L20.9957 29.045Z" fill="#FFA89C"/>
<path d="M19.1556 24.9482C18.5898 24.0209 18.7775 22.3865 18.7884 22.2979C18.7898 22.2832 18.8047 22.2725 18.8197 22.2738C18.8346 22.2751 18.8455 22.2899 18.8442 22.3047C18.8414 22.3261 18.6578 23.9257 19.1746 24.8596L19.1556 24.9482Z" fill="#263238"/>
<path opacity="0.6" d="M19.1556 24.9482C18.5898 24.0209 18.7775 22.3865 18.7884 22.2979C18.7898 22.2832 18.8047 22.2725 18.8197 22.2738C18.8346 22.2751 18.8455 22.2899 18.8442 22.3047C18.8414 22.3261 18.6578 23.9257 19.1746 24.8596L19.1556 24.9482Z" fill="white"/>
<path d="M18.836 22.3906C18.8686 22.3638 18.9108 22.3826 18.9149 22.2927C18.919 22.2028 18.7639 22.1652 18.7789 22.3973L18.836 22.3906Z" fill="#263238"/>
<path opacity="0.6" d="M18.836 22.3906C18.8686 22.3638 18.9108 22.3826 18.9149 22.2927C18.919 22.2028 18.7639 22.1652 18.7789 22.3973L18.836 22.3906Z" fill="white"/>
<path d="M18.8836 24.1204C19.0128 24.7417 19.2943 25.3254 19.8764 25.4958C20.5265 25.6877 20.8447 25.1711 20.9984 24.5632" stroke="#263238" stroke-width="0.8205" stroke-miterlimit="10" stroke-linecap="round" stroke-linejoin="round"/>
<path d="M20.0369 25.5308C20.0369 25.5308 19.7431 28.6493 20.2001 30.2341C20.3701 30.8218 21.2568 31.3197 21.061 31.9825" stroke="#263238" stroke-width="0.8205" stroke-miterlimit="10" stroke-linecap="round" stroke-linejoin="round"/>
<path d="M20.8583 31.6914L21.2976 31.7545C21.2976 31.7545 21.0324 33.1232 20.5795 32.9045L20.8583 31.6914Z" fill="#407BFF"/>
<path opacity="0.6" d="M20.8583 31.6914L21.2976 31.7545C21.2976 31.7545 21.0324 33.1232 20.5795 32.9045L20.8583 31.6914Z" fill="white"/>
<path d="M16.6532 24.5793C15.3911 25.0826 16.9442 30.1777 17.9003 30.3105C18.8578 30.4434 22.5474 29.9912 22.5474 29.9912V28.7875C22.5474 28.7875 18.7449 28.8922 18.6102 28.7056C18.4756 28.5205 17.865 26.4298 17.5739 25.6851C17.3291 25.0557 16.6532 24.5793 16.6532 24.5793Z" fill="#407BFF"/>
<path opacity="0.6" d="M16.6532 24.5793C15.3911 25.0826 16.9442 30.1777 17.9003 30.3105C18.8578 30.4434 22.5474 29.9912 22.5474 29.9912V28.7875C22.5474 28.7875 18.7449 28.8922 18.6102 28.7056C18.4756 28.5205 17.865 26.4298 17.5739 25.6851C17.3291 25.0557 16.6532 24.5793 16.6532 24.5793Z" fill="white"/>
<path d="M31.8036 40.5249H44.763C45.0786 40.5249 45.3356 40.2726 45.3356 39.96V31.1854C45.3356 29.8153 44.2095 28.7056 42.8223 28.7056H33.7457C32.3571 28.7056 31.2324 29.8166 31.2324 31.1854V39.96C31.231 40.2726 31.4867 40.5249 31.8036 40.5249Z" fill="#263238"/>
<path opacity="0.4" d="M31.8036 40.5249H44.763C45.0786 40.5249 45.3356 40.2726 45.3356 39.96V31.1854C45.3356 29.8153 44.2095 28.7056 42.8223 28.7056H33.7457C32.3571 28.7056 31.2324 29.8166 31.2324 31.1854V39.96C31.231 40.2726 31.4867 40.5249 31.8036 40.5249Z" fill="white"/>
<path d="M23.8313 48.3119H31.231V35.1453C31.231 33.7497 30.0846 32.6172 28.6688 32.6172H26.3922C24.9778 32.6172 23.8299 33.7484 23.8299 35.1453V48.3119H23.8313Z" fill="#263238"/>
<path opacity="0.4" d="M23.8313 48.3119H31.231V35.1453C31.231 33.7497 30.0846 32.6172 28.6688 32.6172H26.3922C24.9778 32.6172 23.8299 33.7484 23.8299 35.1453V48.3119H23.8313Z" fill="white"/>
<path opacity="0.5" d="M23.8312 48.3119H28.088V34.7172C28.088 33.5578 27.1347 32.6172 25.9596 32.6172C24.7846 32.6172 23.8312 33.5578 23.8312 34.7172V48.3119Z" fill="white"/>
<path d="M28.9847 48.3125H42.7221V43.0604H28.9847V48.3125Z" fill="#263238"/>
<path opacity="0.4" d="M28.9847 48.3125H42.7221V43.0604H28.9847V48.3125Z" fill="white"/>
<path d="M29.4236 44.8633H41.3345C42.7734 44.8633 43.9389 43.7133 43.9389 42.2936V41.9232C43.9389 40.5035 42.772 39.3535 41.3345 39.3535H29.425C27.9861 39.3535 26.8206 40.5035 26.8206 41.9232V42.2936C26.8192 43.7133 27.9861 44.8633 29.4236 44.8633Z" fill="#263238"/>
<path opacity="0.6" d="M29.4236 44.8633H41.3345C42.7734 44.8633 43.9389 43.7133 43.9389 42.2936V41.9232C43.9389 40.5035 42.772 39.3535 41.3345 39.3535H29.425C27.9861 39.3535 26.8206 40.5035 26.8206 41.9232V42.2936C26.8192 43.7133 27.9861 44.8633 29.4236 44.8633Z" fill="white"/>
<path opacity="0.2" d="M39.2999 44.8633H41.295C42.7339 44.8633 43.8994 43.7133 43.8994 42.2936V41.9232C43.8994 40.5035 42.7339 39.3535 41.295 39.3535H39.2999C37.861 39.3535 36.6955 40.5035 36.6955 41.9232V42.2936C36.6955 43.7133 37.8624 44.8633 39.2999 44.8633Z" fill="black"/>
<path d="M32.7529 31.1948C32.7529 31.1948 31.367 37.3849 28.9843 32.6709" stroke="#263238" stroke-width="0.4261" stroke-miterlimit="10" stroke-linecap="round" stroke-linejoin="round"/>
<path d="M35.379 26.2688C34.2761 26.7022 32.0171 30.4743 31.9355 30.6313C31.8539 30.7883 28.8415 31.9329 28.8415 31.9329L29.0999 32.8494C29.0999 32.8494 31.9994 32.2281 32.519 31.9329C33.0385 31.6377 35.1315 29.5591 35.1315 29.5591L35.379 26.2688Z" fill="#FF8B7B"/>
<path d="M35.379 26.2688L35.326 29.7805C35.326 29.7805 35.0581 30.0516 34.7439 30.3052C34.4638 30.5293 34.1482 30.74 33.9497 30.7333L32.7529 29.5591C32.7542 28.4896 34.3849 26.6486 35.379 26.2688Z" fill="#407BFF"/>
<path opacity="0.2" d="M34.7439 30.3051C34.4638 30.5292 34.1482 30.7399 33.9497 30.7332C33.611 30.1414 34.6174 28.5593 34.6174 28.5593C34.6174 28.5593 34.8228 29.5993 34.7439 30.3051Z" fill="black"/>
<path d="M22.3951 48.1684L21.4078 47.79L22.5352 44.811L23.9319 45.2579L22.3951 48.1684Z" fill="#FF8B7B"/>
<path opacity="0.2" d="M22.5352 44.8123L21.8661 46.5795L23.018 46.9928L23.9319 45.2591L22.5352 44.8123Z" fill="black"/>
<path d="M35.9992 39.3481C35.2852 39.799 34.0177 39.9386 32.7243 39.9386C31.4078 39.9386 30.0655 39.795 29.2563 39.689C29.2563 39.689 26.8627 43.0799 24.6677 45.4215C24.2828 45.8335 23.9034 46.2119 23.5443 46.5339L22.0048 46.0361C22.0048 46.0361 24.514 39.1562 26.2371 37.0307C26.3473 36.8348 26.539 36.6308 26.8559 36.4456C26.9062 36.4148 26.9538 36.3893 27.0028 36.3665C27.5264 36.1008 28.3397 35.8861 29.595 35.8029C30.4504 35.7465 31.5098 35.7519 32.8222 35.8458L34.3264 34.3442L37.5768 34.4744C37.5768 34.4744 37.8597 38.17 35.9992 39.3481Z" fill="#263238"/>
<path opacity="0.2" d="M35.9992 39.3481C35.2852 39.799 34.0177 39.9386 32.7243 39.9386C31.4078 39.9386 30.0655 39.795 29.2563 39.689C29.2563 39.689 26.8627 43.0799 24.6677 45.4215C24.4256 40.2767 27.2503 37.342 29.595 35.8029C30.4504 35.7465 31.5098 35.7519 32.8222 35.8458L34.3264 34.3442L37.5768 34.4744C37.5768 34.4744 37.8597 38.17 35.9992 39.3481Z" fill="black"/>
<path d="M21.6254 47.0506L22.8643 47.0694C22.9106 47.0707 22.9486 47.1029 22.9554 47.1472L23.1146 48.1469C23.1309 48.2502 23.0452 48.3468 22.9378 48.3442C22.4917 48.3294 21.847 48.2945 21.2854 48.2851C20.6285 48.2744 20.6938 48.3012 19.924 48.2891C19.4589 48.2824 19.3596 47.8154 19.5568 47.7765C20.4571 47.5981 20.5482 47.5887 21.3452 47.1338C21.4336 47.0841 21.5274 47.0492 21.6254 47.0506Z" fill="#263238"/>
<path d="M21.9286 45.3638L21.7967 46.1394L23.6667 46.8667L24.0013 46.2105L21.9286 45.3638Z" fill="#263238"/>
<path d="M25.1178 48.3025L24.1291 47.9241L25.2579 44.9451L26.6533 45.3919L25.1178 48.3025Z" fill="#FF8B7B"/>
<path opacity="0.2" d="M25.2566 44.9465L24.5874 46.7151L25.7394 47.1271L26.6546 45.3934L25.2566 44.9465Z" fill="black"/>
<path d="M24.3481 47.1849L25.587 47.2036C25.6333 47.205 25.6714 47.2372 25.6782 47.2815L25.8373 48.2812C25.8536 48.3845 25.7679 48.4811 25.6605 48.4784C25.2144 48.4637 24.5698 48.4288 24.0081 48.4194C23.3512 48.4086 23.4165 48.4355 22.6467 48.4234C22.1816 48.4167 22.0823 47.9497 22.2795 47.9108C23.1798 47.7323 23.271 47.7229 24.0679 47.268C24.155 47.2184 24.2502 47.1835 24.3481 47.1849Z" fill="#263238"/>
<path d="M24.65 45.3638L24.5181 46.1394L26.3894 46.8667L26.724 46.2105L24.65 45.3638Z" fill="#263238"/>
<path d="M40.2982 34.4744L37.0478 34.3442L35.5436 35.8458C32.3068 35.6137 30.6041 35.921 29.7228 36.3651C29.6752 36.3879 29.6262 36.4148 29.5759 36.4443C29.259 36.6295 29.0673 36.8334 28.9571 37.0294C27.234 39.1549 24.7262 46.0347 24.7262 46.0347L26.2657 46.5312C28.6702 44.3708 31.9763 39.6863 31.9763 39.6863C33.5798 39.897 37.2803 40.2566 38.7192 39.3454C40.581 38.17 40.2982 34.4744 40.2982 34.4744Z" fill="#263238"/>
<path d="M41.0938 29.2451C41.0992 29.8181 41.0802 30.4689 41.0203 31.1949C40.9238 32.3797 40.7157 33.7672 40.3131 35.3547L33.3934 35.195C33.116 34.4033 33.1119 32.585 34.2475 30.8647C34.3577 29.8328 34.2244 28.6909 34.3114 27.5865C34.3645 26.8968 35.0377 26.2621 35.8782 26.1172C37.1266 25.9038 38.4105 25.8649 39.7215 25.9521C40.4206 25.9977 40.9278 26.4164 40.9741 26.9948C41.0149 27.5208 41.087 28.2722 41.0938 29.2451Z" fill="#407BFF"/>
<path opacity="0.2" d="M21.9286 45.3638L21.7967 46.1394L23.6667 46.8667L24.0013 46.2105L21.9286 45.3638Z" fill="white"/>
<path opacity="0.2" d="M24.65 45.3638L24.5181 46.1394L26.3894 46.8667L26.724 46.2105L24.65 45.3638Z" fill="white"/>
<path d="M38.3792 23.9836C38.3901 24.8263 38.4458 25.8086 39.0306 26.3628C38.711 26.9009 38.0338 27.3316 37.1348 27.2552C36.1461 27.1706 36.3936 26.4849 36.6071 26.1333C37.0818 25.767 36.9444 25.2719 36.8859 24.9243L38.3792 23.9836Z" fill="#FF8B7B"/>
<path opacity="0.2" d="M38.0528 24.3499C38.0542 24.2962 38.0514 24.2425 38.0501 24.1902L36.8873 24.9242C36.9226 25.1322 36.9866 25.3939 36.9294 25.6475C37.4884 25.4046 38.0474 24.8598 38.0528 24.3499Z" fill="black"/>
<path d="M35.326 30.4971C35.326 30.4971 35.0975 31.0472 35.1383 31.1868C35.1791 31.3264 35.326 30.6313 35.326 30.6313C35.326 30.6313 35.2458 31.2136 35.292 31.2606C35.3396 31.3076 35.4062 30.6903 35.4062 30.6903C35.4062 30.6903 35.3858 31.2257 35.4062 31.2633C35.4266 31.3009 35.5273 30.7346 35.5273 30.7346C35.5273 30.7346 35.4266 31.2874 35.4606 31.3331C35.4946 31.38 35.6157 30.7346 35.6157 30.7346C35.6157 30.7346 35.5749 31.3599 35.6157 31.3867C35.6565 31.4136 35.6891 30.7762 35.6891 30.7762C35.6891 30.7762 35.7027 31.3747 35.7299 31.3881C35.7571 31.4002 35.7843 30.7708 35.7843 30.7708C35.7843 30.7708 35.7707 31.4082 35.8387 31.4337C35.9054 31.4605 35.8795 30.8097 35.8795 30.8097C35.8795 30.8097 35.9135 31.3693 35.9666 31.4337C36.0196 31.4981 36.0087 30.8419 36.0087 30.8419C36.0087 30.8419 36.0468 31.4163 36.1012 31.4377C36.1556 31.4592 36.1012 30.8151 36.1012 30.8151C36.1012 30.8151 36.2086 31.3586 36.2766 31.3532C36.3433 31.3465 36.21 30.544 36.21 30.544L35.326 30.4971Z" fill="#263238"/>
<path d="M36.1502 26.1172C36.1502 26.1172 35.4865 26.6486 35.379 28.232C35.2716 29.8154 35.379 30.3643 35.2621 30.4797C35.1451 30.5951 35.9353 30.7722 36.0958 30.7279C36.2576 30.6836 36.2481 30.4354 36.2481 30.3562C36.2481 30.277 36.1406 27.8791 36.6248 27.1974C37.1103 26.5157 36.1502 26.1172 36.1502 26.1172Z" fill="#407BFF"/>
<path opacity="0.4" d="M36.6262 27.1974C36.5174 27.3504 36.4385 27.5906 36.3814 27.8724C36.1855 28.8412 36.2494 30.2931 36.2494 30.3549C36.2494 30.4354 36.259 30.6823 36.0971 30.7266C35.9353 30.7708 35.1465 30.5951 35.2634 30.4797C35.379 30.3643 35.2716 29.8154 35.379 28.232C35.4484 27.2162 35.7476 26.6338 35.9516 26.3466C35.9516 26.3466 35.9502 26.3466 35.9516 26.3453C36.0672 26.1856 36.1515 26.1172 36.1515 26.1172C36.1515 26.1172 37.1103 26.5157 36.6262 27.1974Z" fill="white"/>
<path opacity="0.1" d="M36.6262 27.1974C36.5174 27.3504 36.4385 27.5906 36.3814 27.8724C35.9706 27.4712 35.8741 26.8083 35.9516 26.3466C35.9516 26.3466 35.9502 26.3466 35.9516 26.3453C36.0672 26.1856 36.1515 26.1172 36.1515 26.1172C36.1515 26.1172 37.1103 26.5157 36.6262 27.1974Z" fill="black"/>
<path d="M36.856 25.7992C36.856 25.7992 36.8315 26.658 37.7672 26.3078C38.522 26.026 38.6349 25.3564 38.6349 25.3564C38.6349 25.3564 39.0116 25.2531 39.119 25.6315C39.119 25.6315 39.5706 25.6798 39.7215 25.9509C39.8725 26.2233 38.3316 27.9395 37.0573 27.8161C35.783 27.6926 35.904 26.2997 36.0767 26.085C36.2494 25.8703 36.3922 26.0233 36.3922 26.0233C36.3922 26.0233 36.7649 25.5416 36.856 25.7992Z" fill="#407BFF"/>
<path opacity="0.4" d="M36.856 25.7992C36.856 25.7992 36.8315 26.658 37.7672 26.3078C38.522 26.026 38.6349 25.3564 38.6349 25.3564C38.6349 25.3564 39.0116 25.2531 39.119 25.6315C39.119 25.6315 39.5706 25.6798 39.7215 25.9509C39.8725 26.2233 38.3316 27.9395 37.0573 27.8161C35.783 27.6926 35.904 26.2997 36.0767 26.085C36.2494 25.8703 36.3922 26.0233 36.3922 26.0233C36.3922 26.0233 36.7649 25.5416 36.856 25.7992Z" fill="white"/>
<path d="M35.7623 23.4791C36.1119 23.679 36.9224 23.6575 36.5035 22.0661C36.1513 20.7228 35.1191 23.1127 35.7623 23.4791Z" fill="#E0E0E0"/>
<path d="M38.8729 22.7168C38.7301 23.8185 38.7042 24.4707 38.1004 24.9967C37.1906 25.7884 35.8401 25.1805 35.6442 24.056C35.4688 23.0443 35.7313 21.4125 36.8587 21.0529C37.9698 20.6986 39.0143 21.6151 38.8729 22.7168Z" fill="#FF8B7B"/>
<path opacity="0.2" d="M37.3674 22.8604C37.3674 22.8604 37.619 22.7316 37.8352 22.8256C37.585 22.894 37.3674 22.8604 37.3674 22.8604Z" fill="black"/>
<path opacity="0.2" d="M37.3837 22.9691C37.3837 22.9691 37.6326 22.902 37.8026 23.0429C37.5673 23.0536 37.3837 22.9691 37.3837 22.9691Z" fill="black"/>
<path d="M39.085 22.117C39.1503 21.815 38.4853 21.3776 38.1045 21.6057C37.7291 21.8298 38.2595 22.2981 38.3547 22.7222C38.4486 23.1462 37.9127 23.542 37.9127 23.542C37.9127 23.542 38.1303 23.8037 38.5614 23.7863C39.527 23.4253 39.2387 22.2391 39.085 22.117Z" fill="#E0E0E0"/>
<path d="M39.1789 23.8655C39.0198 24.1191 38.7546 24.2747 38.5111 24.3257C38.1439 24.4022 37.9821 24.0721 38.1018 23.742C38.2092 23.4455 38.5302 23.0483 38.8906 23.1207C39.2442 23.1918 39.3625 23.5756 39.1789 23.8655Z" fill="#FF8B7B"/>
<path d="M37.0845 22.9382C37.079 23.0281 37.0246 23.0978 36.9662 23.0938C36.9063 23.0898 36.8628 23.0133 36.8682 22.9234C36.8737 22.8335 36.9281 22.7637 36.9866 22.7677C37.0464 22.7704 37.0899 22.8469 37.0845 22.9382Z" fill="#263238"/>
<path d="M35.9434 22.8886C35.938 22.9785 35.8836 23.0483 35.8251 23.0443C35.7653 23.0402 35.7218 22.9637 35.7272 22.8738C35.7326 22.7839 35.787 22.7142 35.8455 22.7182C35.9054 22.7222 35.9489 22.7987 35.9434 22.8886Z" fill="#263238"/>
<path d="M36.3365 22.8296C36.3365 22.8296 36.0631 23.318 35.8034 23.5368C35.9448 23.7058 36.2263 23.675 36.2263 23.675L36.3365 22.8296Z" fill="#FF5652"/>
<path d="M37.2912 22.3384C37.3007 22.3384 37.3089 22.3357 37.317 22.3304C37.3415 22.3142 37.3483 22.282 37.332 22.2565C37.1688 22.0096 36.9199 22.0056 36.909 22.0056C36.8791 22.0056 36.856 22.0298 36.856 22.0579C36.856 22.0875 36.8805 22.1116 36.9104 22.1116C36.9186 22.1116 37.1117 22.117 37.2422 22.3129C37.2531 22.3304 37.2722 22.3397 37.2912 22.3384Z" fill="#263238"/>
<path d="M35.5951 22.4296C35.6128 22.4323 35.6305 22.4282 35.6441 22.4148C35.8086 22.2471 35.999 22.2806 36.0072 22.282C36.0357 22.2873 36.0643 22.2686 36.0697 22.2404C36.0752 22.2122 36.0561 22.184 36.0276 22.1786C36.0167 22.1773 35.7733 22.1317 35.5679 22.3424C35.5475 22.3638 35.5475 22.3974 35.5693 22.4175C35.5761 22.4229 35.5856 22.4282 35.5951 22.4296Z" fill="#263238"/>
<path d="M35.5518 23.8829C35.5518 23.8829 35.7381 23.6119 36.1869 23.8829C36.1869 23.8829 36.3596 23.7018 36.7975 23.7246C37.2354 23.7474 37.4598 23.8829 37.4598 23.8829L37.9821 23.4844L38.1194 23.6951C38.1194 23.6951 38.7138 25.1094 37.9073 25.5871C37.1008 26.0648 36.0971 25.8609 35.8102 25.5428C35.5218 25.2248 35.666 24.3928 35.666 24.3928C35.666 24.3928 35.4987 24.0332 35.5518 23.8829Z" fill="#E0E0E0"/>
<path d="M37.1906 24.2962C36.7064 24.4733 36.2494 24.1365 36.2494 24.1365C36.2494 24.1365 36.0536 24.3726 35.8741 24.3472" stroke="#263238" stroke-width="0.5" stroke-miterlimit="10" stroke-linecap="round" stroke-linejoin="round"/>
<path d="M28.8891 31.9382L27.6134 31.9033L28.1411 33.1593C28.1411 33.1593 29.2182 33.1781 29.255 32.526L28.8891 31.9382Z" fill="#FF8B7B"/>
<path d="M27.0042 32.5151L27.1429 33.0626C27.1918 33.2585 27.3958 33.3739 27.5917 33.3175L28.1425 33.1605L27.6148 31.9045L27.1932 32.1112C27.0409 32.185 26.962 32.3527 27.0042 32.5151Z" fill="#FF8B7B"/>
<path d="M32.7515 29.2532L34.0789 30.7333L33.0752 31.6914L31.8376 30.4971L32.7515 29.2532Z" fill="#263238"/>
<path d="M31.9532 30.3468L33.1677 31.5505C33.2071 31.5894 33.271 31.5907 33.3118 31.5518L33.9918 30.9104C34.0326 30.8715 34.034 30.8084 33.9959 30.7681L32.7094 29.4008C32.6658 29.3538 32.5897 29.3578 32.5516 29.4088L31.9437 30.214C31.9138 30.2542 31.9178 30.3106 31.9532 30.3468Z" fill="#263238"/>
<path opacity="0.2" d="M31.9532 30.3468L33.1677 31.5505C33.2071 31.5894 33.271 31.5907 33.3118 31.5518L33.9918 30.9104C34.0326 30.8715 34.034 30.8084 33.9959 30.7681L32.7094 29.4008C32.6658 29.3538 32.5897 29.3578 32.5516 29.4088L31.9437 30.214C31.9138 30.2542 31.9178 30.3106 31.9532 30.3468Z" fill="white"/>
<path opacity="0.2" d="M41.0938 29.2452C41.0992 29.8182 41.0802 30.469 41.0203 31.1949C40.2696 30.5347 40.1812 28.7876 40.1812 28.7876C40.5076 28.8936 40.8163 29.0533 41.0938 29.2452Z" fill="black"/>
<path d="M40.3498 26.1172C41.4854 26.5949 44.3374 30.1241 43.879 31.4378C43.4221 32.7528 41.7248 32.8924 41.5031 32.84C41.2814 32.7864 40.8218 31.8363 42.1219 30.9668L40.4627 29.4826C40.4627 29.4826 39.9813 28.5581 39.9935 27.7087C40.0058 26.8606 40.3498 26.1172 40.3498 26.1172Z" fill="#407BFF"/>
<path d="M41.5194 31.9329L40.2574 32.1167L40.9972 33.264C40.9972 33.264 42.0621 33.1003 41.9832 32.4508L41.5194 31.9329Z" fill="#FF8B7B"/>
<path d="M39.7623 32.8225L39.9949 33.3378C40.0778 33.5217 40.2995 33.6008 40.4818 33.5123L40.9972 33.264L40.2574 32.1167L39.8779 32.3918C39.7419 32.4911 39.693 32.6696 39.7623 32.8225Z" fill="#FF8B7B"/>
<path d="M39.9935 48.3119H47.3933V35.1453C47.3933 33.7497 46.2468 32.6172 44.831 32.6172H42.5544C41.14 32.6172 39.9922 33.7484 39.9922 35.1453V48.3119H39.9935Z" fill="#263238"/>
<path opacity="0.6" d="M39.9935 48.3119H47.3933V35.1453C47.3933 33.7497 46.2468 32.6172 44.831 32.6172H42.5544C41.14 32.6172 39.9922 33.7484 39.9922 35.1453V48.3119H39.9935Z" fill="white"/>
<path opacity="0.4" d="M39.9935 48.3119H44.2503V34.7172C44.2503 33.5578 43.2969 32.6172 42.1219 32.6172C40.9468 32.6172 39.9935 33.5578 39.9935 34.7172V48.3119Z" fill="white"/>
<path d="M50.2792 37.5337L50.32 39.301L50.509 48.3708H51.1319L51.3182 39.301L51.3604 37.5337H50.2792Z" fill="#263238"/>
<path opacity="0.4" d="M50.2792 37.5337L50.32 39.301L50.509 48.3708H51.1319L51.3182 39.301L51.3604 37.5337H50.2792Z" fill="white"/>
<path opacity="0.2" d="M50.2792 37.5337L50.32 39.3493H51.3182L51.3604 37.5337H50.2792Z" fill="black"/>
<path d="M46.8982 48.343L47.4735 37.6589H48.4133L47.6082 48.343H46.8982Z" fill="#263238"/>
<path opacity="0.4" d="M47.6095 48.3427H46.8995L47.4218 38.5214L47.4735 37.6465H48.4132L48.3411 38.5214L47.6095 48.3427Z" fill="white"/>
<path opacity="0.2" d="M48.4133 37.6465L48.3412 38.5549H47.4218L47.4735 37.6465H48.4133Z" fill="black"/>
<path d="M54.0314 48.343L53.2263 37.6589H54.1661L54.7414 48.343H54.0314Z" fill="#263238"/>
<path opacity="0.4" d="M54.0301 48.3427L53.2984 38.5214L53.2263 37.6465H54.1661L54.2178 38.5214L54.74 48.3427H54.0301Z" fill="white"/>
<path opacity="0.2" d="M53.2263 37.6465L53.2984 38.5549H54.2178L54.1661 37.6465H53.2263Z" fill="black"/>
<path d="M46.8316 37.3271H54.808C54.9358 37.3271 55.0392 37.4291 55.0392 37.5553V37.7619C55.0392 37.8881 54.9358 37.99 54.808 37.99H46.833C46.7051 37.99 46.6018 37.8881 46.6018 37.7619V37.5553C46.6004 37.4291 46.7038 37.3271 46.8316 37.3271Z" fill="#263238"/>
<path opacity="0.6" d="M46.8316 37.3271H54.808C54.9358 37.3271 55.0392 37.4291 55.0392 37.5553V37.7619C55.0392 37.8881 54.9358 37.99 54.808 37.99H46.833C46.7051 37.99 46.6018 37.8881 46.6018 37.7619V37.5553C46.6004 37.4291 46.7038 37.3271 46.8316 37.3271Z" fill="white"/>
<path d="M52.5042 30.5117H52.035V37.3272H52.5042V30.5117Z" fill="#263238"/>
<path d="M54.861 32.5983H49.6794L50.2982 28.425H54.2422L54.861 32.5983Z" fill="#407BFF"/>
<path d="M53.2821 36.9541H51.2584C51.0503 36.9541 50.8803 37.1205 50.8803 37.3271H53.6602C53.6602 37.1205 53.4915 36.9541 53.2821 36.9541Z" fill="#263238"/>
<path opacity="0.4" d="M54.861 32.5983H49.6794L50.2982 28.425H54.2422L54.861 32.5983Z" fill="white"/>
<path d="M49.7474 37.3272H48.6989L48.5506 35.6042H49.8957L49.7474 37.3272Z" fill="#407BFF"/>
<path opacity="0.7" d="M49.8957 35.6055L49.8222 36.4656L49.7488 37.3271H48.6989L48.6241 36.4656L48.5506 35.6055H49.8957Z" fill="white"/>
<path opacity="0.7" d="M49.7855 36.3423L49.7066 37.2534H48.7397L48.6608 36.3423H49.7855Z" fill="white"/>
<path d="M49.9718 35.678H48.4731V35.6485C48.4731 35.5585 48.5466 35.4861 48.6377 35.4861H49.8073C49.8984 35.4861 49.9718 35.5585 49.9718 35.6485V35.678Z" fill="#407BFF"/>
<path d="M49.2986 35.3479H49.1463V35.5519H49.2986V35.3479Z" fill="#407BFF"/>
</g>
<defs>
<clipPath id="clip0_391_2397">
<rect width="68" height="50" fill="white"/>
</clipPath>
</defs>
</svg>
