<svg width="48" height="49" viewBox="0 0 48 49" fill="none" xmlns="http://www.w3.org/2000/svg">
<path d="M29.2767 27.6781C29.6397 30.541 29.1427 32.1425 28.3106 32.3732C27.4774 32.6039 25.8353 30.9591 25.4735 28.0974C25.1117 25.2344 25.5953 22.3554 26.1508 22.1259C26.6357 21.9249 28.9149 24.8152 29.2767 27.6781Z" fill="#C1CEF0"/>
<path d="M28.4239 46.0291C28.3728 46.0291 28.3326 45.9869 28.3326 45.9361C28.3399 44.7415 28.3655 43.5693 28.3898 42.4368C28.508 36.9801 28.6213 31.8273 26.699 25.2641C26.6844 25.2145 26.7124 25.1636 26.7599 25.1487C26.8086 25.1338 26.8598 25.1624 26.8732 25.2108C28.804 31.8025 28.6907 36.9702 28.5726 42.4405C28.5482 43.573 28.5226 44.7453 28.5153 45.9373C28.5153 45.9882 28.4739 46.0291 28.4239 46.0291Z" fill="#A3B3DE"/>
<path d="M25.0423 30.4593C26.7709 33.5319 26.6417 36.1108 25.4284 37.4207C24.2151 38.7306 22.3769 38.2741 20.6471 35.2015C18.9185 32.1289 18.3861 27.2614 19.167 26.2951C19.8467 25.4529 23.3125 27.388 25.0423 30.4593Z" fill="#C1CEF0"/>
<path d="M34.125 35.705C32.5877 38.052 31.1161 38.4179 30.2378 37.4379C29.3595 36.458 29.4082 34.5043 30.9456 32.1574C32.4829 29.8105 35.1714 28.3331 35.8061 28.9384C36.3604 29.4669 35.6636 33.3581 34.125 35.705Z" fill="#C1CEF0"/>
<path d="M23.5025 38.5902C24.6183 39.2551 25.0118 40.1606 24.8181 40.8714C24.6244 41.5822 23.9167 41.829 22.8008 41.1642C21.685 40.4993 20.6751 38.9611 20.7786 38.4612C20.87 38.0271 22.3879 37.9254 23.5025 38.5902Z" fill="#C1CEF0"/>
<path d="M33.2479 41.1444C31.8982 42.2521 30.9699 42.102 30.6483 41.2412C30.3267 40.3815 30.7324 39.1361 32.0821 38.0296C33.4319 36.9219 35.2835 36.6751 35.5369 37.2308C35.7562 37.7171 34.5977 40.0379 33.2479 41.1444Z" fill="#C1CEF0"/>
<path d="M29.1061 37.862C28.5287 40.0663 27.7247 40.8565 27.0827 40.4893C26.442 40.1221 26.2069 38.7341 26.7843 36.531C27.3617 34.3268 28.7224 32.3148 29.1719 32.5083C29.5654 32.677 29.6835 35.659 29.1061 37.862Z" fill="#C1CEF0"/>
<path d="M28.6237 45.7017C28.614 45.7017 28.6042 45.7005 28.5945 45.6968C28.547 45.6806 28.5214 45.6273 28.5372 45.5789C29.5447 42.5522 31.5413 39.9151 34.1579 38.1524C34.2006 38.1239 34.2566 38.1363 34.2846 38.1784C34.3126 38.2219 34.3005 38.2789 34.259 38.3074C31.6753 40.0478 29.7055 42.6515 28.7102 45.6385C28.6968 45.6769 28.6615 45.7017 28.6237 45.7017Z" fill="#A3B3DE"/>
<path d="M27.7893 46.2562C27.7832 46.2562 27.7783 46.2562 27.7722 46.255C27.7223 46.245 27.6894 46.1967 27.6991 46.1471C28.6907 40.7139 30.8737 35.4581 34.013 30.9504C34.0422 30.9082 34.0982 30.8983 34.1397 30.928C34.1811 30.9578 34.1908 31.0161 34.1616 31.0571C31.0369 35.5437 28.8649 40.7735 27.8782 46.1805C27.8709 46.2252 27.8331 46.2562 27.7893 46.2562Z" fill="#A3B3DE"/>
<path d="M27.3678 45.9746C27.3251 45.9746 27.2874 45.9435 27.2788 45.9001C26.2629 40.761 24.488 35.8252 22.0053 31.2319C21.981 31.1872 21.9968 31.1302 22.0419 31.1054C22.0857 31.0805 22.1418 31.0967 22.1661 31.1426C24.6585 35.7521 26.4395 40.7052 27.4591 45.8629C27.4689 45.9138 27.4372 45.9621 27.3873 45.9721C27.38 45.9746 27.3739 45.9746 27.3678 45.9746Z" fill="#A3B3DE"/>
<path d="M27.0937 46.8937C27.0511 46.8937 27.0133 46.8639 27.0048 46.8205C26.2081 43.0086 24.5526 40.4744 22.0809 39.2861C22.0358 39.2637 22.0163 39.2091 22.037 39.162C22.0589 39.1161 22.1125 39.095 22.1588 39.1174C24.6841 40.3318 26.375 42.9094 27.1838 46.7808C27.1948 46.8317 27.1631 46.8801 27.1132 46.8912C27.1071 46.8937 27.0998 46.8937 27.0937 46.8937Z" fill="#A3B3DE"/>
<path d="M27.6991 46.6407C27.6541 46.6407 27.6151 46.606 27.609 46.5601C27.1254 42.7221 27.3629 38.7105 28.2948 34.9594C28.307 34.9098 28.3569 34.8801 28.4057 34.8925C28.4544 34.9049 28.4849 34.9557 28.4715 35.0053C27.5456 38.7341 27.3093 42.7221 27.7905 46.5365C27.7966 46.5874 27.7613 46.6345 27.7113 46.6407C27.7064 46.6407 27.7028 46.6407 27.6991 46.6407Z" fill="#A3B3DE"/>
<path d="M29.9065 48.8238H25.6843C24.7329 48.8238 23.9776 48.2445 24.0385 47.5598L24.9095 43.1562H30.3901L31.5486 47.5152C31.646 48.2148 30.8835 48.8238 29.9065 48.8238Z" fill="#F9AE3E"/>
<path d="M24.4222 47.4681L20.3559 10.0203C20.2889 9.40631 19.7797 8.94238 19.1731 8.94238H1.19028C0.481296 8.94238 -0.0705404 9.57005 0.00742324 10.287L4.07493 47.7348C4.14193 48.3488 4.65113 48.8127 5.25778 48.8127H23.2406C23.9496 48.8127 24.5002 48.1851 24.4222 47.4681Z" fill="#32477B"/>
<path d="M25.5125 47.4681L21.445 10.0203C21.378 9.40631 20.8688 8.94238 20.2621 8.94238H2.27934C1.57035 8.94238 1.01852 9.57005 1.09648 10.287L5.16399 47.7348C5.23099 48.3488 5.74019 48.8127 6.34684 48.8127H24.3296C25.0386 48.8127 25.5905 48.1851 25.5125 47.4681Z" fill="#296BFF"/>
<path d="M24.6183 44.8109L24.1579 40.5674L23.9215 38.3879L23.5585 35.0412L23.0871 30.6947L20.9151 10.7124C20.8542 10.153 20.3913 9.7312 19.8382 9.7312H3.46341C2.81777 9.7312 2.31588 10.3018 2.38653 10.9555L2.39262 11.0089L2.75564 14.3556L2.99197 16.535L4.99588 34.9891L5.22977 37.1475L6.08859 45.0541C6.1495 45.6123 6.61241 46.0353 7.16546 46.0353H23.5403C24.1871 46.0353 24.689 45.4634 24.6183 44.8109Z" fill="#407BFF"/>
<path d="M14.8047 11.0598H9.67978C9.39595 11.0598 9.15353 10.8501 9.10845 10.5648L8.91842 9.35913H15.2152L15.376 10.3775C15.432 10.7348 15.1616 11.0598 14.8047 11.0598Z" fill="#687ED4"/>
<path d="M14.4441 10.3676H10.524C10.4424 10.3676 10.3754 10.2994 10.3754 10.2163C10.3754 10.1332 10.4424 10.0649 10.524 10.0649H14.4441C14.5257 10.0649 14.5927 10.1332 14.5927 10.2163C14.5927 10.3006 14.5257 10.3676 14.4441 10.3676Z" fill="#32477B"/>
<g opacity="0.28">
<path d="M23.5573 35.04L2.39262 11.0076L2.38653 10.9543C2.31588 10.3006 2.81777 9.72998 3.46341 9.72998H4.62312L23.0847 30.6947L23.5573 35.04Z" fill="white"/>
</g>
<g opacity="0.28">
<path d="M14.7255 46.0354H13.059L5.23098 37.1464L4.99709 34.988L14.7255 46.0354Z" fill="white"/>
</g>
<g opacity="0.28">
<path d="M24.1579 40.5675L2.99318 16.534L2.75564 14.3545L23.9203 38.3868L24.1579 40.5675Z" fill="white"/>
</g>
<path d="M35.0338 0H23.2455C22.6327 0 22.1369 0.506101 22.1369 1.1288V4.67523C22.1369 5.11187 22.3805 5.4902 22.735 5.67751L22.3659 8.25391L24.9351 5.80404H35.0338C35.6465 5.80404 36.1423 5.29793 36.1423 4.67523V1.1288C36.1436 0.506101 35.6465 0 35.0338 0Z" fill="#32477B"/>
<path d="M34.6976 0.873291H23.5805C23.4891 0.873291 23.4148 0.948958 23.4148 1.04199V1.04819C23.4148 1.14123 23.4891 1.21689 23.5805 1.21689H34.6976C34.7889 1.21689 34.8632 1.14123 34.8632 1.04819V1.04199C34.8632 0.948958 34.7889 0.873291 34.6976 0.873291Z" fill="white"/>
<path d="M34.6976 1.7478H23.5805C23.4891 1.7478 23.4148 1.82347 23.4148 1.9165V1.92271C23.4148 2.01574 23.4891 2.09141 23.5805 2.09141H34.6976C34.7889 2.09141 34.8632 2.01574 34.8632 1.92271V1.9165C34.8632 1.82347 34.7889 1.7478 34.6976 1.7478Z" fill="white"/>
<path d="M26.6832 2.62109H23.5805C23.4891 2.62109 23.4148 2.69676 23.4148 2.78979V2.796C23.4148 2.88903 23.4891 2.9647 23.5805 2.9647H26.6832C26.7745 2.9647 26.8488 2.88903 26.8488 2.796V2.78979C26.8488 2.69676 26.7745 2.62109 26.6832 2.62109Z" fill="white"/>
<path d="M35.4212 11.6503C35.6892 11.6106 35.8938 11.3749 35.8938 11.0921V9.31953C35.8938 9.00818 35.6453 8.75513 35.3396 8.75513H29.4448C29.139 8.75513 28.8905 9.00818 28.8905 9.31953V11.0921C28.8905 11.4035 29.139 11.6565 29.4448 11.6565H34.0775L36.6406 13.3138L35.4212 11.6503Z" fill="#8AA2CE"/>
<path d="M34.8243 9.28491H29.9601C29.8687 9.28491 29.7944 9.36058 29.7944 9.45361V9.45982C29.7944 9.55285 29.8687 9.62852 29.9601 9.62852H34.8243C34.9156 9.62852 34.9899 9.55285 34.9899 9.45982V9.45361C34.9899 9.36058 34.9156 9.28491 34.8243 9.28491Z" fill="white"/>
<path d="M34.8243 9.95605H29.9601C29.8687 9.95605 29.7944 10.0317 29.7944 10.1248V10.131C29.7944 10.224 29.8687 10.2997 29.9601 10.2997H34.8243C34.9156 10.2997 34.9899 10.224 34.9899 10.131V10.1248C34.9899 10.0317 34.9156 9.95605 34.8243 9.95605Z" fill="white"/>
<path d="M34.8243 10.627H33.2857C33.1943 10.627 33.12 10.7026 33.12 10.7957V10.8019C33.12 10.8949 33.1943 10.9706 33.2857 10.9706H34.8243C34.9156 10.9706 34.9899 10.8949 34.9899 10.8019V10.7957C34.9899 10.7026 34.9156 10.627 34.8243 10.627Z" fill="white"/>
<path d="M35.7257 21.0044C35.7257 21.0044 34.6842 20.5516 34.4381 20.3643C34.1933 20.177 34.0276 19.0383 34.0873 18.7728C34.147 18.5074 34.8218 17.9145 35.0058 18.4764C35.1897 19.0383 35.2811 20.0058 35.9401 20.3172L35.7257 21.0044Z" fill="#FFC1C2"/>
<path d="M38.8979 21.3009C38.2997 20.8481 37.3958 21.0044 35.8098 20.2068L35.543 20.9386C35.543 20.9386 38.0074 23.1963 38.5141 23.159C39.0221 23.1193 39.1013 21.4547 38.8979 21.3009Z" fill="#8AA2CE"/>
<path d="M44.8304 27.4697C44.8499 27.5032 44.8938 28.3405 44.856 28.6531C44.8182 28.9657 44.8633 29.5834 44.8633 29.5834C44.8633 29.5834 45.1703 29.7335 45.1959 29.2386C45.2214 28.7449 45.2288 28.7796 45.459 28.8962C45.6892 29.0128 45.8793 29.2708 46.2496 29.8687C46.6199 30.4666 47.2534 30.0362 47.2534 30.0362C47.2534 30.0362 46.9768 29.0451 46.8745 28.8627C46.7722 28.6804 45.4821 27.7165 45.3676 27.2874C45.3664 27.2886 44.7537 27.3395 44.8304 27.4697Z" fill="#FFC1C2"/>
<path d="M41.2636 48.3041C41.2636 48.3041 40.5193 48.4592 40.4035 48.7271H43.3503C43.3503 48.7271 43.3674 48.0064 43.0872 47.8055C42.807 47.6045 41.9348 48.2557 41.8191 48.2074C41.7046 48.159 41.2636 48.3041 41.2636 48.3041Z" fill="#32477B"/>
<path d="M37.3581 48.7271H40.2549C40.2549 48.7271 40.272 48.0064 39.9918 47.8055C39.7116 47.6045 38.8394 48.2557 38.7237 48.2074C38.6092 48.159 37.4738 48.4592 37.3581 48.7271Z" fill="#32477B"/>
<path d="M41.8361 25.9302C41.8361 25.9302 39.2645 26.5554 38.2644 26.0641C38.2644 26.0641 37.9635 34.5748 38.3119 36.8411C38.6603 39.1074 39.2402 47.9183 39.2402 47.9183C39.2402 47.9183 38.8248 48.0746 38.5702 48.2061C38.4362 48.2755 39.7628 48.376 40.0746 47.8897C40.3475 47.1616 41.601 40.9358 40.7483 37.0904C40.0844 34.4433 41.6802 31.1376 41.8203 29.3513C41.9579 27.5626 41.8361 25.9302 41.8361 25.9302Z" fill="#EDA6AA"/>
<path d="M43.6817 36.9751C43.237 34.7175 43.4904 29.6255 43.2492 28.096C43.008 26.5666 42.1626 25.3608 42.1626 25.3608C39.4923 26.8494 38.5263 26.0443 38.5105 26.0307C39.5143 29.0313 39.3998 31.5283 39.3998 31.5283C39.3998 31.5283 40.6155 35.5883 41.1125 37.4614C41.6108 39.3332 42.1407 47.8873 42.1407 47.8873C41.8605 47.994 41.5547 48.1453 41.2636 48.3041C41.6156 48.4108 42.5463 48.4914 42.9544 48.2408C43.1846 48.1007 43.1493 47.8464 43.1347 47.8364C43.1554 47.7719 44.599 41.6255 43.6817 36.9751Z" fill="#FFC1C2"/>
<path d="M42.2771 23.4741C42.0846 22.7782 43.0774 17.0585 43.0604 16.4234C43.0433 15.7883 41.1223 15.3591 41.1223 15.3591C41.1223 15.3591 41.0516 15.2996 40.233 15.539C39.8602 15.6481 39.5338 15.8813 39.306 16.2001C38.815 16.8886 37.9647 18.129 37.8344 18.6376C37.6492 19.3583 37.9367 19.9835 38.2133 20.7997C38.5702 21.8516 38.5751 22.7435 38.4423 23.6738C37.2131 27.4125 38.0646 37.0259 38.0646 37.0259C41.1259 37.898 44.1226 37.0768 44.1226 37.0768C44.1226 37.0768 45.2543 26.0493 42.2771 23.4741Z" fill="#8AA2CE"/>
<path d="M42.1504 15.6655C42.1504 15.6655 43.7072 16.0364 43.9143 17.3662C44.1214 18.6959 43.9643 20.8977 45.0107 22.8241C46.0571 24.7505 45.7294 27.7462 45.7294 27.7462L44.8121 27.936C44.8121 27.936 43.5574 24.7964 42.8716 22.5946C42.282 20.7017 41.8532 20.1634 41.2745 19.0941C40.6204 17.8847 42.1504 15.6655 42.1504 15.6655Z" fill="#8AA2CE"/>
<path d="M40.501 15.5836C39.3084 15.5414 37.7978 13.9474 38.1316 11.3065C38.3643 9.46821 40.0247 8.65944 41.3976 9.37145C43.5647 10.4953 42.5171 15.6543 40.501 15.5836Z" fill="#32477B"/>
<path d="M42.003 12.6514C42.0505 12.8746 42.014 16.9495 39.7652 17.3576C39.2986 17.442 39.6531 16.4322 39.7409 16.2908C40.2159 15.5317 39.842 14.8854 39.5764 14.3632C40.1818 13.9873 41.4122 13.021 42.003 12.6514Z" fill="#FFC1C2"/>
<path d="M38.5117 11.0909C38.1292 12.7692 38.5982 14.6597 39.4485 14.9487C40.0296 15.1472 41.523 14.0568 41.8398 12.438C42.1565 10.818 38.7907 9.86536 38.5117 11.0909Z" fill="#FFC1C2"/>
<path d="M39.0416 10.0476C39.1634 8.93119 40.6472 8.75009 41.6997 9.1371C43.0945 9.65065 43.3394 10.6455 43.3394 12.2978C43.3394 13.3596 42.9386 14.7303 43.8071 14.9895C44.0276 15.0553 43.9253 15.7189 43.4819 16.0427C42.9678 16.4185 42.0481 16.4135 41.4548 15.6792C40.8872 14.9759 41.4573 13.6089 41.3476 12.6476C41.1612 11.0263 38.8613 11.6999 39.0416 10.0476Z" fill="#32477B"/>
<path d="M41.3306 12.6251C41.0772 12.8695 41.0053 13.2094 41.1673 13.3843C41.3306 13.5592 41.668 13.5034 41.9214 13.2578C42.1748 13.0134 42.2467 12.6735 42.0846 12.4986C41.9214 12.3249 41.584 12.3808 41.3306 12.6251Z" fill="#FFC1C2"/>
<path d="M41.3793 13.1066C41.3476 13.0992 41.3257 13.0694 41.3269 13.0347C41.3501 12.6948 41.5401 12.4976 41.8349 12.5088H41.8398C41.8763 12.5088 41.9068 12.5398 41.9068 12.5782C41.9068 12.6154 41.8775 12.6464 41.8398 12.6464C41.8373 12.6464 41.8349 12.6464 41.83 12.6464C41.6753 12.6402 41.4853 12.7047 41.4621 13.0446C41.4597 13.0831 41.4268 13.1116 41.3903 13.1079C41.3866 13.1079 41.383 13.1066 41.3793 13.1066Z" fill="#E58383"/>
<path d="M39.5325 13.7851C39.5155 13.9314 39.3705 14.0344 39.2073 14.0145C39.0441 13.9959 38.9247 13.8607 38.9417 13.7144C38.9588 13.568 39.1037 13.465 39.267 13.4849C39.4302 13.5047 39.5496 13.6399 39.5325 13.7851Z" fill="#EF8F8F"/>
<path d="M40.6837 12.0361C40.6654 12.0361 40.6472 12.0299 40.6326 12.0175C40.6277 12.0137 40.3097 11.7694 39.7628 11.8475C39.7177 11.8537 39.6751 11.8215 39.669 11.7756C39.6629 11.7297 39.6946 11.6863 39.7396 11.6801C40.3633 11.5908 40.7203 11.8723 40.7349 11.8847C40.7702 11.9133 40.7763 11.9666 40.7483 12.0026C40.7324 12.0249 40.7081 12.0361 40.6837 12.0361Z" fill="#32477B"/>
<path d="M39.1305 11.7731C39.1208 11.7731 39.1111 11.7718 39.1001 11.7669C39.0977 11.7656 38.8662 11.6776 38.6177 11.7446C38.5738 11.757 38.5275 11.7297 38.5166 11.685C38.5044 11.6404 38.5312 11.5932 38.5751 11.5821C38.8772 11.5002 39.1488 11.6056 39.1598 11.6106C39.2024 11.628 39.2231 11.6763 39.2073 11.7197C39.1951 11.7532 39.1634 11.7731 39.1305 11.7731Z" fill="#32477B"/>
<path d="M39.2317 13.8011C39.0696 13.8011 38.8991 13.7738 38.7687 13.6882C38.7359 13.6659 38.7261 13.6212 38.748 13.5878C38.77 13.5543 38.8138 13.5443 38.8467 13.5667C39.1281 13.754 39.6897 13.5927 39.6946 13.5915C39.7323 13.5803 39.7713 13.6026 39.7823 13.6411C39.7932 13.6795 39.7713 13.7192 39.7335 13.7304C39.7189 13.7341 39.4863 13.8011 39.2317 13.8011Z" fill="#E58383"/>
<path d="M38.6542 12.3239C38.6542 12.4405 38.7225 12.5348 38.8065 12.5348C38.8906 12.5348 38.9588 12.4405 38.9588 12.3239C38.9588 12.2073 38.8906 12.113 38.8065 12.113C38.7225 12.113 38.6542 12.2073 38.6542 12.3239Z" fill="#7A5254"/>
<path d="M39.15 12.3562C39.1293 12.3562 39.1086 12.3463 39.0977 12.3264C39.0916 12.3178 38.9771 12.1466 38.6749 12.2433C38.6421 12.2532 38.6067 12.2346 38.597 12.2011C38.5872 12.1677 38.6055 12.1317 38.6384 12.1218C39.038 11.994 39.1975 12.2483 39.2048 12.2582C39.2231 12.288 39.2146 12.3277 39.1854 12.3463C39.172 12.3537 39.161 12.3562 39.15 12.3562Z" fill="#7A5254"/>
<path d="M39.9504 12.4516C39.9504 12.5695 40.0247 12.665 40.1173 12.665C40.2086 12.665 40.2842 12.5695 40.2842 12.4516C40.2842 12.3338 40.2099 12.2383 40.1173 12.2383C40.0247 12.2383 39.9504 12.3338 39.9504 12.4516Z" fill="#7A5254"/>
<path d="M40.5046 12.5024C40.4827 12.5061 40.4584 12.4962 40.4474 12.4751C40.4413 12.4639 40.2988 12.2295 39.9613 12.3684C39.9333 12.3796 39.9004 12.3659 39.8882 12.3374C39.8773 12.3089 39.8907 12.2754 39.9187 12.263C40.3487 12.0856 40.5412 12.4143 40.5424 12.4168C40.5582 12.4441 40.5485 12.4788 40.5217 12.4937C40.5168 12.4986 40.5107 12.5011 40.5046 12.5024Z" fill="#7A5254"/>
<path d="M39.3656 13.1489C39.1013 13.1439 38.9917 13.1154 38.9454 13.0385C38.8979 12.9591 38.9417 12.8685 39.0014 12.742C39.066 12.608 39.1537 12.4232 39.1695 12.1776C39.172 12.1441 39.2 12.118 39.2341 12.1205C39.267 12.123 39.2926 12.1515 39.2901 12.1863C39.2731 12.4567 39.178 12.6539 39.1098 12.7978C39.0769 12.8673 39.0343 12.9541 39.0477 12.9752C39.0575 12.9926 39.1135 13.0223 39.3656 13.0273C39.3985 13.0285 39.4253 13.0558 39.4253 13.0906C39.4253 13.1216 39.3985 13.1489 39.3656 13.1489Z" fill="#DF7E7F"/>
<path d="M40.0722 14.9808C40.0478 14.9808 40.0247 14.9659 40.0149 14.9411C40.004 14.9089 40.0198 14.8741 40.0503 14.8617C40.0576 14.8593 40.8043 14.569 41.2063 13.7751C41.2222 13.7453 41.2575 13.7329 41.2879 13.7491C41.3172 13.7652 41.3294 13.8012 41.3135 13.8322C40.8896 14.6707 40.1246 14.9659 40.0917 14.9783C40.0856 14.9796 40.0783 14.9808 40.0722 14.9808Z" fill="#DF7E7F"/>
<path d="M38.5836 23.3103C38.5787 23.3103 38.5751 23.3103 38.5702 23.3091C38.5263 23.3016 38.4971 23.2594 38.5032 23.2148C38.6957 22.0202 38.3278 21.0204 38.3241 21.0105C38.3083 20.9683 38.329 20.9212 38.3704 20.9051C38.4118 20.889 38.4581 20.91 38.4739 20.9522C38.4898 20.9944 38.8625 22.0016 38.6615 23.2421C38.6567 23.2818 38.6226 23.3103 38.5836 23.3103Z" fill="#748FBA"/>
<path d="M42.1772 20.6484C42.1492 20.6484 42.1212 20.6335 42.1066 20.6062C42.098 20.5914 41.8982 20.2229 41.7301 19.7193C41.5023 19.0358 41.4475 18.4603 41.5681 18.0063C41.8495 16.9457 42.3356 16.3106 42.3563 16.2833C42.3843 16.2473 42.4342 16.2411 42.4696 16.2696C42.5049 16.2982 42.511 16.349 42.483 16.385C42.4781 16.3912 41.9957 17.0226 41.724 18.0484C41.456 19.0594 42.2393 20.512 42.2479 20.5268C42.2698 20.5665 42.2552 20.6162 42.2162 20.6385C42.204 20.6447 42.1906 20.6484 42.1772 20.6484Z" fill="#748FBA"/>
<path d="M38.8979 18.7964C38.893 18.7964 38.8881 18.7964 38.882 18.7952C38.8382 18.7865 38.8102 18.7431 38.8187 18.6984C38.9198 18.1638 39.4716 17.4989 39.4948 17.4704C39.524 17.4356 39.574 17.4319 39.6081 17.4604C39.6422 17.4902 39.6458 17.5411 39.6178 17.5758C39.6129 17.582 39.0708 18.2357 38.977 18.7282C38.9697 18.7691 38.9356 18.7964 38.8979 18.7964Z" fill="#748FBA"/>
<path d="M40.663 23.9059C40.4876 23.9059 40.3012 23.8984 40.1075 23.8835C39.4302 23.8314 38.8857 23.7024 38.8796 23.7012C38.8357 23.6913 38.8089 23.6466 38.8199 23.6032C38.8297 23.5585 38.8735 23.5312 38.9174 23.5424C38.9381 23.5474 41.0492 24.0398 42.1419 23.4556C42.1809 23.4345 42.2296 23.4494 42.2503 23.4903C42.271 23.53 42.2564 23.5796 42.2162 23.6007C41.8349 23.8029 41.3147 23.9059 40.663 23.9059Z" fill="#748FBA"/>
<path d="M39.7518 17.525C39.6568 17.525 39.5752 17.5076 39.513 17.4716C39.4339 17.4257 39.379 17.3526 39.3522 17.2546C39.2268 16.7931 39.7555 15.8405 39.7774 15.8008C39.7993 15.7611 39.848 15.7474 39.887 15.7697C39.926 15.7921 39.9394 15.8417 39.9175 15.8814C39.7725 16.1394 39.418 16.8824 39.507 17.2099C39.5228 17.2657 39.5496 17.3042 39.591 17.3277C39.6678 17.3712 39.8432 17.3836 40.1051 17.2868C40.5546 17.1206 41.1405 16.6604 41.4366 15.8653C41.4524 15.8231 41.4987 15.802 41.5401 15.8181C41.5815 15.8342 41.6022 15.8814 41.5864 15.9236C41.4402 16.3143 41.2222 16.6529 40.9395 16.9308C40.7056 17.1603 40.4291 17.3414 40.1587 17.4406C40.0113 17.4977 39.8712 17.525 39.7518 17.525Z" fill="#748FBA"/>
<path d="M42.1212 27.3703C41.7691 27.3703 41.4012 27.1358 41.0394 26.6781C40.6923 26.2378 40.473 25.7503 40.4645 25.7292C40.4462 25.6882 40.4645 25.6399 40.5047 25.62C40.5449 25.6014 40.5924 25.62 40.6119 25.661C40.6204 25.6796 41.4694 27.5564 42.3892 27.147C42.4294 27.1284 42.4769 27.1482 42.4952 27.1892C42.5134 27.2301 42.4939 27.2785 42.4537 27.2971C42.3441 27.3467 42.2332 27.3703 42.1212 27.3703Z" fill="#748FBA"/>
<path d="M46.6065 30.0621C46.5931 30.0621 46.5809 30.0534 46.5748 30.041C46.5724 30.0348 46.3312 29.4195 46.2788 29.2794C46.2386 29.1702 46.0218 28.9717 45.9414 28.9048C45.9268 28.8924 45.9256 28.8713 45.9365 28.8564C45.9487 28.8415 45.9694 28.8403 45.984 28.8514C45.9962 28.8613 46.2874 29.107 46.3422 29.2546C46.3933 29.3947 46.6345 30.0088 46.637 30.015C46.6443 30.0323 46.6358 30.0522 46.6187 30.0596C46.6151 30.0609 46.6114 30.0621 46.6065 30.0621Z" fill="#EE9C9E"/>
<path d="M47.0938 29.938C47.0804 29.938 47.067 29.9293 47.0621 29.9157C47.0597 29.9082 46.8099 29.1801 46.7588 29.0412C46.7101 28.9097 46.5517 28.7645 46.5505 28.7633C46.5371 28.7509 46.5359 28.7286 46.548 28.7149C46.5602 28.7013 46.5821 28.7 46.5955 28.7124C46.6029 28.7186 46.7673 28.87 46.8221 29.0176C46.8733 29.1578 47.1242 29.8871 47.1267 29.8946C47.1328 29.9119 47.123 29.9318 47.106 29.938C47.1011 29.9368 47.0974 29.938 47.0938 29.938Z" fill="#EE9C9E"/>
<path d="M46.8855 29.9914C46.8721 29.9914 46.8587 29.9827 46.8538 29.9691L46.5407 29.1194C46.492 28.9879 46.2752 28.7994 46.2727 28.7969C46.2581 28.7845 46.2569 28.7634 46.2691 28.7485C46.2813 28.7336 46.302 28.7324 46.3166 28.7448C46.3263 28.7535 46.5493 28.947 46.6041 29.0946L46.9172 29.9443C46.9232 29.9617 46.9147 29.9815 46.8977 29.9877C46.8928 29.9902 46.8891 29.9914 46.8855 29.9914Z" fill="#EE9C9E"/>
<path d="M35.6746 20.5008L34.9302 17.7842C34.9144 17.7247 34.8559 17.6862 34.7963 17.6961L33.5976 17.8896C33.5269 17.9008 33.4818 17.9728 33.5013 18.0435L34.2456 20.76C34.2615 20.8196 34.3199 20.858 34.3796 20.8481L35.5783 20.6546C35.649 20.6434 35.694 20.5715 35.6746 20.5008Z" fill="#32477B"/>
<path d="M35.476 20.3011L34.8657 17.943C34.8523 17.8909 34.8048 17.8587 34.7561 17.8674L33.773 18.0348C33.7145 18.0448 33.678 18.1068 33.6938 18.1676L34.3041 20.5256C34.3175 20.5777 34.365 20.61 34.4137 20.6013L35.3968 20.4339C35.4553 20.4239 35.4918 20.3619 35.476 20.3011Z" fill="#C1CEF0"/>
<path d="M35.4796 19.2876C35.4796 19.2876 35.0204 19.3496 35.035 19.3496C35.0508 19.3496 34.9741 19.5208 35.2847 19.5096C35.4358 19.5047 35.4796 19.7701 35.4796 19.7701C35.4796 19.7701 35.6027 20.2539 35.6173 20.27C35.6331 20.2862 35.7854 20.0517 35.7403 19.7701C35.6953 19.4885 35.4796 19.2876 35.4796 19.2876Z" fill="#FFC1C2"/>
<path d="M33.8972 19.6586C33.9935 19.609 34.2931 19.7045 34.2444 19.8695C34.1957 20.0345 33.8777 19.908 33.8412 19.8236C33.7973 19.7244 33.8436 19.6859 33.8972 19.6586Z" fill="#FFC1C2"/>
<path d="M33.946 19.9117C34.041 19.872 34.3382 19.9563 34.2919 20.094C34.2456 20.2317 33.9301 20.1201 33.8924 20.0481C33.8485 19.965 33.8936 19.9328 33.946 19.9117Z" fill="#FFC1C2"/>
<path d="M33.9849 20.1051C34.08 20.0654 34.3772 20.1497 34.3309 20.2874C34.2846 20.4251 33.9691 20.3134 33.9313 20.2415C33.8875 20.1584 33.9326 20.1274 33.9849 20.1051Z" fill="#FFC1C2"/>
<path d="M34.0568 20.2948C34.1311 20.2638 34.3638 20.3295 34.3273 20.4375C34.2919 20.5454 34.0446 20.4573 34.0142 20.4015C33.9801 20.337 34.0154 20.3122 34.0568 20.2948Z" fill="#FFC1C2"/>
<path d="M33.9143 18.2754L34.7366 18.1377L34.901 18.7095L34.0751 18.846L33.9143 18.2754Z" fill="white"/>
<path d="M34.1336 19.0991L34.9558 18.9602L35.0374 19.2257L34.2115 19.3621L34.1336 19.0991Z" fill="white"/>
<path d="M25.5892 21.1618C25.5892 21.1618 26.4054 20.9534 26.5601 20.8839C26.7161 20.8144 27.1936 21.029 27.2898 21.0563C27.665 21.1605 28.6201 20.9993 28.8259 20.7971C29.0318 20.5949 29.0732 19.3929 28.921 19.2763C28.8333 19.2093 28.3192 19.2713 27.3203 19.2168C26.8318 19.1895 26.9621 19.3321 25.8706 19.9734C25.5892 20.1396 25.1275 20.224 25.1275 20.224L25.5892 21.1618Z" fill="#FFC1C2"/>
<path d="M27.1583 18.3572V20.5863C27.1583 20.657 27.2143 20.7141 27.2837 20.7141H28.5056C28.575 20.7141 28.631 20.657 28.631 20.5863V18.3572C28.631 18.2791 28.5689 18.2158 28.4922 18.2158H27.2983C27.2204 18.2158 27.1583 18.2791 27.1583 18.3572Z" fill="#687ED4"/>
<path d="M28.307 17.7258H27.4823C27.4116 17.7258 27.3544 17.8052 27.3544 17.9032V18.2257H28.4349V17.9032C28.4349 17.8052 28.3777 17.7258 28.307 17.7258Z" fill="#32477B"/>
<path d="M28.5689 18.9031H27.2192V20.0282H28.5689V18.9031Z" fill="white"/>
<path d="M28.4008 19.0271H27.3787V19.3124H28.4008V19.0271Z" fill="#687ED4"/>
<path d="M28.4008 19.4216H27.3787V19.5482H28.4008V19.4216Z" fill="#687ED4"/>
<path d="M26.9524 19.4524L27.4421 19.3271L28.1961 19.3569C28.1961 19.3569 28.2985 19.6435 28.1023 19.7253C27.9062 19.8084 27.4896 19.7018 27.4263 19.8233C27.3641 19.9449 27.3775 20.606 27.0194 20.6408C26.6625 20.6755 26.9524 19.4524 26.9524 19.4524Z" fill="#FFC1C2"/>
<path d="M28.9222 19.2765C28.9222 19.2765 28.469 19.1487 28.469 19.3224C28.469 19.496 28.2242 20.3817 28.7931 20.832L28.9222 19.2765Z" fill="#FFC1C2"/>
<path d="M28.9295 19.7961C28.9149 19.7961 28.9015 19.7874 28.8978 19.7725C28.8942 19.7626 28.8199 19.5344 28.5653 19.5182C28.547 19.517 28.5324 19.5009 28.5336 19.4823C28.5348 19.4637 28.5506 19.4488 28.5689 19.45C28.8698 19.4686 28.9599 19.749 28.9612 19.7515C28.9673 19.7701 28.9575 19.7887 28.9392 19.7949C28.9356 19.7961 28.9319 19.7961 28.9295 19.7961Z" fill="#EE9C9E"/>
<path d="M28.8881 20.1793C28.8747 20.1793 28.8613 20.1707 28.8564 20.157C28.8552 20.1533 28.7638 19.9114 28.5287 19.8407C28.5104 19.8357 28.5007 19.8159 28.5056 19.7985C28.5104 19.7799 28.5299 19.77 28.547 19.775C28.815 19.8556 28.9149 20.1223 28.9185 20.1334C28.9246 20.1508 28.9161 20.1707 28.899 20.1769C28.8966 20.1793 28.8929 20.1793 28.8881 20.1793Z" fill="#EE9C9E"/>
<path d="M28.8211 20.4945C28.804 20.4945 28.7894 20.4821 28.7882 20.4648C28.787 20.4561 28.7589 20.2502 28.5263 20.1497C28.5092 20.1422 28.5007 20.1224 28.508 20.105C28.5153 20.0877 28.5348 20.079 28.5519 20.0864C28.8223 20.2018 28.8527 20.4461 28.854 20.4561C28.8564 20.4747 28.843 20.492 28.8247 20.4945C28.8235 20.4945 28.8223 20.4945 28.8211 20.4945Z" fill="#EE9C9E"/>
<path d="M20.5301 14.4722C19.5812 14.4573 18.726 22.3713 22.4963 23.1354C24.1262 23.4654 26.6162 21.0862 26.6162 21.0862C26.6162 21.0862 26.0241 20.4362 26.2203 19.6709L22.9714 20.6074C22.9714 20.6074 21.8068 19.0941 21.7654 17.7953C21.7288 16.6467 20.9394 14.4796 20.5301 14.4722Z" fill="white"/>
<path d="M23.1407 23.2235C23.1017 23.2235 23.0688 23.1949 23.0627 23.154C23.0566 23.1106 23.0859 23.0684 23.1297 23.0622C24.5087 22.8563 26.1825 21.3764 26.5065 21.0787C26.3701 20.9051 26.0241 20.394 26.1155 19.7837L22.9921 20.6843C22.9616 20.6929 22.9275 20.6818 22.908 20.657C22.9007 20.6471 22.729 20.4238 22.5133 20.0715C22.4902 20.0343 22.5012 19.9834 22.5389 19.9598C22.5755 19.9363 22.6254 19.9474 22.6486 19.9859C22.8057 20.2427 22.9421 20.4337 23.0018 20.5143L26.1983 19.5927C26.2251 19.5852 26.2544 19.5927 26.2751 19.6125C26.2958 19.6324 26.3031 19.6621 26.2958 19.6907C26.1131 20.4027 26.6673 21.0254 26.6734 21.0316C26.7027 21.0638 26.7014 21.1147 26.6698 21.1457C26.5918 21.2214 24.7268 22.9878 23.1517 23.2222C23.148 23.2235 23.1444 23.2235 23.1407 23.2235Z" fill="#8AA2CE"/>
<path d="M16.1849 37.7118L19.2803 37.6448L17.4847 29.51L16.5187 29.964L16.1849 37.7118Z" fill="#32477B"/>
<path d="M22.0212 47.9727C21.9993 48.4056 20.3267 48.6016 20.2341 48.1774C20.0648 47.4009 19.2072 41.0746 18.9416 39.0725C18.5384 36.0359 18.5469 32.5416 18.2728 29.3549C17.3324 40.2026 16.8086 43.0754 16.3652 47.8636L14.4039 47.9181C14.2967 44.4573 13.5743 30.0384 13.7461 28.2472C13.8228 27.4446 16.9121 27.5476 17.4969 27.5674C18.458 27.5587 21.5303 27.1382 21.5376 27.2077C22.0212 31.7217 21.7057 35.3636 21.9871 38.7016C22.1869 41.0585 22.0541 47.3264 22.0212 47.9727Z" fill="#566AC0"/>
<path d="M19.854 48.7755C19.854 48.7755 19.8333 47.6243 20.8006 47.5946C22.2526 47.5487 23.6426 47.8489 23.8095 48.7804L19.854 48.7755Z" fill="#32477B"/>
<path d="M14.0056 48.7755C14.0056 48.7755 13.9848 47.6243 14.9521 47.5946C16.4041 47.5487 17.7941 47.8489 17.961 48.7804L14.0056 48.7755Z" fill="#32477B"/>
<path d="M16.1508 12.9265L17.7088 12.9128L18.4617 13.187L20.2804 16.8922L19.3278 27.0589C19.3278 27.0589 17.7198 27.6381 15.5173 27.008C12.4378 26.1273 14.6719 14.1198 14.6719 14.1198L16.1508 12.9265Z" fill="#F9AE3E"/>
<path d="M22.9616 37.1524C22.9616 37.1524 21.2099 37.5034 19.0257 37.6312C19.0257 37.6312 18.4958 33.0912 18.4751 34.0612C18.4288 36.1365 18.1656 37.7131 18.1656 37.7131C15.7475 38.1782 13.1151 37.6039 13.1151 37.6039C13.1151 37.6039 13.3246 26.1323 13.2223 24.3895C13.1199 22.6466 12.015 15.1544 12.9336 14.265C13.8508 13.3756 16.1508 12.9253 16.1508 12.9253C16.0058 13.3011 15.9023 13.7874 16.018 14.1732L18.1291 18.3448L18.7479 15.5228C18.8527 15.0068 18.832 14.4734 18.6882 13.9685L18.3947 13.1597C18.9648 13.388 19.4849 13.7353 19.8029 13.9437C20.2146 14.2154 20.8737 14.4349 20.9735 15.1432C21.0637 15.7808 21.0405 20.6694 20.5837 22.8997C20.4985 23.314 20.7457 23.9826 20.8931 24.3783C22.5048 28.7347 22.9616 37.1524 22.9616 37.1524Z" fill="white"/>
<path d="M18.4872 33.6917C18.4422 33.6917 18.4068 33.6545 18.4068 33.6098C18.4068 29.8674 18.3654 27.8467 18.112 25.0135C17.8343 21.9211 17.9561 19.2269 17.9744 18.8833L15.8036 16.6405C15.7281 16.5624 15.7147 16.4421 15.7707 16.349L16.1593 15.6978C16.1605 15.6966 16.1617 15.6941 16.1593 15.6891C16.1569 15.6842 16.1532 15.6842 16.152 15.6842L15.3918 15.5762C15.2968 15.5626 15.2298 15.4758 15.2383 15.379L15.4138 13.3472C15.4174 13.3025 15.4564 13.269 15.5015 13.2727C15.5453 13.2765 15.5782 13.3162 15.5746 13.3621L15.3991 15.3939C15.3979 15.4038 15.4052 15.4125 15.415 15.4137L16.1751 15.5217C16.2324 15.5304 16.2811 15.5663 16.3055 15.6197C16.3298 15.673 16.3274 15.7338 16.2969 15.7834L15.9083 16.4346C15.8913 16.4644 15.8949 16.5016 15.9193 16.5264L18.1401 18.82L18.1376 18.856C18.1364 18.8845 17.9793 21.7152 18.2728 24.9974C18.5274 27.8368 18.5689 29.8624 18.5689 33.6086C18.5689 33.6557 18.5323 33.6917 18.4872 33.6917Z" fill="#8AA2CE"/>
<path d="M18.458 18.5619C18.4422 18.5619 18.4276 18.5569 18.4142 18.5483C18.3776 18.5234 18.3666 18.4726 18.391 18.4341L19.8601 16.1728C19.8796 16.1418 19.876 16.1021 19.8504 16.076L19.0196 15.2325L19.8358 15.0812L18.9672 13.8767C18.9404 13.8408 18.9489 13.7887 18.9843 13.7626C19.0196 13.7353 19.0708 13.744 19.0963 13.78L19.9673 14.9882C20.0002 15.0328 20.0075 15.0911 19.9868 15.1432C19.9661 15.1953 19.9223 15.2325 19.8674 15.2425L19.3497 15.338L19.9625 15.9607C20.0416 16.0413 20.055 16.1691 19.9929 16.2646L18.5238 18.5259C18.5104 18.5495 18.4848 18.5619 18.458 18.5619Z" fill="#8AA2CE"/>
<path d="M14.7365 27.0292C14.3783 27.0292 13.8837 26.9908 13.2113 26.8568C13.1467 26.8444 13.1041 26.7799 13.1175 26.7141C13.1297 26.6484 13.193 26.6062 13.2576 26.6186C14.5074 26.8679 15.1129 26.7762 15.3724 26.7377C15.4381 26.7278 15.4771 26.7216 15.5112 26.7241C15.577 26.7278 15.6282 26.7836 15.6245 26.8506C15.6209 26.9176 15.5648 26.9684 15.5003 26.9659C15.4881 26.9659 15.4454 26.9721 15.4077 26.9783C15.2761 26.997 15.0642 27.0292 14.7365 27.0292Z" fill="#5FA6B2"/>
<path d="M18.3337 19.9885C18.3337 20.1411 18.4227 20.2652 18.5311 20.2652C18.6395 20.2652 18.7284 20.1411 18.7284 19.9885C18.7284 19.836 18.6395 19.7119 18.5311 19.7119C18.4227 19.7119 18.3337 19.8347 18.3337 19.9885Z" fill="#8AA2CE"/>
<path d="M18.1961 23.4207C18.1961 23.5732 18.285 23.6973 18.3934 23.6973C18.5019 23.6973 18.5908 23.5732 18.5908 23.4207C18.5908 23.2681 18.5019 23.144 18.3934 23.144C18.285 23.144 18.1961 23.2681 18.1961 23.4207Z" fill="white"/>
<path d="M18.0755 25.8879C18.0755 26.0405 18.1644 26.1646 18.2728 26.1646C18.3825 26.1646 18.4702 26.0405 18.4702 25.8879C18.4702 25.7354 18.3813 25.6113 18.2728 25.6113C18.1644 25.6113 18.0755 25.7354 18.0755 25.8879Z" fill="white"/>
<path d="M18.8235 29.0957C18.8235 29.2483 18.9124 29.3723 19.0208 29.3723C19.1304 29.3723 19.2182 29.2483 19.2182 29.0957C19.2182 28.9431 19.1292 28.8191 19.0208 28.8191C18.9112 28.8191 18.8235 28.9431 18.8235 29.0957Z" fill="#8AA2CE"/>
<path d="M18.7309 33.1458C18.7309 33.2983 18.8198 33.4224 18.9282 33.4224C19.0379 33.4224 19.1256 33.2983 19.1256 33.1458C19.1256 32.9932 19.0366 32.8691 18.9282 32.8691C18.8198 32.8679 18.7309 32.992 18.7309 33.1458Z" fill="#8AA2CE"/>
<path d="M15.3309 28.065C14.6086 28.065 14.0299 27.895 13.7887 27.6866C13.6657 27.58 13.6523 27.482 13.662 27.4175C13.6693 27.3728 13.7108 27.3418 13.7546 27.3492C13.7985 27.3567 13.8289 27.3989 13.8216 27.4435C13.8167 27.4745 13.8423 27.5167 13.8935 27.5614C14.2187 27.8429 15.482 28.1134 16.8366 27.6494C16.8792 27.6346 16.9243 27.6581 16.9389 27.7015C16.9535 27.745 16.9304 27.7908 16.8878 27.8057C16.3445 27.9918 15.8072 28.065 15.3309 28.065Z" fill="#8AA2CE"/>
<path d="M19.3521 26.5938L12.428 28.0823C12.3245 28.1046 12.2221 28.0364 12.2002 27.931L11.2318 23.2532C11.2098 23.1503 11.2732 23.0473 11.3743 23.0225L18.3009 21.3119C18.4068 21.2859 18.5128 21.3541 18.5347 21.4633L19.4995 26.3643C19.5215 26.4685 19.4557 26.5714 19.3521 26.5938Z" fill="#687ED4"/>
<path d="M11.7531 23.2767C11.9066 23.2259 18.1242 21.7646 18.1242 21.7646L19.0257 26.1496L12.6936 27.6146L11.7531 23.2767Z" fill="white"/>
<path d="M15.8873 22.6152L15.6287 22.6711L16.4103 26.4157L16.6689 26.3597L15.8873 22.6152Z" fill="#C1CEF0"/>
<path d="M16.4512 22.4902L16.1926 22.5461L16.9742 26.2903L17.2328 26.2344L16.4512 22.4902Z" fill="#C1CEF0"/>
<path d="M17.0362 22.3513L16.7776 22.4072L17.5591 26.1518L17.8177 26.0958L17.0362 22.3513Z" fill="#C1CEF0"/>
<path d="M14.1684 23.0048L13.9098 23.0608L14.6914 26.805L14.9499 26.749L14.1684 23.0048Z" fill="#C1CEF0"/>
<path d="M14.7349 22.8793L14.4763 22.9353L15.2579 26.6795L15.5165 26.6235L14.7349 22.8793Z" fill="#C1CEF0"/>
<path d="M15.317 22.7394L15.0585 22.7954L15.84 26.5396L16.0986 26.4836L15.317 22.7394Z" fill="#C1CEF0"/>
<path d="M15.3858 25.1487C15.3858 25.1487 15.7232 25.2889 15.7695 25.4451C15.8158 25.6014 17.1643 26.8344 17.0876 27.286C17.0108 27.7387 15.8036 27.926 15.3102 27.4423C14.8156 26.9585 14.6207 26.2564 14.4831 25.8818C14.3454 25.5072 13.7436 25.1487 13.7436 25.1487H15.3858Z" fill="#FFC1C2"/>
<path d="M13.2856 13.9922C11.2671 14.141 9.31799 20.5913 9.80526 22.7001C10.0099 23.5857 10.8054 24.954 13.9471 26.5454C13.9471 26.5454 14.7267 25.2517 15.309 25.0395C14.8473 24.7183 14.0981 24.6811 13.3477 23.1516C12.8873 22.2151 12.8069 20.631 13.3027 19.5196C13.7985 18.4106 15.767 13.8086 13.2856 13.9922Z" fill="white"/>
<path d="M13.9471 26.626C13.9349 26.626 13.9227 26.6236 13.9118 26.6174C13.3514 26.3333 12.8385 26.043 12.3878 25.7528C12.3513 25.7292 12.3403 25.6796 12.3634 25.6411C12.3866 25.6039 12.4353 25.5928 12.4731 25.6163C12.9019 25.8917 13.3879 26.1696 13.9191 26.44C14.086 26.1733 14.7499 25.1574 15.2822 24.9639C15.3236 24.949 15.3687 24.9713 15.3833 25.0122C15.3979 25.0544 15.376 25.1003 15.3358 25.1152C14.7864 25.3149 14.0226 26.574 14.0153 26.5864C13.9995 26.6124 13.9739 26.626 13.9471 26.626Z" fill="#8AA2CE"/>
<path d="M15.6233 25.3286C15.6233 25.3286 16.0594 25.4452 16.2884 25.6015C16.5187 25.7578 16.4565 26.3197 16.4565 26.3197L15.4905 25.5395L15.6233 25.3286Z" fill="#FFC1C2"/>
<path d="M15.2201 25.0903C15.2079 25.0903 15.1945 25.0878 15.1823 25.0804C14.3686 24.6462 13.7631 24.1091 13.3818 23.4839C13.0529 22.9443 12.8824 22.3229 12.8751 21.6369C12.8617 20.389 13.3831 19.1275 13.7631 18.2058C13.9471 17.7618 14.1054 17.3772 14.1566 17.1118C14.2918 16.4097 14.1931 15.8168 14.0872 15.4421C13.9714 15.0353 13.8216 14.7921 13.8204 14.7897C13.796 14.7512 13.8082 14.7004 13.8447 14.6768C13.8825 14.652 13.9325 14.6631 13.9556 14.7016C13.9617 14.7115 14.1176 14.9621 14.2394 15.39C14.3515 15.7833 14.4563 16.406 14.3137 17.1428C14.2601 17.4244 14.0981 17.8163 13.9105 18.2691C13.5353 19.1771 13.0213 20.42 13.0347 21.6344C13.0505 23.0659 13.7777 24.1451 15.2566 24.9353C15.2956 24.9563 15.3114 25.006 15.2907 25.0457C15.2773 25.0742 15.2493 25.0903 15.2201 25.0903Z" fill="#8AA2CE"/>
<path d="M20.7713 21.6406C20.7628 21.6406 20.7531 21.6393 20.7445 21.6356C20.7031 21.6207 20.6812 21.5736 20.6958 21.5302C21.3634 19.6261 21.2952 17.9974 21.1197 16.9666C20.9309 15.8527 20.5813 15.1828 20.5789 15.1766C20.5582 15.1369 20.5728 15.0873 20.6118 15.065C20.6507 15.0439 20.6995 15.0588 20.7214 15.0985C20.736 15.127 21.0856 15.7981 21.2793 16.9381C21.3926 17.6067 21.4279 18.2963 21.3829 18.9898C21.328 19.8556 21.1478 20.7289 20.8481 21.5848C20.8359 21.6195 20.8042 21.6406 20.7713 21.6406Z" fill="#8AA2CE"/>
<path d="M20.2231 27.8243C19.7627 27.8243 19.3899 27.7176 19.3655 27.7102C19.3229 27.6978 19.2985 27.6519 19.3107 27.6085C19.3229 27.5651 19.368 27.5403 19.4106 27.5527C19.4204 27.5551 20.3718 27.8268 21.0868 27.4882C21.127 27.4696 21.1758 27.4869 21.194 27.5279C21.2123 27.5688 21.1953 27.6172 21.1551 27.637C20.8529 27.7809 20.5204 27.8243 20.2231 27.8243Z" fill="#8AA2CE"/>
<path d="M16.1215 27.6642C16.1203 27.6642 16.1203 27.6642 16.1191 27.6642C15.778 27.6394 15.4783 27.2387 15.4661 27.2213C15.4552 27.2064 15.4576 27.1854 15.4722 27.173C15.4869 27.1618 15.5076 27.1643 15.5197 27.1792C15.5222 27.1829 15.8133 27.5724 16.124 27.5947C16.1422 27.5959 16.1569 27.6121 16.1556 27.6307C16.1532 27.6505 16.1386 27.6642 16.1215 27.6642Z" fill="#EE9C9E"/>
<path d="M16.543 27.5947C16.5406 27.5947 16.5382 27.5947 16.5357 27.5935C16.1581 27.5141 15.8974 27.1122 15.8864 27.0948C15.8767 27.0787 15.8803 27.0576 15.8962 27.0477C15.912 27.0378 15.9327 27.0415 15.9425 27.0576C15.9449 27.0614 16.1995 27.4521 16.5491 27.5265C16.5674 27.5302 16.5784 27.5488 16.5747 27.5675C16.5723 27.5836 16.5576 27.5947 16.543 27.5947Z" fill="#EE9C9E"/>
<path d="M16.8999 27.3913C16.6405 27.3913 16.3286 26.8976 16.3152 26.8753C16.3055 26.8592 16.3103 26.8381 16.325 26.8282C16.3408 26.8182 16.3615 26.8232 16.3713 26.8381C16.4577 26.977 16.7233 27.333 16.9073 27.3219C16.9255 27.3206 16.9414 27.3355 16.9426 27.3541C16.9438 27.3727 16.9292 27.3888 16.9109 27.3901C16.9085 27.3913 16.9036 27.3913 16.8999 27.3913Z" fill="#EE9C9E"/>
<path d="M16.3664 26.182C16.3554 26.182 16.3457 26.177 16.3384 26.1671C16.2434 26.0245 15.8974 25.7478 15.8937 25.7454C15.8791 25.7342 15.8767 25.7119 15.8876 25.697C15.8986 25.6821 15.9205 25.6796 15.9352 25.6908C15.9498 25.7019 16.2933 25.9761 16.3944 26.1274C16.4054 26.1435 16.4005 26.1646 16.3859 26.1745C16.3798 26.1808 16.3725 26.182 16.3664 26.182Z" fill="#EE9C9E"/>
<path d="M18.9234 22.7917L18.0095 22.9895L18.3887 24.8058L19.3026 24.608L18.9234 22.7917Z" fill="#32477B"/>
<path d="M19.1792 24.1613C18.927 24.2158 18.6785 24.0521 18.6249 23.7941L18.603 23.6899C18.5494 23.4331 18.7102 23.1801 18.9635 23.1255C19.2157 23.0709 19.4642 23.2346 19.5178 23.4927L19.5397 23.5968C19.5921 23.8536 19.4313 24.1067 19.1792 24.1613Z" fill="#32477B"/>
<path d="M20.3986 8.69553C20.3986 9.16937 20.0307 9.55267 19.5775 9.55267C19.1243 9.55267 18.7565 9.16937 18.7565 8.69553C18.7565 8.22168 19.1243 7.83838 19.5775 7.83838C20.0307 7.83838 20.3986 8.22292 20.3986 8.69553Z" fill="#32477B"/>
<path d="M18.5494 12.0817C18.5494 12.0817 18.3642 13.1386 18.3435 13.729C18.3216 14.3195 17.9988 14.5626 17.9988 14.5626C17.9988 14.5626 15.7792 13.863 16.1045 13.115C16.3615 12.5246 16.1898 10.3513 16.1898 10.3513L18.5494 12.0817Z" fill="#FFC1C2"/>
<path d="M20.1172 8.86792C20.1525 12.1018 19.0366 12.9254 18.4897 12.9254C17.7466 12.9254 16.3566 11.4443 16.0899 9.39635C15.8231 7.34714 20.1001 7.29876 20.1172 8.86792Z" fill="#FFC1C2"/>
<path d="M16.4407 7.28131C15.3322 7.5356 15.1555 8.45973 15.4272 8.98692C15.3321 9.10104 15.2749 9.24865 15.2749 9.40991C15.2749 9.77336 15.5636 10.0673 15.9205 10.0673C15.9632 10.0673 16.0046 10.0636 16.0448 10.0549C16.2604 10.5449 16.4687 11.0671 16.4687 11.0671C16.4687 11.0671 17.2788 10.1393 17.0997 8.79465C17.0997 8.79465 20.1452 9.66916 20.1452 8.00821C20.1452 6.738 17.6053 5.92427 16.4407 7.28131Z" fill="#32477B"/>
<path d="M15.6379 10.7472C15.8377 11.2049 16.18 11.494 16.4029 11.3935C16.6259 11.293 16.6441 10.8402 16.4443 10.3825C16.2446 9.9248 15.9023 9.63577 15.6793 9.73625C15.4564 9.83673 15.4381 10.2895 15.6379 10.7472Z" fill="#FFC1C2"/>
<path d="M16.2202 10.9419C16.2165 10.9419 16.2129 10.9419 16.2092 10.9407C16.163 10.9345 16.1301 10.8923 16.1349 10.8439C16.1349 10.8389 16.1715 10.5152 16.0399 10.3465C15.9961 10.2907 15.9388 10.2597 15.8645 10.2522C15.8182 10.2473 15.7841 10.2051 15.789 10.1579C15.7938 10.1108 15.8353 10.0761 15.8816 10.081C16.0022 10.0934 16.0996 10.1468 16.1727 10.2398C16.3493 10.4656 16.3043 10.8489 16.303 10.865C16.2982 10.9097 16.2616 10.9419 16.2202 10.9419Z" fill="#EE9C9E"/>
<path d="M17.9853 9.88999C17.9537 9.88999 17.9232 9.87014 17.911 9.83913C17.894 9.79695 17.9135 9.74857 17.9549 9.73121C18.486 9.51041 18.8612 9.64686 18.8771 9.65306C18.9185 9.66919 18.9404 9.71632 18.9246 9.7585C18.9087 9.80067 18.8624 9.823 18.821 9.80688C18.8161 9.80563 18.4836 9.68779 18.0158 9.88254C18.0061 9.8875 17.9951 9.88999 17.9853 9.88999Z" fill="#32477B"/>
<path d="M19.2973 9.78196C19.2681 9.78196 19.2401 9.76584 19.2255 9.73731C19.2047 9.69761 19.2206 9.64676 19.2596 9.62567C19.6153 9.43588 19.9722 9.57605 19.9868 9.58225C20.0282 9.59962 20.0489 9.64676 20.0319 9.68893C20.0148 9.73111 19.9685 9.75219 19.9271 9.73483C19.9223 9.73359 19.6226 9.61698 19.3339 9.7708C19.3229 9.77824 19.3095 9.78196 19.2973 9.78196Z" fill="#32477B"/>
<path d="M18.6285 10.3326C18.6285 10.4629 18.5579 10.5696 18.4702 10.5696C18.3825 10.5696 18.3118 10.4641 18.3118 10.3326C18.3118 10.2024 18.3825 10.0957 18.4702 10.0957C18.5579 10.0957 18.6285 10.2011 18.6285 10.3326Z" fill="#824142"/>
<path d="M18.134 10.4815C18.1303 10.4815 18.1254 10.4815 18.1218 10.4802C18.0877 10.4728 18.0645 10.4393 18.0718 10.4046C18.0962 10.2805 18.2363 10.0523 18.5932 10.0709C18.6285 10.0721 18.6553 10.1031 18.6541 10.1391C18.6529 10.1751 18.6225 10.2024 18.5871 10.2011C18.2485 10.1838 18.1985 10.4219 18.1973 10.4319C18.19 10.4604 18.1632 10.4815 18.134 10.4815Z" fill="#824142"/>
<path d="M19.8735 10.308C19.8735 10.4382 19.8029 10.5449 19.7152 10.5449C19.6275 10.5449 19.5568 10.4395 19.5568 10.308C19.5568 10.1777 19.6275 10.071 19.7152 10.071C19.8029 10.0723 19.8735 10.1777 19.8735 10.308Z" fill="#824142"/>
<path d="M19.4155 10.4331C19.4118 10.4331 19.407 10.4331 19.4033 10.4319C19.3692 10.4245 19.3461 10.391 19.3534 10.3562C19.3777 10.2322 19.5178 10.0039 19.8747 10.0226C19.9101 10.0238 19.9369 10.0548 19.9344 10.0908C19.9332 10.1268 19.9028 10.154 19.8674 10.1516C19.5288 10.1342 19.4788 10.3724 19.4776 10.3823C19.4715 10.4108 19.4447 10.4331 19.4155 10.4331Z" fill="#824142"/>
<path d="M19.0257 11.4268C18.9696 11.4268 18.9112 11.4206 18.849 11.4082C18.8174 11.402 18.7979 11.371 18.804 11.3388C18.8101 11.3065 18.8405 11.2867 18.8722 11.2929C19.0025 11.3189 19.1146 11.3139 19.2047 11.278C19.2608 11.2544 19.3375 11.1887 19.3558 11.1353C19.3619 11.1155 19.3582 11.108 19.3558 11.1043C19.3436 11.082 19.3278 11.0572 19.3095 11.0286C19.2023 10.8575 19.0232 10.5722 19.0001 10.1454C18.9989 10.1132 19.022 10.0859 19.0549 10.0834C19.0866 10.0809 19.1134 10.1058 19.1158 10.1392C19.1377 10.5362 19.3071 10.8054 19.4082 10.9666C19.4265 10.9964 19.4435 11.0224 19.4569 11.046C19.4788 11.0832 19.4813 11.1279 19.4667 11.1738C19.435 11.2668 19.3314 11.3536 19.2498 11.3871C19.1816 11.4132 19.1073 11.4268 19.0257 11.4268Z" fill="#DF7E7F"/>
<path d="M18.9903 11.9948C18.7175 11.9948 18.4885 11.8596 18.4751 11.8522C18.447 11.836 18.4385 11.8001 18.4543 11.7715C18.4702 11.7442 18.5055 11.7343 18.5335 11.7504C18.5372 11.7529 18.9635 12.0023 19.3034 11.7914C19.3302 11.774 19.3655 11.7839 19.3826 11.8112C19.3997 11.8385 19.3899 11.8745 19.3631 11.8919C19.2413 11.9688 19.1122 11.9948 18.9903 11.9948Z" fill="#DF7E7F"/>
<path d="M18.2972 13.0319C18.2948 13.0319 18.2911 13.0319 18.2887 13.0307C17.8136 12.9588 17.3482 12.6685 16.9401 12.1909C16.6344 11.8324 16.4711 11.5012 16.4651 11.4876C16.4504 11.4566 16.4626 11.4206 16.4919 11.4057C16.5223 11.3908 16.5576 11.4032 16.5735 11.433C16.5747 11.4367 16.7379 11.7667 17.0339 12.1128C17.3044 12.4291 17.7441 12.8235 18.3069 12.9091C18.3398 12.9141 18.363 12.9451 18.3581 12.9786C18.352 13.0109 18.3264 13.0319 18.2972 13.0319Z" fill="#DF7E7F"/>
<path d="M20.1988 18.9129C19.6713 18.9129 19.2084 18.743 19.1792 18.7318C19.1377 18.7157 19.1158 18.6686 19.1317 18.6264C19.1475 18.5842 19.1938 18.5619 19.2352 18.578C19.2474 18.583 20.2633 18.9539 20.948 18.583C20.9869 18.5619 21.0357 18.5768 21.0564 18.6165C21.0771 18.6562 21.0625 18.7058 21.0235 18.7269C20.7665 18.867 20.4729 18.9129 20.1988 18.9129Z" fill="#8AA2CE"/>
<path d="M48.0001 48.7271H0.186501V48.9987H48.0001V48.7271Z" fill="#A3B3DE"/>
</svg>
