<svg width="61" height="60" viewBox="0 0 61 60" fill="none" xmlns="http://www.w3.org/2000/svg">
<rect x="0.5" width="60" height="60" rx="30" fill="#FF9800" fill-opacity="0.08"/>
<path fill-rule="evenodd" clip-rule="evenodd" d="M39.5544 30.0012C39.5544 30.9502 40.3338 31.7224 41.2916 31.7224C41.7746 31.7224 42.1666 32.1109 42.1666 32.5895V35.7118C42.1666 38.3521 39.9989 40.5 37.3343 40.5H23.6668C21.0021 40.5 18.8333 38.3521 18.8333 35.7118V32.5895C18.8333 32.1109 19.2253 31.7224 19.7083 31.7224C20.6673 31.7224 21.4466 30.9502 21.4466 30.0012C21.4466 29.0764 20.6988 28.3804 19.7083 28.3804C19.4761 28.3804 19.2544 28.2891 19.0899 28.1261C18.9254 27.9631 18.8333 27.7423 18.8333 27.5134L18.8356 24.2893C18.8356 21.649 21.0033 19.5 23.6679 19.5H37.3319C39.9966 19.5 42.1654 21.649 42.1654 24.2893L42.1666 27.4129C42.1666 27.6417 42.0744 27.8637 41.9111 28.0255C41.7466 28.1885 41.5249 28.2799 41.2916 28.2799C40.3338 28.2799 39.5544 29.0521 39.5544 30.0012ZM33.1273 30.756L34.5028 29.4289C34.7419 29.2 34.8248 28.8625 34.7209 28.5504C34.6183 28.2382 34.3499 28.0163 34.0256 27.9712L32.1251 27.6961L31.2746 25.9898C31.1288 25.6962 30.8324 25.5135 30.5023 25.5124H30.4999C30.1709 25.5124 29.8746 25.695 29.7264 25.9887L28.8759 27.6961L26.9789 27.9701C26.6511 28.0163 26.3828 28.2382 26.2789 28.5504C26.1763 28.8625 26.2591 29.2 26.4971 29.4289L27.8726 30.756L27.5483 32.6322C27.4923 32.9559 27.6241 33.2773 27.8924 33.4703C28.0441 33.5778 28.2203 33.6333 28.3988 33.6333C28.5353 33.6333 28.6729 33.5998 28.7989 33.5339L30.4999 32.6484L32.1974 33.5316C32.4914 33.6877 32.8403 33.6634 33.1074 33.4692C33.3769 33.2773 33.5088 32.9559 33.4528 32.6322L33.1273 30.756Z" fill="url(#paint0_linear_6_3309)"/>
<defs>
<linearGradient id="paint0_linear_6_3309" x1="42.1666" y1="40.5" x2="14.898" y2="31.7153" gradientUnits="userSpaceOnUse">
<stop stop-color="#FB9400"/>
<stop offset="1" stop-color="#FFAB38"/>
</linearGradient>
</defs>
</svg>
