<svg width="40" height="40" viewBox="0 0 40 40" fill="none" xmlns="http://www.w3.org/2000/svg">
<path d="M15.2 20.0001C15.2 20.6366 14.9472 21.2471 14.4971 21.6972C14.047 22.1472 13.4365 22.4001 12.8 22.4001C12.1635 22.4001 11.5531 22.1472 11.103 21.6972C10.6529 21.2471 10.4 20.6366 10.4 20.0001C10.4 19.3636 10.6529 18.7531 11.103 18.303C11.5531 17.853 12.1635 17.6001 12.8 17.6001C13.4365 17.6001 14.047 17.853 14.4971 18.303C14.9472 18.7531 15.2 19.3636 15.2 20.0001ZM22.4 20.0001C22.4 20.6366 22.1472 21.2471 21.6971 21.6972C21.247 22.1472 20.6365 22.4001 20 22.4001C19.3635 22.4001 18.7531 22.1472 18.303 21.6972C17.8529 21.2471 17.6 20.6366 17.6 20.0001C17.6 19.3636 17.8529 18.7531 18.303 18.303C18.7531 17.853 19.3635 17.6001 20 17.6001C20.6365 17.6001 21.247 17.853 21.6971 18.303C22.1472 18.7531 22.4 19.3636 22.4 20.0001ZM27.2 22.4001C27.8365 22.4001 28.447 22.1472 28.8971 21.6972C29.3472 21.2471 29.6 20.6366 29.6 20.0001C29.6 19.3636 29.3472 18.7531 28.8971 18.303C28.447 17.853 27.8365 17.6001 27.2 17.6001C26.5635 17.6001 25.9531 17.853 25.503 18.303C25.0529 18.7531 24.8 19.3636 24.8 20.0001C24.8 20.6366 25.0529 21.2471 25.503 21.6972C25.9531 22.1472 26.5635 22.4001 27.2 22.4001Z" fill="#111827"/>
</svg>
