<svg width="15" height="14" viewBox="0 0 15 14" fill="none" xmlns="http://www.w3.org/2000/svg">
<path d="M12.4788 2.76758H10.4313C10.4422 3.14547 10.4993 3.49492 10.5953 3.76316C10.6998 4.05629 10.8176 4.16047 10.8868 4.16047C10.9231 4.16047 10.9578 4.17487 10.9835 4.20051C11.0091 4.22615 11.0235 4.26093 11.0235 4.29719C11.0235 4.33345 11.0091 4.36822 10.9835 4.39386C10.9578 4.4195 10.9231 4.43391 10.8868 4.43391C10.4313 4.43391 10.1822 3.61687 10.1578 2.76758H6.89653C6.90747 3.14547 6.96489 3.49492 7.0606 3.76316C7.16532 4.05629 7.2829 4.16047 7.35208 4.16047C7.38834 4.16047 7.42312 4.17487 7.44875 4.20051C7.47439 4.22615 7.4888 4.26093 7.4888 4.29719C7.4888 4.33345 7.47439 4.36822 7.44875 4.39386C7.42312 4.4195 7.38834 4.43391 7.35208 4.43391C6.89653 4.43391 6.64743 3.61687 6.6231 2.76758H3.36181C3.37274 3.14547 3.43017 3.49492 3.52587 3.76316C3.63032 4.05629 3.74817 4.16047 3.81708 4.16047C3.85334 4.16047 3.88812 4.17487 3.91375 4.20051C3.93939 4.22615 3.9538 4.26093 3.9538 4.29719C3.9538 4.33345 3.93939 4.36822 3.91375 4.39386C3.88812 4.4195 3.85334 4.43391 3.81708 4.43391C3.36181 4.43391 3.11243 3.61687 3.0881 2.76758H2.22485C1.98925 2.76787 1.76338 2.86159 1.59679 3.02818C1.43019 3.19478 1.33647 3.42065 1.33618 3.65625V12.0098C1.33647 12.2454 1.43019 12.4712 1.59679 12.6378C1.76338 12.8044 1.98925 12.8981 2.22485 12.8984H12.4788C12.7144 12.8981 12.9402 12.8044 13.1068 12.6378C13.2734 12.4712 13.3671 12.2454 13.3674 12.0098V3.65625C13.3671 3.42065 13.2734 3.19478 13.1068 3.02818C12.9402 2.86159 12.7144 2.76787 12.4788 2.76758ZM4.78149 11.5534C4.78149 11.5897 4.76709 11.6244 4.74145 11.6501C4.71581 11.6757 4.68104 11.6901 4.64478 11.6901H2.68478C2.64852 11.6901 2.61374 11.6757 2.5881 11.6501C2.56246 11.6244 2.54806 11.5897 2.54806 11.5534V10.1963C2.54806 10.1601 2.56246 10.1253 2.5881 10.0997C2.61374 10.074 2.64852 10.0596 2.68478 10.0596H4.64478C4.68104 10.0596 4.71581 10.074 4.74145 10.0997C4.76709 10.1253 4.78149 10.1601 4.78149 10.1963V11.5534ZM4.78149 9.34457C4.78149 9.38083 4.76709 9.41561 4.74145 9.44124C4.71581 9.46688 4.68104 9.48129 4.64478 9.48129H2.68478C2.64852 9.48129 2.61374 9.46688 2.5881 9.44124C2.56246 9.41561 2.54806 9.38083 2.54806 9.34457V7.9875C2.54806 7.95124 2.56246 7.91647 2.5881 7.89083C2.61374 7.86519 2.64852 7.85078 2.68478 7.85078H4.64478C4.68104 7.85078 4.71581 7.86519 4.74145 7.89083C4.76709 7.91647 4.78149 7.95124 4.78149 7.9875V9.34457ZM4.78149 7.13656C4.78149 7.17282 4.76709 7.2076 4.74145 7.23324C4.71581 7.25888 4.68104 7.27328 4.64478 7.27328H2.68478C2.64852 7.27328 2.61374 7.25888 2.5881 7.23324C2.56246 7.2076 2.54806 7.17282 2.54806 7.13656V5.77867C2.54806 5.74241 2.56246 5.70764 2.5881 5.682C2.61374 5.65636 2.64852 5.64195 2.68478 5.64195H4.64478C4.68104 5.64195 4.71581 5.65636 4.74145 5.682C4.76709 5.70764 4.78149 5.74241 4.78149 5.77867V7.13656ZM8.46853 11.5534C8.46853 11.5897 8.45412 11.6244 8.42848 11.6501C8.40284 11.6757 8.36807 11.6901 8.33181 11.6901H6.37153C6.33527 11.6901 6.3005 11.6757 6.27486 11.6501C6.24922 11.6244 6.23481 11.5897 6.23481 11.5534V10.1963C6.23481 10.1601 6.24922 10.1253 6.27486 10.0997C6.3005 10.074 6.33527 10.0596 6.37153 10.0596H8.33181C8.36807 10.0596 8.40284 10.074 8.42848 10.0997C8.45412 10.1253 8.46853 10.1601 8.46853 10.1963V11.5534ZM8.46853 9.34457C8.46853 9.38083 8.45412 9.41561 8.42848 9.44124C8.40284 9.46688 8.36807 9.48129 8.33181 9.48129H6.37153C6.33527 9.48129 6.3005 9.46688 6.27486 9.44124C6.24922 9.41561 6.23481 9.38083 6.23481 9.34457V7.9875C6.23481 7.95124 6.24922 7.91647 6.27486 7.89083C6.3005 7.86519 6.33527 7.85078 6.37153 7.85078H8.33181C8.36807 7.85078 8.40284 7.86519 8.42848 7.89083C8.45412 7.91647 8.46853 7.95124 8.46853 7.9875V9.34457ZM8.46853 7.13574C8.46853 7.172 8.45412 7.20678 8.42848 7.23242C8.40284 7.25806 8.36807 7.27246 8.33181 7.27246H6.37153C6.33527 7.27246 6.3005 7.25806 6.27486 7.23242C6.24922 7.20678 6.23481 7.172 6.23481 7.13574V5.77867C6.23481 5.74241 6.24922 5.70764 6.27486 5.682C6.3005 5.65636 6.33527 5.64195 6.37153 5.64195H8.33181C8.36807 5.64195 8.40284 5.65636 8.42848 5.682C8.45412 5.70764 8.46853 5.74241 8.46853 5.77867V7.13574ZM12.1556 11.5534C12.1556 11.5897 12.1412 11.6244 12.1155 11.6501C12.0899 11.6757 12.0551 11.6901 12.0188 11.6901H10.0588C10.0226 11.6901 9.9878 11.6757 9.96216 11.6501C9.93652 11.6244 9.92212 11.5897 9.92212 11.5534V10.1963C9.92212 10.1601 9.93652 10.1253 9.96216 10.0997C9.9878 10.074 10.0226 10.0596 10.0588 10.0596H12.0191C12.0554 10.0596 12.0901 10.074 12.1158 10.0997C12.1414 10.1253 12.1558 10.1601 12.1558 10.1963L12.1556 11.5534ZM12.1556 9.34457C12.1556 9.38083 12.1412 9.41561 12.1155 9.44124C12.0899 9.46688 12.0551 9.48129 12.0188 9.48129H10.0588C10.0226 9.48129 9.9878 9.46688 9.96216 9.44124C9.93652 9.41561 9.92212 9.38083 9.92212 9.34457V7.9875C9.92212 7.95124 9.93652 7.91647 9.96216 7.89083C9.9878 7.86519 10.0226 7.85078 10.0588 7.85078H12.0191C12.0554 7.85078 12.0901 7.86519 12.1158 7.89083C12.1414 7.91647 12.1558 7.95124 12.1558 7.9875L12.1556 9.34457ZM12.1556 7.13574C12.1556 7.172 12.1412 7.20678 12.1155 7.23242C12.0899 7.25806 12.0551 7.27246 12.0188 7.27246H10.0588C10.0226 7.27246 9.9878 7.25806 9.96216 7.23242C9.93652 7.20678 9.92212 7.172 9.92212 7.13574V5.77867C9.92212 5.74241 9.93652 5.70764 9.96216 5.682C9.9878 5.65636 10.0226 5.64195 10.0588 5.64195H12.0191C12.0554 5.64195 12.0901 5.65636 12.1158 5.682C12.1414 5.70764 12.1558 5.74241 12.1558 5.77867L12.1556 7.13574Z" fill="#2563EB"/>
<path d="M4.27236 2.49445H3.36181C3.37275 2.11656 3.43017 1.76711 3.52587 1.49887C3.63032 1.20574 3.74818 1.10156 3.81708 1.10156C3.88599 1.10156 4.00411 1.20574 4.10857 1.49887C4.20427 1.76711 4.26197 2.11656 4.27236 2.49445Z" fill="#2563EB"/>
<path d="M7.80708 2.49445H6.89653C6.90747 2.11656 6.96489 1.76711 7.06059 1.49887C7.16532 1.20574 7.2829 1.10156 7.35208 1.10156C7.42126 1.10156 7.53884 1.20574 7.64356 1.49887C7.73872 1.76711 7.79614 2.11656 7.80708 2.49445Z" fill="#2563EB"/>
<path d="M11.3418 2.49445H10.4313C10.4422 2.11656 10.4993 1.76711 10.5953 1.49887C10.6998 1.20574 10.8176 1.10156 10.8868 1.10156C10.956 1.10156 11.0736 1.20574 11.178 1.49887C11.2734 1.76711 11.3309 2.11656 11.3418 2.49445Z" fill="#2563EB"/>
<path d="M2.8215 5.91553H4.50833V6.99916H2.8215V5.91553Z" fill="#2563EB"/>
<path d="M6.50826 5.91553H8.19509V6.99916H6.50826V5.91553Z" fill="#2563EB"/>
<path d="M10.1953 5.91553H11.8821V6.99916H10.1953V5.91553Z" fill="#2563EB"/>
<path d="M2.8215 8.12451H4.50833V9.20814H2.8215V8.12451Z" fill="#2563EB"/>
<path d="M6.50826 8.12451H8.19509V9.20814H6.50826V8.12451Z" fill="#2563EB"/>
<path d="M10.1953 8.12451H11.8821V9.20814H10.1953V8.12451Z" fill="#2563EB"/>
<path d="M2.8215 10.333H4.50833V11.4166H2.8215V10.333Z" fill="#2563EB"/>
<path d="M6.50826 10.333H8.19509V11.4166H6.50826V10.333Z" fill="#2563EB"/>
<path d="M10.1953 10.333H11.8821V11.4166H10.1953V10.333Z" fill="#2563EB"/>
</svg>
