<svg width="35" height="33" viewBox="0 0 35 33" fill="none" xmlns="http://www.w3.org/2000/svg">
<path d="M16.8978 0.974589C17.2866 0.19011 18.4101 0.190111 18.799 0.974591L23.2095 9.87271C23.3639 10.1842 23.6624 10.4001 24.0077 10.4501L33.87 11.877C34.7395 12.0028 35.0866 13.0667 34.4575 13.6773L27.3211 20.6035C27.0712 20.846 26.9572 21.1954 27.0162 21.5378L28.7009 31.3177C28.8494 32.18 27.9405 32.8375 27.1628 32.4304L18.3417 27.8129C18.0328 27.6513 17.6639 27.6513 17.3551 27.8129L8.53396 32.4304C7.75627 32.8375 6.84734 32.18 6.99587 31.3177L8.68055 21.5378C8.73953 21.1954 8.62552 20.846 8.37568 20.6035L1.23925 13.6773C0.610088 13.0667 0.95727 12.0028 1.82675 11.877L11.6891 10.4501C12.0343 10.4001 12.3328 10.1842 12.4872 9.87271L16.8978 0.974589Z" fill="#E9E9EA"/>
</svg>
