<svg width="17" height="18" viewBox="0 0 17 18" fill="none" xmlns="http://www.w3.org/2000/svg">
<path d="M16.9167 7.33342C16.9167 6.18508 15.9825 5.25008 14.8333 5.25008C13.6842 5.25008 12.75 6.18508 12.75 7.33342C12.75 8.18508 13.265 8.91765 14 9.24015V11.9167C14 13.9842 12.3175 15.6667 10.25 15.6667C8.1825 15.6667 6.5 13.9842 6.5 11.9167V11.4368C8.98916 11.0843 10.6667 9.15675 10.6667 6.50008V2.75008C10.6667 1.46508 9.86833 0.666748 8.58333 0.666748H8.16666C7.70583 0.666748 7.33333 1.04008 7.33333 1.50008C7.33333 1.96008 7.70583 2.33341 8.16666 2.33341H8.58333C8.95666 2.33341 9 2.37591 9 2.75008V6.50008C9 8.52508 7.69166 9.83342 5.66666 9.83342C3.64166 9.83342 2.33333 8.52508 2.33333 6.50008V2.75008C2.33333 2.37591 2.37666 2.33341 2.75 2.33341H3.16666C3.6275 2.33341 4 1.96008 4 1.50008C4 1.04008 3.6275 0.666748 3.16666 0.666748H2.75C1.465 0.666748 0.666664 1.46508 0.666664 2.75008V6.50008C0.666664 9.15675 2.34416 11.0843 4.83333 11.4368V11.9167C4.83333 14.9034 7.26333 17.3334 10.25 17.3334C13.2367 17.3334 15.6667 14.9034 15.6667 11.9167V9.24015C16.4017 8.91765 16.9167 8.18508 16.9167 7.33342Z" fill="#246BFD"/>
</svg>
