<svg width="61" height="60" viewBox="0 0 61 60" fill="none" xmlns="http://www.w3.org/2000/svg">
<rect x="0.5" width="60" height="60" rx="30" fill="#246BFD" fill-opacity="0.08"/>
<path fill-rule="evenodd" clip-rule="evenodd" d="M35.646 19.23L35.6472 20.1045C38.8609 20.3564 40.9839 22.5463 40.9873 25.9046L41 35.7347C41.0046 39.3962 38.7043 41.6491 35.0171 41.6549L26.0105 41.6666C22.3464 41.6712 20.0173 39.3647 20.0127 35.6927L20 25.9781C19.9954 22.5976 22.0434 20.4135 25.2572 20.1185L25.256 19.244C25.2549 18.7309 25.635 18.3449 26.1418 18.3449C26.6487 18.3437 27.0288 18.7286 27.0299 19.2416L27.0311 20.0579L33.8733 20.0486L33.8721 19.2323C33.871 18.7192 34.2511 18.3344 34.7579 18.3333C35.2532 18.3321 35.6449 18.7169 35.646 19.23ZM21.7751 26.3384L39.2146 26.3151V25.907C39.165 23.3999 37.9072 22.0845 35.6495 21.8886L35.6506 22.7865C35.6506 23.2879 35.2601 23.6856 34.7648 23.6856C34.258 23.6867 33.8767 23.2903 33.8767 22.7889L33.8756 21.8443L27.0334 21.8537L27.0346 22.797C27.0346 23.2996 26.6556 23.6961 26.1488 23.6961C25.6419 23.6972 25.2607 23.3019 25.2607 22.7994L25.2595 21.9015C23.0133 22.1265 21.7705 23.4465 21.7739 25.9758L21.7751 26.3384ZM34.2799 31.6383V31.6511C34.2914 32.1875 34.7291 32.5944 35.2601 32.5828C35.7785 32.57 36.192 32.1257 36.1805 31.5893C36.1563 31.0762 35.7405 30.6576 35.2233 30.6588C34.6934 30.6704 34.2787 31.1019 34.2799 31.6383ZM35.2313 36.874C34.7015 36.8623 34.2741 36.4204 34.273 35.884C34.2615 35.3476 34.6865 34.9033 35.2164 34.8905H35.2279C35.7693 34.8905 36.2081 35.3324 36.2081 35.8805C36.2093 36.4285 35.7716 36.8728 35.2313 36.874ZM29.5341 31.6569C29.5572 32.1933 29.996 32.6119 30.5259 32.5886C31.0443 32.5641 31.4578 32.121 31.4347 31.5846C31.4221 31.0599 30.9959 30.6518 30.4775 30.6529C29.9477 30.6762 29.533 31.1205 29.5341 31.6569ZM30.5305 36.8215C30.0007 36.8448 29.5629 36.4262 29.5387 35.8898C29.5387 35.3534 29.9523 34.9103 30.4821 34.8858C31.0005 34.8846 31.4278 35.2928 31.4394 35.8163C31.4635 36.3539 31.0489 36.797 30.5305 36.8215ZM24.7884 31.6977C24.8114 32.2341 25.2503 32.6539 25.7802 32.6294C26.2985 32.6061 26.712 32.1618 26.6878 31.6254C26.6763 31.1007 26.2501 30.6926 25.7306 30.6937C25.2008 30.7171 24.7872 31.1613 24.7884 31.6977ZM25.7848 36.8273C25.2549 36.8518 24.8172 36.432 24.793 35.8956C24.7918 35.3592 25.2065 34.915 25.7364 34.8916C26.2547 34.8905 26.6821 35.2986 26.6936 35.8233C26.7178 36.3597 26.3043 36.804 25.7848 36.8273Z" fill="url(#paint0_linear_6_3297)"/>
<defs>
<linearGradient id="paint0_linear_6_3297" x1="41" y1="41.6666" x2="15.6382" y2="35.0485" gradientUnits="userSpaceOnUse">
<stop stop-color="#246BFD"/>
<stop offset="1" stop-color="#5089FF"/>
</linearGradient>
</defs>
</svg>
