<svg width="338" height="218" viewBox="0 0 338 218" fill="none" xmlns="http://www.w3.org/2000/svg">
<g clip-path="url(#clip0_11_2779)">
<rect x="58.1313" y="14.4646" width="5.48212" height="5.48212" rx="0.913687" transform="rotate(-25 58.1313 14.4646)" fill="#EB5757"/>
<rect y="18.7761" width="2.74106" height="2.74106" rx="0.913687" transform="rotate(-25 0 18.7761)" fill="#2D9CDB"/>
<rect x="160.677" y="3.24365" width="7.67497" height="7.67497" rx="0.913687" transform="rotate(-25 160.677 3.24365)" fill="#F2C94C"/>
<rect x="28.4653" y="38.688" width="4.3857" height="4.3857" rx="0.913687" transform="rotate(-25 28.4653 38.688)" fill="#2D9CDB"/>
<rect x="245.479" y="41.3245" width="5.48212" height="5.48212" rx="0.913687" transform="rotate(-25 245.479 41.3245)" fill="#27AE60"/>
<rect x="274.701" y="168.033" width="4.85441" height="4.85441" rx="1.01133" transform="rotate(-25 274.701 168.033)" fill="#EB5757"/>
<rect x="4.04102" y="121.297" width="4.61815" height="4.61815" rx="1.53938" transform="rotate(-25 4.04102 121.297)" fill="#2D9CDB"/>
<rect x="209.236" y="141.513" width="8.49521" height="8.49521" rx="1.01133" transform="rotate(-25 209.236 141.513)" fill="#6FCF97"/>
<path d="M29.0197 185.015C28.6604 184.245 28.9938 183.329 29.7643 182.97L33.6707 181.148C34.4413 180.789 35.3572 181.122 35.7165 181.893L37.5381 185.799C37.8974 186.569 37.564 187.485 36.7935 187.845L32.887 189.666C32.1165 190.026 31.2006 189.692 30.8413 188.922L29.0197 185.015Z" fill="#56CCF2"/>
<rect x="326.481" y="189.34" width="8.49521" height="8.49521" rx="1.01133" transform="rotate(-25 326.481 189.34)" fill="#9B51E0"/>
<path d="M115.295 142.274L117.147 152.777L107.125 149.13L115.295 142.274Z" fill="#F2994A"/>
<path d="M162.505 185.616L173.008 187.468L166.153 195.638L162.505 185.616Z" fill="#F2C94C"/>
<circle cx="178.22" cy="38.3683" r="2.74106" fill="#2F80ED"/>
<circle cx="321.668" cy="32.1949" r="4.56844" fill="#F2C94C"/>
</g>
<g clip-path="url(#clip1_11_2779)">
<circle cx="168.5" cy="80.5" r="56.5" fill="#2FBF94"/>
<path d="M149 80.83L161.83 93.66L187.535 68" stroke="white" stroke-width="8" stroke-linecap="round" stroke-linejoin="round"/>
</g>
<path d="M98.3123 171.466C99.4163 172.102 99.9683 173.062 99.9683 174.346C99.9683 175.414 99.5903 176.29 98.8343 176.974C98.0783 177.658 97.1483 178 96.0443 178H90.6983V165.4H95.6663C96.7463 165.4 97.6523 165.736 98.3843 166.408C99.1283 167.068 99.5003 167.914 99.5003 168.946C99.5003 169.99 99.1043 170.83 98.3123 171.466ZM95.6663 167.722H93.1823V170.494H95.6663C96.0503 170.494 96.3683 170.362 96.6203 170.098C96.8843 169.834 97.0163 169.504 97.0163 169.108C97.0163 168.712 96.8903 168.382 96.6383 168.118C96.3863 167.854 96.0623 167.722 95.6663 167.722ZM96.0443 175.678C96.4643 175.678 96.8123 175.54 97.0883 175.264C97.3643 174.976 97.5023 174.616 97.5023 174.184C97.5023 173.764 97.3643 173.416 97.0883 173.14C96.8123 172.852 96.4643 172.708 96.0443 172.708H93.1823V175.678H96.0443ZM109.297 176.884C108.373 177.796 107.245 178.252 105.913 178.252C104.581 178.252 103.453 177.796 102.529 176.884C101.617 175.96 101.161 174.832 101.161 173.5C101.161 172.168 101.617 171.046 102.529 170.134C103.453 169.21 104.581 168.748 105.913 168.748C107.245 168.748 108.373 169.21 109.297 170.134C110.221 171.046 110.683 172.168 110.683 173.5C110.683 174.832 110.221 175.96 109.297 176.884ZM104.167 175.282C104.635 175.75 105.217 175.984 105.913 175.984C106.609 175.984 107.191 175.75 107.659 175.282C108.127 174.814 108.361 174.22 108.361 173.5C108.361 172.78 108.127 172.186 107.659 171.718C107.191 171.25 106.609 171.016 105.913 171.016C105.217 171.016 104.635 171.25 104.167 171.718C103.711 172.186 103.483 172.78 103.483 173.5C103.483 174.22 103.711 174.814 104.167 175.282ZM119.985 176.884C119.061 177.796 117.933 178.252 116.601 178.252C115.269 178.252 114.141 177.796 113.217 176.884C112.305 175.96 111.849 174.832 111.849 173.5C111.849 172.168 112.305 171.046 113.217 170.134C114.141 169.21 115.269 168.748 116.601 168.748C117.933 168.748 119.061 169.21 119.985 170.134C120.909 171.046 121.371 172.168 121.371 173.5C121.371 174.832 120.909 175.96 119.985 176.884ZM114.855 175.282C115.323 175.75 115.905 175.984 116.601 175.984C117.297 175.984 117.879 175.75 118.347 175.282C118.815 174.814 119.049 174.22 119.049 173.5C119.049 172.78 118.815 172.186 118.347 171.718C117.879 171.25 117.297 171.016 116.601 171.016C115.905 171.016 115.323 171.25 114.855 171.718C114.399 172.186 114.171 172.78 114.171 173.5C114.171 174.22 114.399 174.814 114.855 175.282ZM131.302 178H128.602L125.326 173.914V178H123.004V165.4H125.326V172.96L128.422 169H131.194L127.576 173.446L131.302 178ZM133.613 167.92C133.229 167.92 132.893 167.782 132.605 167.506C132.329 167.218 132.191 166.882 132.191 166.498C132.191 166.114 132.329 165.778 132.605 165.49C132.893 165.202 133.229 165.058 133.613 165.058C134.009 165.058 134.345 165.202 134.621 165.49C134.909 165.778 135.053 166.114 135.053 166.498C135.053 166.882 134.909 167.218 134.621 167.506C134.345 167.782 134.009 167.92 133.613 167.92ZM132.461 178V169H134.783V178H132.461ZM141.913 168.748C142.897 168.748 143.707 169.078 144.343 169.738C144.991 170.398 145.315 171.31 145.315 172.474V178H142.993V172.762C142.993 172.162 142.831 171.706 142.507 171.394C142.183 171.07 141.751 170.908 141.211 170.908C140.611 170.908 140.131 171.094 139.771 171.466C139.411 171.838 139.231 172.396 139.231 173.14V178H136.909V169H139.231V170.008C139.795 169.168 140.689 168.748 141.913 168.748ZM154.191 169H156.459V177.568C156.459 178.96 155.997 180.022 155.073 180.754C154.161 181.486 153.057 181.852 151.761 181.852C150.789 181.852 149.931 181.666 149.187 181.294C148.455 180.922 147.891 180.376 147.495 179.656L149.475 178.522C149.931 179.362 150.717 179.782 151.833 179.782C152.565 179.782 153.141 179.59 153.561 179.206C153.981 178.822 154.191 178.276 154.191 177.568V176.596C153.507 177.508 152.547 177.964 151.311 177.964C150.039 177.964 148.971 177.52 148.107 176.632C147.255 175.732 146.829 174.64 146.829 173.356C146.829 172.084 147.261 170.998 148.125 170.098C148.989 169.198 150.051 168.748 151.311 168.748C152.547 168.748 153.507 169.204 154.191 170.116V169ZM149.853 175.138C150.333 175.594 150.939 175.822 151.671 175.822C152.403 175.822 153.003 175.594 153.471 175.138C153.951 174.67 154.191 174.076 154.191 173.356C154.191 172.648 153.951 172.066 153.471 171.61C153.003 171.142 152.403 170.908 151.671 170.908C150.939 170.908 150.333 171.142 149.853 171.61C149.385 172.066 149.151 172.648 149.151 173.356C149.151 174.076 149.385 174.67 149.853 175.138ZM169.149 178.252C167.253 178.252 165.687 177.622 164.451 176.362C163.215 175.102 162.597 173.548 162.597 171.7C162.597 169.84 163.215 168.286 164.451 167.038C165.687 165.778 167.253 165.148 169.149 165.148C170.289 165.148 171.339 165.418 172.299 165.958C173.271 166.486 174.027 167.206 174.567 168.118L172.425 169.36C172.113 168.796 171.669 168.358 171.093 168.046C170.517 167.722 169.869 167.56 169.149 167.56C167.925 167.56 166.935 167.944 166.179 168.712C165.435 169.48 165.063 170.476 165.063 171.7C165.063 172.912 165.435 173.902 166.179 174.67C166.935 175.438 167.925 175.822 169.149 175.822C169.869 175.822 170.517 175.666 171.093 175.354C171.681 175.03 172.125 174.592 172.425 174.04L174.567 175.282C174.027 176.194 173.277 176.92 172.317 177.46C171.357 177.988 170.301 178.252 169.149 178.252ZM183.706 176.884C182.782 177.796 181.654 178.252 180.322 178.252C178.99 178.252 177.862 177.796 176.938 176.884C176.026 175.96 175.57 174.832 175.57 173.5C175.57 172.168 176.026 171.046 176.938 170.134C177.862 169.21 178.99 168.748 180.322 168.748C181.654 168.748 182.782 169.21 183.706 170.134C184.63 171.046 185.092 172.168 185.092 173.5C185.092 174.832 184.63 175.96 183.706 176.884ZM178.576 175.282C179.044 175.75 179.626 175.984 180.322 175.984C181.018 175.984 181.6 175.75 182.068 175.282C182.536 174.814 182.77 174.22 182.77 173.5C182.77 172.78 182.536 172.186 182.068 171.718C181.6 171.25 181.018 171.016 180.322 171.016C179.626 171.016 179.044 171.25 178.576 171.718C178.12 172.186 177.892 172.78 177.892 173.5C177.892 174.22 178.12 174.814 178.576 175.282ZM191.729 168.748C192.713 168.748 193.523 169.078 194.159 169.738C194.807 170.398 195.131 171.31 195.131 172.474V178H192.809V172.762C192.809 172.162 192.647 171.706 192.323 171.394C191.999 171.07 191.567 170.908 191.027 170.908C190.427 170.908 189.947 171.094 189.587 171.466C189.227 171.838 189.047 172.396 189.047 173.14V178H186.725V169H189.047V170.008C189.611 169.168 190.505 168.748 191.729 168.748ZM205.016 169V178H202.694V171.232H200.048V178H197.726V171.232H196.43V169H197.726V168.91C197.726 166.402 199.136 165.148 201.956 165.148C202.592 165.148 203.294 165.232 204.062 165.4V167.524C203.258 167.428 202.556 167.38 201.956 167.38C201.308 167.38 200.828 167.494 200.516 167.722C200.204 167.938 200.048 168.334 200.048 168.91V169H205.016ZM209.455 170.548C209.671 169.972 210.025 169.54 210.517 169.252C211.021 168.964 211.579 168.82 212.191 168.82V171.412C211.483 171.328 210.847 171.472 210.283 171.844C209.731 172.216 209.455 172.834 209.455 173.698V178H207.133V169H209.455V170.548ZM223.503 168.748C224.535 168.748 225.357 169.084 225.969 169.756C226.593 170.428 226.905 171.328 226.905 172.456V178H224.583V172.618C224.583 172.078 224.451 171.658 224.187 171.358C223.923 171.058 223.551 170.908 223.071 170.908C222.543 170.908 222.129 171.082 221.829 171.43C221.541 171.778 221.397 172.282 221.397 172.942V178H219.075V172.618C219.075 172.078 218.943 171.658 218.679 171.358C218.415 171.058 218.043 170.908 217.563 170.908C217.047 170.908 216.633 171.082 216.321 171.43C216.021 171.778 215.871 172.282 215.871 172.942V178H213.549V169H215.871V169.954C216.411 169.15 217.245 168.748 218.373 168.748C219.477 168.748 220.293 169.18 220.821 170.044C221.421 169.18 222.315 168.748 223.503 168.748ZM230.839 174.454C231.151 175.582 231.997 176.146 233.377 176.146C234.265 176.146 234.937 175.846 235.393 175.246L237.265 176.326C236.377 177.61 235.069 178.252 233.341 178.252C231.853 178.252 230.659 177.802 229.759 176.902C228.859 176.002 228.409 174.868 228.409 173.5C228.409 172.144 228.853 171.016 229.741 170.116C230.629 169.204 231.769 168.748 233.161 168.748C234.481 168.748 235.567 169.204 236.419 170.116C237.283 171.028 237.715 172.156 237.715 173.5C237.715 173.8 237.685 174.118 237.625 174.454H230.839ZM230.803 172.654H235.393C235.261 172.042 234.985 171.586 234.565 171.286C234.157 170.986 233.689 170.836 233.161 170.836C232.537 170.836 232.021 170.998 231.613 171.322C231.205 171.634 230.935 172.078 230.803 172.654ZM246.088 165.4H248.41V178H246.088V176.938C245.404 177.814 244.432 178.252 243.172 178.252C241.96 178.252 240.922 177.796 240.058 176.884C239.206 175.96 238.78 174.832 238.78 173.5C238.78 172.168 239.206 171.046 240.058 170.134C240.922 169.21 241.96 168.748 243.172 168.748C244.432 168.748 245.404 169.186 246.088 170.062V165.4ZM241.804 175.336C242.284 175.804 242.884 176.038 243.604 176.038C244.324 176.038 244.918 175.804 245.386 175.336C245.854 174.856 246.088 174.244 246.088 173.5C246.088 172.756 245.854 172.15 245.386 171.682C244.918 171.202 244.324 170.962 243.604 170.962C242.884 170.962 242.284 171.202 241.804 171.682C241.336 172.15 241.102 172.756 241.102 173.5C241.102 174.244 241.336 174.856 241.804 175.336Z" fill="#4F5159"/>
<defs>
<clipPath id="clip0_11_2779">
<rect width="337.77" height="198.249" fill="white"/>
</clipPath>
<clipPath id="clip1_11_2779">
<rect width="113" height="113" fill="white" transform="translate(112 24)"/>
</clipPath>
</defs>
</svg>
