<svg width="24" height="24" viewBox="0 0 24 24" fill="none" xmlns="http://www.w3.org/2000/svg">
<path d="M21.45 8.75651C19.3383 8.75651 18.475 7.26318 19.525 5.43151C20.1317 4.36984 19.77 3.01651 18.7083 2.40984L16.69 1.25484C15.7683 0.706511 14.5783 1.03318 14.03 1.95484L13.9017 2.17651C12.8517 4.00818 11.125 4.00818 10.0633 2.17651L9.935 1.95484C9.41 1.03318 8.22 0.706511 7.29833 1.25484L5.27999 2.40984C4.21833 3.01651 3.85666 4.38151 4.46333 5.44318C5.525 7.26318 4.66166 8.75651 2.55 8.75651C1.33666 8.75651 0.333328 9.74818 0.333328 10.9732V13.0265C0.333328 14.2398 1.325 15.2432 2.55 15.2432C4.66166 15.2432 5.525 16.7365 4.46333 18.5682C3.85666 19.6298 4.21833 20.9832 5.27999 21.5898L7.29833 22.7448C8.22 23.2932 9.41 22.9665 9.95833 22.0448L10.0867 21.8232C11.1367 19.9915 12.8633 19.9915 13.925 21.8232L14.0533 22.0448C14.6017 22.9665 15.7917 23.2932 16.7133 22.7448L18.7317 21.5898C19.7933 20.9832 20.155 19.6182 19.5483 18.5682C18.4867 16.7365 19.35 15.2432 21.4617 15.2432C22.675 15.2432 23.6783 14.2515 23.6783 13.0265V10.9732C23.6667 9.75984 22.675 8.75651 21.45 8.75651ZM12 15.7915C9.91166 15.7915 8.20833 14.0882 8.20833 11.9998C8.20833 9.91151 9.91166 8.20818 12 8.20818C14.0883 8.20818 15.7917 9.91151 15.7917 11.9998C15.7917 14.0882 14.0883 15.7915 12 15.7915Z" fill="#23262F"/>
</svg>
