<svg width="13" height="14" viewBox="0 0 13 14" fill="none" xmlns="http://www.w3.org/2000/svg">
<path d="M6.50009 4.33333V6.79264L7.68677 7.97933C7.88211 8.17466 7.88211 8.49135 7.68677 8.68669C7.58944 8.78402 7.46142 8.83333 7.33342 8.83333C7.20542 8.83333 7.0774 8.78469 6.98007 8.68669L5.64674 7.35335C5.55274 7.25935 5.50009 7.132 5.50009 7V4.33333C5.50009 4.05733 5.72409 3.83333 6.00009 3.83333C6.27609 3.83333 6.50009 4.05733 6.50009 4.33333ZM6.01734 0.5C4.14334 0.5 2.38742 1.3093 1.16676 2.69596V1C1.16676 0.724 0.942756 0.5 0.666756 0.5C0.390756 0.5 0.166756 0.724 0.166756 1V3.66667C0.166756 3.94267 0.390756 4.16667 0.666756 4.16667H3.33342C3.60942 4.16667 3.83342 3.94267 3.83342 3.66667C3.83342 3.39067 3.60942 3.16667 3.33342 3.16667H2.10214C3.12347 2.114 4.52416 1.5 6.01816 1.5C9.04082 1.5 11.5007 3.96733 11.5007 7C11.5007 10.0327 9.04149 12.5 6.01816 12.5C3.91816 12.5 2.03947 11.3299 1.11614 9.44662C0.994137 9.19928 0.696704 9.09527 0.446704 9.21794C0.198704 9.33927 0.0967076 9.63872 0.217374 9.88672C1.31071 12.1154 3.53267 13.5 6.01734 13.5C9.59134 13.5 12.5001 10.584 12.5001 7C12.5001 3.416 9.59201 0.5 6.01734 0.5Z" fill="#4F5159"/>
</svg>
