<svg width="21" height="21" viewBox="0 0 21 21" fill="none" xmlns="http://www.w3.org/2000/svg">
<path d="M12.6212 19.0511C12.4481 19.0943 12.2715 19.1326 12.0963 19.1649C11.6382 19.25 11.3353 19.6906 11.4201 20.1491C11.4619 20.3747 11.59 20.5626 11.764 20.6852C11.9432 20.8114 12.1714 20.8684 12.4038 20.8251C12.6125 20.7864 12.8228 20.7409 13.0292 20.6893C13.4816 20.5768 13.7572 20.1185 13.6443 19.6663C13.5318 19.2138 13.0739 18.9384 12.6212 19.0511Z" fill="#246BFD"/>
<path d="M18.8642 7.73564C18.9233 7.91386 19.0362 8.05936 19.1788 8.15989C19.3903 8.30881 19.6669 8.35892 19.931 8.27161C20.3736 8.12463 20.6135 7.6473 20.467 7.20486C20.4003 7.00317 20.3263 6.80085 20.2474 6.60385C20.0743 6.17094 19.5832 5.96017 19.1501 6.13333C18.7174 6.30641 18.5065 6.79759 18.6798 7.23064C18.7461 7.39622 18.8082 7.56618 18.8642 7.73564Z" fill="#246BFD"/>
<path d="M15.3645 17.8456C15.2155 17.9439 15.0618 18.0391 14.907 18.1282C14.503 18.3612 14.3647 18.8776 14.5976 19.2814C14.6608 19.3912 14.7451 19.481 14.8421 19.5496C15.1025 19.7329 15.4562 19.7603 15.7507 19.5907C15.9347 19.4845 16.1178 19.3716 16.2952 19.2543C16.684 18.9974 16.791 18.4736 16.534 18.0846C16.277 17.6954 15.7535 17.5885 15.3645 17.8456Z" fill="#246BFD"/>
<path d="M20.9919 10.0933C20.9736 9.62736 20.5811 9.26469 20.115 9.28288C19.6495 9.30125 19.2866 9.69385 19.3049 10.1596C19.3119 10.3377 19.3137 10.5185 19.3096 10.6964C19.303 10.9886 19.4459 11.249 19.668 11.4056C19.8003 11.4988 19.9609 11.5551 20.135 11.5591C20.601 11.5695 20.9871 11.1999 20.9975 10.7337C21.0021 10.5211 21.0003 10.3058 20.9919 10.0933Z" fill="#246BFD"/>
<path d="M18.7264 15.6247C18.3528 15.3444 17.8242 15.4205 17.5443 15.7935C17.4372 15.9363 17.3243 16.0774 17.2087 16.2132C16.9067 16.568 16.9494 17.101 17.3042 17.4032C17.3244 17.4203 17.3449 17.4361 17.3661 17.4509C17.7189 17.6996 18.2091 17.6424 18.4943 17.3078C18.6323 17.1457 18.7668 16.9772 18.8949 16.8066C19.1748 16.4336 19.099 15.9047 18.7264 15.6247Z" fill="#246BFD"/>
<path d="M19.9674 12.5731C19.5225 12.4336 19.0487 12.6812 18.9093 13.1261C18.856 13.2961 18.7968 13.4668 18.733 13.6341C18.5928 14.0023 18.7271 14.4074 19.035 14.6244C19.0915 14.6641 19.1537 14.6978 19.2213 14.7233C19.6568 14.8895 20.1446 14.671 20.3106 14.2352C20.3864 14.0364 20.4567 13.8332 20.5204 13.6311C20.6596 13.1862 20.4121 12.7126 19.9674 12.5731Z" fill="#246BFD"/>
<path d="M8.93803 19.1724C8.18326 19.0369 7.45923 18.8061 6.77266 18.4843C6.76454 18.48 6.75727 18.4752 6.74874 18.4713C6.58695 18.3951 6.42543 18.3136 6.26888 18.2283C6.26834 18.2277 6.26734 18.2273 6.26649 18.2269C5.97925 18.0688 5.69892 17.8938 5.42658 17.702C1.45536 14.9046 0.500516 9.39783 3.29814 5.42666C3.90647 4.56345 4.64264 3.8433 5.46337 3.27253C5.47348 3.26549 5.48359 3.25849 5.49361 3.2514C8.38572 1.25866 12.3127 1.12436 15.3837 3.17209L14.7241 4.12508C14.5408 4.39033 14.6536 4.58363 14.9746 4.55474L17.8396 4.29824C18.161 4.26935 18.3532 3.99132 18.2668 3.68093L17.4974 0.908947C17.4113 0.59819 17.1908 0.560993 17.0072 0.826202L16.3461 1.78145C14.0925 0.268609 11.3894 -0.308259 8.7065 0.156974C8.43628 0.203741 8.16985 0.26098 7.90708 0.32761C7.90505 0.327971 7.90342 0.328197 7.9018 0.328558C7.89164 0.331041 7.88135 0.334336 7.87146 0.33709C5.55794 0.931202 3.53942 2.28054 2.09908 4.20575C2.08694 4.22015 2.07443 4.23423 2.06297 4.2499C2.01507 4.3144 1.96754 4.3804 1.921 4.4464C1.84489 4.55456 1.76986 4.66543 1.69808 4.7763C1.6891 4.78966 1.68224 4.80325 1.67439 4.81674C0.4858 6.65858 -0.0875021 8.78792 0.0108169 10.9557C0.0110426 10.9629 0.0106364 10.97 0.0108169 10.9773C0.0203419 11.1891 0.0371346 11.4038 0.0599313 11.6152C0.0611501 11.6288 0.0641746 11.6417 0.0664769 11.6553C0.0900409 11.8679 0.119609 12.0809 0.15667 12.2939C0.533334 14.4669 1.55842 16.4223 3.09446 17.9438C3.09802 17.9474 3.10173 17.9513 3.10534 17.955C3.1066 17.9564 3.108 17.9571 3.10922 17.9584C3.52191 18.3654 3.9708 18.7419 4.45413 19.0823C5.71901 19.9736 7.12748 20.5628 8.64009 20.8342C9.09905 20.9167 9.53747 20.6112 9.61981 20.1524C9.7021 19.6934 9.39685 19.2546 8.93803 19.1724Z" fill="#246BFD"/>
<path d="M9.98193 3.67969C9.60441 3.67969 9.29861 3.98575 9.29861 4.36273V11.1677L15.5223 14.385C15.6225 14.4369 15.7298 14.4613 15.8353 14.4613C16.0825 14.4613 16.3212 14.3267 16.4426 14.0918C16.6158 13.7566 16.4847 13.3448 16.1495 13.1717L10.6645 10.3359V4.36273C10.6644 3.98575 10.359 3.67969 9.98193 3.67969Z" fill="#246BFD"/>
</svg>
