<svg width="50" height="51" viewBox="0 0 50 51" fill="none" xmlns="http://www.w3.org/2000/svg">
<rect y="0.5" width="50" height="50" rx="25" fill="#E9E9EA" fill-opacity="0.5"/>
<path d="M34.2083 21.7083H24.4583C23.7403 21.7091 23.0519 21.9947 22.5442 22.5025C22.0365 23.0102 21.7509 23.6986 21.75 24.4166V30.9166C21.7509 31.6346 22.0365 32.323 22.5442 32.8307C23.0519 33.3384 23.7403 33.6241 24.4583 33.6249H29.9216L32.2795 35.9833C32.3931 36.097 32.5379 36.1745 32.6956 36.2059C32.8532 36.2372 33.0166 36.2212 33.1651 36.1596C33.3137 36.0981 33.4406 35.9939 33.5299 35.8602C33.6191 35.7265 33.6667 35.5694 33.6667 35.4086V33.6249H34.2083C34.9264 33.6241 35.6147 33.3384 36.1225 32.8307C36.6302 32.323 36.9158 31.6346 36.9167 30.9166V24.4166C36.9158 23.6986 36.6302 23.0102 36.1225 22.5025C35.6147 21.9947 34.9264 21.7091 34.2083 21.7083ZM32.0417 26.8541H31.7389C31.6137 27.9725 31.1042 29.0128 30.2975 29.7975C30.763 29.9978 31.2641 30.1021 31.7708 30.1041C31.9165 30.1033 32.0568 30.1595 32.1616 30.2607C32.2665 30.3619 32.3276 30.5001 32.332 30.6458C32.3342 30.7159 32.3223 30.7857 32.297 30.8512C32.2718 30.9166 32.2336 30.9764 32.1849 31.0269C32.1362 31.0773 32.0779 31.1176 32.0133 31.1451C31.9488 31.1727 31.8795 31.1871 31.8093 31.1874C30.9434 31.185 30.0934 30.9553 29.3442 30.5212C28.6019 30.9571 27.7567 31.1871 26.8958 31.1874C26.7501 31.1882 26.6099 31.132 26.505 31.0308C26.4002 30.9296 26.339 30.7914 26.3347 30.6458C26.3325 30.5756 26.3444 30.5058 26.3697 30.4403C26.3949 30.3749 26.433 30.3151 26.4817 30.2646C26.5305 30.2142 26.5888 30.1739 26.6533 30.1464C26.7178 30.1188 26.7872 30.1044 26.8574 30.1041C27.3807 30.1047 27.8988 29.9989 28.38 29.7932C27.96 29.3938 27.6159 28.9216 27.3644 28.3995C27.3312 28.3349 27.3114 28.2644 27.306 28.192C27.3007 28.1196 27.3099 28.0469 27.3332 27.9782C27.3565 27.9095 27.3934 27.8462 27.4416 27.792C27.4898 27.7377 27.5485 27.6938 27.614 27.6627C27.6796 27.6316 27.7507 27.614 27.8232 27.6109C27.8957 27.6078 27.9681 27.6193 28.036 27.6447C28.104 27.6701 28.1661 27.709 28.2188 27.7589C28.2715 27.8088 28.3136 27.8688 28.3426 27.9353C28.5763 28.426 28.9131 28.8606 29.3301 29.2093C30.0435 28.6131 30.5115 27.7743 30.6442 26.8541H26.625C26.4813 26.8541 26.3436 26.797 26.242 26.6954C26.1404 26.5939 26.0833 26.4561 26.0833 26.3124C26.0833 26.1688 26.1404 26.031 26.242 25.9294C26.3436 25.8278 26.4813 25.7708 26.625 25.7708H28.7917V24.6874C28.7917 24.5438 28.8487 24.406 28.9503 24.3044C29.0519 24.2028 29.1897 24.1458 29.3333 24.1458C29.477 24.1458 29.6148 24.2028 29.7164 24.3044C29.8179 24.406 29.875 24.5438 29.875 24.6874V25.7708H32.0417C32.1853 25.7708 32.3231 25.8278 32.4247 25.9294C32.5263 26.031 32.5833 26.1688 32.5833 26.3124C32.5833 26.4561 32.5263 26.5939 32.4247 26.6954C32.3231 26.797 32.1853 26.8541 32.0417 26.8541Z" fill="white"/>
<path d="M20.6667 20.3093L19.7843 22.2501H21.3513C21.3903 22.196 21.4321 22.1418 21.4743 22.0876L20.6667 20.3093Z" fill="white"/>
<path d="M25.5417 15.75H15.7917C15.0736 15.7509 14.3853 16.0365 13.8775 16.5442C13.3698 17.0519 13.0842 17.7403 13.0833 18.4583V24.9583C13.0842 25.6764 13.3698 26.3647 13.8775 26.8725C14.3853 27.3802 15.0736 27.6658 15.7917 27.6667H16.3333V29.4504C16.3333 29.6111 16.3809 29.7683 16.4702 29.902C16.5594 30.0357 16.6864 30.1398 16.8349 30.2014C16.9834 30.2629 17.1468 30.279 17.3045 30.2476C17.4621 30.2162 17.6069 30.1388 17.7206 30.0251L20.0784 27.6667H20.6667V24.4167C20.6678 24.0496 20.7225 23.6846 20.8292 23.3333H19.2919L18.4513 25.1826C18.3898 25.3101 18.2808 25.4084 18.1477 25.4566C18.0146 25.5048 17.8679 25.4989 17.7391 25.4403C17.6102 25.3817 17.5094 25.275 17.4583 25.143C17.4072 25.011 17.4097 24.8642 17.4654 24.7341L20.1738 18.7758C20.2168 18.6812 20.2862 18.601 20.3736 18.5448C20.461 18.4886 20.5628 18.4587 20.6667 18.4587C20.7706 18.4587 20.8723 18.4886 20.9597 18.5448C21.0471 18.601 21.1165 18.6812 21.1596 18.7758L22.3063 21.2983C22.938 20.8593 23.6891 20.6243 24.4583 20.625H28.25V18.4583C28.2492 17.7403 27.9635 17.0519 27.4558 16.5442C26.9481 16.0365 26.2597 15.7509 25.5417 15.75Z" fill="white"/>
</svg>
