<svg width="18" height="16" viewBox="0 0 18 16" fill="none" xmlns="http://www.w3.org/2000/svg">
<path d="M14.6251 13.2916C14.6251 14.985 13.6826 15.9167 11.9726 15.9167H6.02758C4.31758 15.9167 3.37509 14.9841 3.37509 13.2916C3.37509 11.385 4.4584 9.15835 7.51256 9.15835H10.4868C13.5418 9.15751 14.6251 11.385 14.6251 13.2916ZM9.00681 7.5933C10.6251 7.5933 11.941 6.28248 11.941 4.67165C11.941 3.05998 10.6243 1.75 9.00681 1.75C7.38931 1.75 6.07346 3.06082 6.07346 4.67165C6.07346 6.28248 7.38847 7.5933 9.00681 7.5933ZM14.6585 5.44171H13.3168C13.2001 5.44171 13.1001 5.52503 13.0751 5.63336C12.8918 6.42503 12.4751 7.13332 11.9001 7.67499C11.7584 7.80832 11.8418 8.04165 12.0334 8.09165C13.5084 8.44165 14.5334 9.30835 15.1418 10.4083C15.1834 10.5 15.2668 10.5583 15.3751 10.5583H15.725C17.0334 10.5583 17.7501 9.84169 17.7501 8.54169C17.7501 7.11669 16.9418 5.44171 14.6585 5.44171ZM13.5918 0.0833333C12.7601 0.0833333 12.0342 0.539131 11.6534 1.2133C11.6226 1.2683 11.6242 1.32915 11.6359 1.38165C11.6484 1.43665 11.6726 1.46588 11.7243 1.50922C12.5401 2.19672 13.0843 3.19253 13.1735 4.31836C13.1785 4.38169 13.2001 4.42086 13.2385 4.46169C13.2768 4.50252 13.3343 4.52745 13.4101 4.53412C13.4693 4.53912 13.5301 4.54246 13.5918 4.54246C14.8168 4.54246 15.8168 3.54252 15.8168 2.30918C15.8168 1.08335 14.8168 0.0833333 13.5918 0.0833333ZM0.250092 8.54169C0.250092 9.84169 0.966803 10.5583 2.27514 10.5583H2.62507C2.7334 10.5583 2.81676 10.5 2.85843 10.4083C3.46676 9.30835 4.49175 8.44165 5.96675 8.09165C6.15841 8.04165 6.24177 7.80832 6.10011 7.67499C5.52511 7.13332 5.10841 6.42503 4.92508 5.63336C4.90008 5.52503 4.80005 5.44171 4.68338 5.44171H3.34173C1.05839 5.44171 0.250092 7.11669 0.250092 8.54169ZM2.18338 2.30837C2.18338 3.5417 3.18342 4.54165 4.40842 4.54165C4.47008 4.54165 4.53093 4.5383 4.5901 4.5333C4.66676 4.52664 4.72338 4.50171 4.76171 4.46088C4.80004 4.42004 4.82171 4.38088 4.82671 4.31755C4.91588 3.19171 5.46006 2.1958 6.27589 1.5083C6.32672 1.46497 6.35179 1.43584 6.36429 1.38084C6.37595 1.32834 6.37762 1.26832 6.34679 1.21248C5.96512 0.538317 5.24008 0.0825195 4.40842 0.0825195C3.18342 0.0833529 2.18338 1.08337 2.18338 2.30837Z" fill="#2563EB"/>
</svg>
