<svg width="20" height="21" viewBox="0 0 20 21" fill="none" xmlns="http://www.w3.org/2000/svg">
<path fill-rule="evenodd" clip-rule="evenodd" d="M2.54 0.566406H5.92C7.33 0.566406 8.46 1.71641 8.46 3.12741V6.53641C8.46 7.95641 7.33 9.09641 5.92 9.09641H2.54C1.14 9.09641 0 7.95641 0 6.53641V3.12741C0 1.71641 1.14 0.566406 2.54 0.566406ZM2.54 12.0361H5.92C7.33 12.0361 8.46 13.1771 8.46 14.5971V18.0061C8.46 19.4161 7.33 20.5661 5.92 20.5661H2.54C1.14 20.5661 0 19.4161 0 18.0061V14.5971C0 13.1771 1.14 12.0361 2.54 12.0361ZM17.4601 0.566406H14.0801C12.6701 0.566406 11.5401 1.71641 11.5401 3.12741V6.53641C11.5401 7.95641 12.6701 9.09641 14.0801 9.09641H17.4601C18.8601 9.09641 20.0001 7.95641 20.0001 6.53641V3.12741C20.0001 1.71641 18.8601 0.566406 17.4601 0.566406ZM14.0801 12.0361H17.4601C18.8601 12.0361 20.0001 13.1771 20.0001 14.5971V18.0061C20.0001 19.4161 18.8601 20.5661 17.4601 20.5661H14.0801C12.6701 20.5661 11.5401 19.4161 11.5401 18.0061V14.5971C11.5401 13.1771 12.6701 12.0361 14.0801 12.0361Z" fill="#246BFD"/>
</svg>
